SplineFontDB: 3.2
FontName: bescii
FullName: Basic Engine ASCII
FamilyName: Basic Engine ASCII
Weight: Book
Copyright: CC0 1.0 Universal
Version: 1.200
ItalicAngle: 0
UnderlinePosition: -100
UnderlineWidth: 40
Ascent: 700
Descent: 100
InvalidEm: 0
sfntRevision: 0x00013333
LayerCount: 2
Layer: 0 1 "Atr+AOEA-s" 1
Layer: 1 1 "Fore" 0
HasVMetrics: 1
XUID: [1021 999 1154514124 10265395]
StyleMap: 0x0040
FSType: 0
OS2Version: 4
OS2_WeightWidthSlopeOnly: 0
OS2_UseTypoMetrics: 1
CreationTime: 1621270988
ModificationTime: 1675069937
PfmFamily: 81
TTFWeight: 400
TTFWidth: 5
LineGap: 0
VLineGap: 0
Panose: 0 0 0 9 0 0 0 0 0 0
OS2TypoAscent: 700
OS2TypoAOffset: 0
OS2TypoDescent: -100
OS2TypoDOffset: 0
OS2TypoLinegap: 0
OS2WinAscent: 700
OS2WinAOffset: 0
OS2WinDescent: 100
OS2WinDOffset: 0
HheadAscent: 700
HheadAOffset: 0
HheadDescent: -100
HheadDOffset: 0
OS2SubXSize: 520
OS2SubYSize: 480
OS2SubXOff: 0
OS2SubYOff: 60
OS2SupXSize: 520
OS2SupYSize: 480
OS2SupXOff: 0
OS2SupYOff: 280
OS2StrikeYSize: 100
OS2StrikeYPos: 350
OS2CapHeight: 700
OS2XHeight: 500
OS2Vendor: 'DEVR'
OS2CodePages: a0020001.80000000
OS2UnicodeRanges: e00000ef.1087f9f2.02000002.00000000
DEI: 91125
ShortTable: maxp 16
  1
  0
  673
  128
  32
  32
  5
  1
  2
  30
  6
  0
  100
  0
  2
  1
EndShort
LangName: 1033 "" "" "Regular" "1.200;DEVR;bescii" "" "Version 1.200" "" "" "Damian Vila Rio" "Damian Vila Rio" "" "https://damianvila.com" "https://damianvila.com" "https://creativecommons.org/publicdomain/zero/1.0/" "http://creativecommons.org/licenses/by-sa/4.0/" "" "Basic Engine ASCII 8x8" "Regular"
Encoding: UnicodeFull
UnicodeInterp: none
NameList: AGL For New Fonts
DisplaySize: -48
AntiAlias: 1
FitToEm: 0
WinInfo: 1112982 38 15
BeginChars: 1114113 673

StartChar: .notdef
Encoding: 1114112 -1 0
Width: 800
GlyphClass: 1
Flags: WO
LayerCount: 2
Fore
SplineSet
528 -100 m 1,0,-1
 274 -100 l 1,1,-1
 274 700 l 1,2,-1
 528 700 l 1,3,-1
 528 -100 l 1,0,-1
466 -45 m 1,4,-1
 466 -18 l 1,5,-1
 385 -18 l 1,6,-1
 441 19 l 1,7,-1
 466 19 l 1,8,-1
 466 46 l 1,9,-1
 334 46 l 1,10,-1
 334 19 l 1,11,-1
 390 19 l 1,12,-1
 334 -18 l 1,13,-1
 334 -45 l 1,14,-1
 466 -45 l 1,4,-1
466 64 m 1,15,-1
 466 154 l 1,16,-1
 334 154 l 1,17,-1
 334 64 l 1,18,-1
 466 64 l 1,15,-1
466 202 m 1,19,-1
 466 293 l 1,20,-1
 386 293 l 1,21,-1
 386 248 l 1,22,-1
 414 248 l 1,23,-1
 414 266 l 1,24,-1
 440 266 l 1,25,-1
 440 229 l 1,26,-1
 360 229 l 1,27,-1
 360 293 l 1,28,-1
 334 293 l 1,29,-1
 334 202 l 1,30,-1
 466 202 l 1,19,-1
466 310 m 1,31,-1
 466 390 l 1,32,-1
 440 390 l 1,33,-1
 440 338 l 1,34,-1
 334 338 l 1,35,-1
 334 310 l 1,36,-1
 466 310 l 1,31,-1
414 356 m 1,37,-1
 414 412 l 1,38,-1
 466 412 l 1,39,-1
 466 438 l 1,40,-1
 334 438 l 1,41,-1
 334 412 l 1,42,-1
 386 412 l 1,43,-1
 386 382 l 1,44,-1
 334 382 l 1,45,-1
 334 356 l 1,46,-1
 414 356 l 1,37,-1
466 460 m 1,47,-1
 466 487 l 1,48,-1
 414 487 l 1,49,-1
 414 543 l 1,50,-1
 334 543 l 1,51,-1
 334 460 l 1,52,-1
 466 460 l 1,47,-1
466 564 m 1,53,-1
 466 590 l 1,54,-1
 414 590 l 1,55,-1
 414 620 l 1,56,-1
 466 620 l 1,57,-1
 466 646 l 1,58,-1
 334 646 l 1,59,-1
 334 620 l 1,60,-1
 386 620 l 1,61,-1
 386 590 l 1,62,-1
 334 590 l 1,63,-1
 334 564 l 1,64,-1
 466 564 l 1,53,-1
360 128 m 1,65,-1
 440 128 l 1,66,-1
 440 90 l 1,67,-1
 360 90 l 1,68,-1
 360 128 l 1,65,-1
360 516 m 1,69,-1
 386 516 l 1,70,-1
 386 487 l 1,71,-1
 360 487 l 1,72,-1
 360 516 l 1,69,-1
EndSplineSet
EndChar

StartChar: A
Encoding: 65 65 2
AltUni2: 00e041.ffffffff.0 00e041.ffffffff.0
Width: 800
GlyphClass: 1
Flags: W
LayerCount: 2
Fore
SplineSet
100 500 m 1,0,-1
 200 500 l 1,1,-1
 200 600 l 1,2,-1
 300 600 l 1,3,-1
 300 700 l 1,4,-1
 500 700 l 1,5,-1
 500 600 l 1,6,-1
 600 600 l 1,7,-1
 600 500 l 1,8,-1
 700 500 l 1,9,-1
 700 0 l 1,10,-1
 500 0 l 1,11,-1
 500 200 l 1,12,-1
 300 200 l 1,13,-1
 300 0 l 1,14,-1
 100 0 l 1,15,-1
 100 500 l 1,0,-1
500 300 m 1,16,-1
 500 500 l 1,17,-1
 300 500 l 1,18,-1
 300 300 l 1,19,-1
 500 300 l 1,16,-1
EndSplineSet
EndChar

StartChar: Aacute
Encoding: 193 193 3
Width: 800
GlyphClass: 1
Flags: W
LayerCount: 2
Fore
SplineSet
300 600 m 1,0,-1
 400 600 l 1,1,-1
 400 500 l 1,2,-1
 300 500 l 1,3,-1
 300 600 l 1,0,-1
100 300 m 1,4,-1
 200 300 l 1,5,-1
 200 400 l 1,6,-1
 600 400 l 1,7,-1
 600 300 l 1,8,-1
 700 300 l 1,9,-1
 700 0 l 1,10,-1
 500 0 l 1,11,-1
 500 100 l 1,12,-1
 300 100 l 1,13,-1
 300 0 l 1,14,-1
 100 0 l 1,15,-1
 100 300 l 1,4,-1
500 200 m 1,16,-1
 500 300 l 1,17,-1
 300 300 l 1,18,-1
 300 200 l 1,19,-1
 500 200 l 1,16,-1
400 700 m 1,20,-1
 500 700 l 1,21,-1
 500 600 l 1,22,-1
 400 600 l 1,23,-1
 400 700 l 1,20,-1
EndSplineSet
EndChar

StartChar: Acircumflex
Encoding: 194 194 4
Width: 800
GlyphClass: 1
Flags: W
LayerCount: 2
Fore
SplineSet
200 600 m 1,0,-1
 300 600 l 1,1,-1
 300 500 l 1,2,-1
 200 500 l 1,3,-1
 200 600 l 1,0,-1
100 300 m 1,4,-1
 200 300 l 1,5,-1
 200 400 l 1,6,-1
 600 400 l 1,7,-1
 600 300 l 1,8,-1
 700 300 l 1,9,-1
 700 0 l 1,10,-1
 500 0 l 1,11,-1
 500 100 l 1,12,-1
 300 100 l 1,13,-1
 300 0 l 1,14,-1
 100 0 l 1,15,-1
 100 300 l 1,4,-1
500 200 m 1,16,-1
 500 300 l 1,17,-1
 300 300 l 1,18,-1
 300 200 l 1,19,-1
 500 200 l 1,16,-1
300 700 m 1,20,-1
 400 700 l 1,21,-1
 400 600 l 1,22,-1
 300 600 l 1,23,-1
 300 700 l 1,20,-1
400 600 m 1,24,-1
 500 600 l 1,25,-1
 500 500 l 1,26,-1
 400 500 l 1,27,-1
 400 600 l 1,24,-1
EndSplineSet
EndChar

StartChar: Adieresis
Encoding: 196 196 5
Width: 800
GlyphClass: 1
Flags: W
LayerCount: 2
Fore
SplineSet
200 700 m 1,0,-1
 300 700 l 1,1,-1
 300 600 l 1,2,-1
 200 600 l 1,3,-1
 200 700 l 1,0,-1
100 300 m 1,4,-1
 200 300 l 1,5,-1
 200 400 l 1,6,-1
 600 400 l 1,7,-1
 600 300 l 1,8,-1
 700 300 l 1,9,-1
 700 0 l 1,10,-1
 500 0 l 1,11,-1
 500 100 l 1,12,-1
 300 100 l 1,13,-1
 300 0 l 1,14,-1
 100 0 l 1,15,-1
 100 300 l 1,4,-1
500 200 m 1,16,-1
 500 300 l 1,17,-1
 300 300 l 1,18,-1
 300 200 l 1,19,-1
 500 200 l 1,16,-1
500 700 m 1,20,-1
 600 700 l 1,21,-1
 600 600 l 1,22,-1
 500 600 l 1,23,-1
 500 700 l 1,20,-1
EndSplineSet
EndChar

StartChar: Agrave
Encoding: 192 192 6
Width: 800
GlyphClass: 1
Flags: W
LayerCount: 2
Fore
SplineSet
300 700 m 1,0,-1
 400 700 l 1,1,-1
 400 600 l 1,2,-1
 300 600 l 1,3,-1
 300 700 l 1,0,-1
100 300 m 1,4,-1
 200 300 l 1,5,-1
 200 400 l 1,6,-1
 600 400 l 1,7,-1
 600 300 l 1,8,-1
 700 300 l 1,9,-1
 700 0 l 1,10,-1
 500 0 l 1,11,-1
 500 100 l 1,12,-1
 300 100 l 1,13,-1
 300 0 l 1,14,-1
 100 0 l 1,15,-1
 100 300 l 1,4,-1
500 200 m 1,16,-1
 500 300 l 1,17,-1
 300 300 l 1,18,-1
 300 200 l 1,19,-1
 500 200 l 1,16,-1
400 600 m 1,20,-1
 500 600 l 1,21,-1
 500 500 l 1,22,-1
 400 500 l 1,23,-1
 400 600 l 1,20,-1
EndSplineSet
EndChar

StartChar: Aring
Encoding: 197 197 7
Width: 800
GlyphClass: 1
Flags: W
LayerCount: 2
Fore
SplineSet
500 700 m 1,0,-1
 500 500 l 1,1,-1
 300 500 l 1,2,-1
 300 700 l 1,3,-1
 500 700 l 1,0,-1
100 300 m 1,4,-1
 200 300 l 1,5,-1
 200 400 l 1,6,-1
 600 400 l 1,7,-1
 600 300 l 1,8,-1
 700 300 l 1,9,-1
 700 0 l 1,10,-1
 500 0 l 1,11,-1
 500 100 l 1,12,-1
 300 100 l 1,13,-1
 300 0 l 1,14,-1
 100 0 l 1,15,-1
 100 300 l 1,4,-1
500 200 m 1,16,-1
 500 300 l 1,17,-1
 300 300 l 1,18,-1
 300 200 l 1,19,-1
 500 200 l 1,16,-1
EndSplineSet
EndChar

StartChar: Atilde
Encoding: 195 195 8
Width: 800
GlyphClass: 1
Flags: W
LayerCount: 2
Fore
SplineSet
200 700 m 1,0,-1
 600 700 l 1,1,-1
 600 600 l 1,2,-1
 200 600 l 1,3,-1
 200 700 l 1,0,-1
100 300 m 1,4,-1
 200 300 l 1,5,-1
 200 400 l 1,6,-1
 600 400 l 1,7,-1
 600 300 l 1,8,-1
 700 300 l 1,9,-1
 700 0 l 1,10,-1
 500 0 l 1,11,-1
 500 100 l 1,12,-1
 300 100 l 1,13,-1
 300 0 l 1,14,-1
 100 0 l 1,15,-1
 100 300 l 1,4,-1
500 200 m 1,16,-1
 500 300 l 1,17,-1
 300 300 l 1,18,-1
 300 200 l 1,19,-1
 500 200 l 1,16,-1
EndSplineSet
EndChar

StartChar: AE
Encoding: 198 198 9
Width: 800
GlyphClass: 1
Flags: W
LayerCount: 2
Fore
SplineSet
0 600 m 1,0,-1
 100 600 l 1,1,-1
 100 700 l 1,2,-1
 700 700 l 1,3,-1
 700 600 l 1,4,-1
 500 600 l 1,5,-1
 500 400 l 1,6,-1
 600 400 l 1,7,-1
 600 300 l 1,8,-1
 500 300 l 1,9,-1
 500 100 l 1,10,-1
 700 100 l 1,11,-1
 700 0 l 1,12,-1
 300 0 l 1,13,-1
 300 300 l 1,14,-1
 200 300 l 1,15,-1
 200 0 l 1,16,-1
 0 0 l 1,17,-1
 0 600 l 1,0,-1
300 400 m 1,18,-1
 300 600 l 1,19,-1
 200 600 l 1,20,-1
 200 400 l 1,21,-1
 300 400 l 1,18,-1
EndSplineSet
EndChar

StartChar: B
Encoding: 66 66 10
AltUni2: 00e042.ffffffff.0 00e042.ffffffff.0
Width: 800
GlyphClass: 1
Flags: W
LayerCount: 2
Fore
SplineSet
100 700 m 1,0,-1
 600 700 l 1,1,-1
 600 600 l 1,2,-1
 700 600 l 1,3,-1
 700 400 l 1,4,-1
 600 400 l 1,5,-1
 600 300 l 1,6,-1
 700 300 l 1,7,-1
 700 100 l 1,8,-1
 600 100 l 1,9,-1
 600 0 l 1,10,-1
 100 0 l 1,11,-1
 100 700 l 1,0,-1
500 100 m 1,12,-1
 500 300 l 1,13,-1
 300 300 l 1,14,-1
 300 100 l 1,15,-1
 500 100 l 1,12,-1
500 400 m 1,16,-1
 500 600 l 1,17,-1
 300 600 l 1,18,-1
 300 400 l 1,19,-1
 500 400 l 1,16,-1
EndSplineSet
EndChar

StartChar: C
Encoding: 67 67 11
AltUni2: 00e043.ffffffff.0 00e043.ffffffff.0
Width: 800
GlyphClass: 1
Flags: W
LayerCount: 2
Fore
SplineSet
200 600 m 1,0,-1
 200 700 l 1,1,-1
 600 700 l 1,2,-1
 600 600 l 1,3,-1
 700 600 l 1,4,-1
 700 500 l 1,5,-1
 500 500 l 1,6,-1
 500 600 l 1,7,-1
 300 600 l 1,8,-1
 300 100 l 1,9,-1
 500 100 l 1,10,-1
 500 200 l 1,11,-1
 700 200 l 1,12,-1
 700 100 l 1,13,-1
 600 100 l 1,14,-1
 600 0 l 1,15,-1
 200 0 l 1,16,-1
 200 100 l 1,17,-1
 100 100 l 1,18,-1
 100 600 l 1,19,-1
 200 600 l 1,0,-1
EndSplineSet
EndChar

StartChar: Ccedilla
Encoding: 199 199 12
Width: 800
GlyphClass: 1
Flags: W
LayerCount: 2
Fore
SplineSet
100 600 m 1,0,-1
 200 600 l 1,1,-1
 200 700 l 1,2,-1
 600 700 l 1,3,-1
 600 600 l 1,4,-1
 700 600 l 1,5,-1
 700 500 l 1,6,-1
 500 500 l 1,7,-1
 500 600 l 1,8,-1
 300 600 l 1,9,-1
 300 100 l 1,10,-1
 500 100 l 1,11,-1
 500 200 l 1,12,-1
 700 200 l 1,13,-1
 700 100 l 1,14,-1
 600 100 l 1,15,-1
 600 0 l 1,16,-1
 500 0 l 1,17,-1
 500 -100 l 1,18,-1
 400 -100 l 1,19,-1
 400 0 l 1,20,-1
 200 0 l 1,21,-1
 200 100 l 1,22,-1
 100 100 l 1,23,-1
 100 600 l 1,0,-1
EndSplineSet
EndChar

StartChar: D
Encoding: 68 68 13
AltUni2: 00e044.ffffffff.0 00e044.ffffffff.0
Width: 800
GlyphClass: 1
Flags: W
LayerCount: 2
Fore
SplineSet
600 700 m 1,0,-1
 600 600 l 1,1,-1
 700 600 l 1,2,-1
 700 100 l 1,3,-1
 600 100 l 1,4,-1
 600 0 l 1,5,-1
 100 0 l 1,6,-1
 100 700 l 1,7,-1
 600 700 l 1,0,-1
500 100 m 1,8,-1
 500 600 l 1,9,-1
 300 600 l 1,10,-1
 300 100 l 1,11,-1
 500 100 l 1,8,-1
EndSplineSet
EndChar

StartChar: Eth
Encoding: 208 208 14
Width: 800
GlyphClass: 1
Flags: W
LayerCount: 2
Fore
SplineSet
600 700 m 1,0,-1
 600 600 l 1,1,-1
 700 600 l 1,2,-1
 700 100 l 1,3,-1
 600 100 l 1,4,-1
 600 0 l 1,5,-1
 100 0 l 1,6,-1
 100 300 l 1,7,-1
 0 300 l 1,8,-1
 0 400 l 1,9,-1
 100 400 l 1,10,-1
 100 700 l 1,11,-1
 600 700 l 1,0,-1
500 100 m 1,12,-1
 500 600 l 1,13,-1
 300 600 l 1,14,-1
 300 400 l 1,15,-1
 400 400 l 1,16,-1
 400 300 l 1,17,-1
 300 300 l 1,18,-1
 300 100 l 1,19,-1
 500 100 l 1,12,-1
EndSplineSet
EndChar

StartChar: E
Encoding: 69 69 15
AltUni2: 00e045.ffffffff.0 00e045.ffffffff.0
Width: 800
GlyphClass: 1
Flags: W
LayerCount: 2
Fore
SplineSet
100 700 m 1,0,-1
 700 700 l 1,1,-1
 700 600 l 1,2,-1
 300 600 l 1,3,-1
 300 400 l 1,4,-1
 500 400 l 1,5,-1
 500 300 l 1,6,-1
 300 300 l 1,7,-1
 300 100 l 1,8,-1
 700 100 l 1,9,-1
 700 0 l 1,10,-1
 100 0 l 1,11,-1
 100 700 l 1,0,-1
EndSplineSet
EndChar

StartChar: Eacute
Encoding: 201 201 16
Width: 800
GlyphClass: 1
Flags: W
LayerCount: 2
Fore
SplineSet
300 600 m 1,0,-1
 400 600 l 1,1,-1
 400 500 l 1,2,-1
 700 500 l 1,3,-1
 700 400 l 1,4,-1
 300 400 l 1,5,-1
 300 300 l 1,6,-1
 500 300 l 1,7,-1
 500 200 l 1,8,-1
 300 200 l 1,9,-1
 300 100 l 1,10,-1
 700 100 l 1,11,-1
 700 0 l 1,12,-1
 100 0 l 1,13,-1
 100 500 l 1,14,-1
 300 500 l 1,15,-1
 300 600 l 1,0,-1
400 700 m 1,16,-1
 500 700 l 1,17,-1
 500 600 l 1,18,-1
 400 600 l 1,19,-1
 400 700 l 1,16,-1
EndSplineSet
EndChar

StartChar: Ecircumflex
Encoding: 202 202 17
Width: 800
GlyphClass: 1
Flags: W
LayerCount: 2
Fore
SplineSet
200 600 m 1,0,-1
 300 600 l 1,1,-1
 300 500 l 1,2,-1
 400 500 l 1,3,-1
 400 600 l 1,4,-1
 500 600 l 1,5,-1
 500 500 l 1,6,-1
 700 500 l 1,7,-1
 700 400 l 1,8,-1
 300 400 l 1,9,-1
 300 300 l 1,10,-1
 500 300 l 1,11,-1
 500 200 l 1,12,-1
 300 200 l 1,13,-1
 300 100 l 1,14,-1
 700 100 l 1,15,-1
 700 0 l 1,16,-1
 100 0 l 1,17,-1
 100 500 l 1,18,-1
 200 500 l 1,19,-1
 200 600 l 1,0,-1
300 700 m 1,20,-1
 400 700 l 1,21,-1
 400 600 l 1,22,-1
 300 600 l 1,23,-1
 300 700 l 1,20,-1
EndSplineSet
EndChar

StartChar: Edieresis
Encoding: 203 203 18
Width: 800
GlyphClass: 1
Flags: W
LayerCount: 2
Fore
SplineSet
200 700 m 1,0,-1
 300 700 l 1,1,-1
 300 600 l 1,2,-1
 200 600 l 1,3,-1
 200 700 l 1,0,-1
100 500 m 1,4,-1
 700 500 l 1,5,-1
 700 400 l 1,6,-1
 300 400 l 1,7,-1
 300 300 l 1,8,-1
 500 300 l 1,9,-1
 500 200 l 1,10,-1
 300 200 l 1,11,-1
 300 100 l 1,12,-1
 700 100 l 1,13,-1
 700 0 l 1,14,-1
 100 0 l 1,15,-1
 100 500 l 1,4,-1
500 700 m 1,16,-1
 600 700 l 1,17,-1
 600 600 l 1,18,-1
 500 600 l 1,19,-1
 500 700 l 1,16,-1
EndSplineSet
EndChar

StartChar: Egrave
Encoding: 200 200 19
Width: 800
GlyphClass: 1
Flags: W
LayerCount: 2
Fore
SplineSet
300 700 m 1,0,-1
 400 700 l 1,1,-1
 400 600 l 1,2,-1
 300 600 l 1,3,-1
 300 700 l 1,0,-1
100 500 m 1,4,-1
 400 500 l 1,5,-1
 400 600 l 1,6,-1
 500 600 l 1,7,-1
 500 500 l 1,8,-1
 700 500 l 1,9,-1
 700 400 l 1,10,-1
 300 400 l 1,11,-1
 300 300 l 1,12,-1
 500 300 l 1,13,-1
 500 200 l 1,14,-1
 300 200 l 1,15,-1
 300 100 l 1,16,-1
 700 100 l 1,17,-1
 700 0 l 1,18,-1
 100 0 l 1,19,-1
 100 500 l 1,4,-1
EndSplineSet
EndChar

StartChar: F
Encoding: 70 70 20
AltUni2: 00e046.ffffffff.0 00e046.ffffffff.0
Width: 800
GlyphClass: 1
Flags: W
LayerCount: 2
Fore
SplineSet
100 700 m 1,0,-1
 700 700 l 1,1,-1
 700 600 l 1,2,-1
 300 600 l 1,3,-1
 300 400 l 1,4,-1
 500 400 l 1,5,-1
 500 300 l 1,6,-1
 300 300 l 1,7,-1
 300 0 l 1,8,-1
 100 0 l 1,9,-1
 100 700 l 1,0,-1
EndSplineSet
EndChar

StartChar: G
Encoding: 71 71 21
AltUni2: 00e047.ffffffff.0 00e047.ffffffff.0
Width: 800
GlyphClass: 1
Flags: W
LayerCount: 2
Fore
SplineSet
200 600 m 1,0,-1
 200 700 l 1,1,-1
 600 700 l 1,2,-1
 600 600 l 1,3,-1
 700 600 l 1,4,-1
 700 500 l 1,5,-1
 500 500 l 1,6,-1
 500 600 l 1,7,-1
 300 600 l 1,8,-1
 300 100 l 1,9,-1
 500 100 l 1,10,-1
 500 300 l 1,11,-1
 400 300 l 1,12,-1
 400 400 l 1,13,-1
 700 400 l 1,14,-1
 700 100 l 1,15,-1
 600 100 l 1,16,-1
 600 0 l 1,17,-1
 200 0 l 1,18,-1
 200 100 l 1,19,-1
 100 100 l 1,20,-1
 100 600 l 1,21,-1
 200 600 l 1,0,-1
EndSplineSet
EndChar

StartChar: H
Encoding: 72 72 22
AltUni2: 00e048.ffffffff.0 00e048.ffffffff.0
Width: 800
GlyphClass: 1
Flags: W
LayerCount: 2
Fore
SplineSet
300 700 m 1,0,-1
 300 400 l 1,1,-1
 500 400 l 1,2,-1
 500 700 l 1,3,-1
 700 700 l 1,4,-1
 700 0 l 1,5,-1
 500 0 l 1,6,-1
 500 300 l 1,7,-1
 300 300 l 1,8,-1
 300 0 l 1,9,-1
 100 0 l 1,10,-1
 100 700 l 1,11,-1
 300 700 l 1,0,-1
EndSplineSet
EndChar

StartChar: I
Encoding: 73 73 23
AltUni2: 00e049.ffffffff.0 00e049.ffffffff.0
Width: 800
GlyphClass: 1
Flags: W
LayerCount: 2
Fore
SplineSet
200 600 m 1,0,-1
 200 700 l 1,1,-1
 600 700 l 1,2,-1
 600 600 l 1,3,-1
 500 600 l 1,4,-1
 500 100 l 1,5,-1
 600 100 l 1,6,-1
 600 0 l 1,7,-1
 200 0 l 1,8,-1
 200 100 l 1,9,-1
 300 100 l 1,10,-1
 300 600 l 1,11,-1
 200 600 l 1,0,-1
EndSplineSet
EndChar

StartChar: Iacute
Encoding: 205 205 24
Width: 800
GlyphClass: 1
Flags: W
LayerCount: 2
Fore
SplineSet
300 600 m 1,0,-1
 400 600 l 1,1,-1
 400 500 l 1,2,-1
 600 500 l 1,3,-1
 600 400 l 1,4,-1
 500 400 l 1,5,-1
 500 100 l 1,6,-1
 600 100 l 1,7,-1
 600 0 l 1,8,-1
 200 0 l 1,9,-1
 200 100 l 1,10,-1
 300 100 l 1,11,-1
 300 400 l 1,12,-1
 200 400 l 1,13,-1
 200 500 l 1,14,-1
 300 500 l 1,15,-1
 300 600 l 1,0,-1
400 700 m 1,16,-1
 500 700 l 1,17,-1
 500 600 l 1,18,-1
 400 600 l 1,19,-1
 400 700 l 1,16,-1
EndSplineSet
EndChar

StartChar: Icircumflex
Encoding: 206 206 25
Width: 800
GlyphClass: 1
Flags: W
LayerCount: 2
Fore
SplineSet
300 600 m 1,0,-1
 300 500 l 1,1,-1
 400 500 l 1,2,-1
 400 600 l 1,3,-1
 500 600 l 1,4,-1
 500 500 l 1,5,-1
 600 500 l 1,6,-1
 600 400 l 1,7,-1
 500 400 l 1,8,-1
 500 100 l 1,9,-1
 600 100 l 1,10,-1
 600 0 l 1,11,-1
 200 0 l 1,12,-1
 200 100 l 1,13,-1
 300 100 l 1,14,-1
 300 400 l 1,15,-1
 200 400 l 1,16,-1
 200 600 l 1,17,-1
 300 600 l 1,0,-1
300 700 m 1,18,-1
 400 700 l 1,19,-1
 400 600 l 1,20,-1
 300 600 l 1,21,-1
 300 700 l 1,18,-1
EndSplineSet
EndChar

StartChar: Idieresis
Encoding: 207 207 26
Width: 800
GlyphClass: 1
Flags: W
LayerCount: 2
Fore
SplineSet
200 700 m 1,0,-1
 300 700 l 1,1,-1
 300 600 l 1,2,-1
 200 600 l 1,3,-1
 200 700 l 1,0,-1
200 100 m 1,4,-1
 300 100 l 1,5,-1
 300 400 l 1,6,-1
 200 400 l 1,7,-1
 200 500 l 1,8,-1
 600 500 l 1,9,-1
 600 400 l 1,10,-1
 500 400 l 1,11,-1
 500 100 l 1,12,-1
 600 100 l 1,13,-1
 600 0 l 1,14,-1
 200 0 l 1,15,-1
 200 100 l 1,4,-1
500 700 m 1,16,-1
 600 700 l 1,17,-1
 600 600 l 1,18,-1
 500 600 l 1,19,-1
 500 700 l 1,16,-1
EndSplineSet
EndChar

StartChar: Igrave
Encoding: 204 204 27
Width: 800
GlyphClass: 1
Flags: W
LayerCount: 2
Fore
SplineSet
300 700 m 1,0,-1
 400 700 l 1,1,-1
 400 600 l 1,2,-1
 300 600 l 1,3,-1
 300 700 l 1,0,-1
200 100 m 1,4,-1
 300 100 l 1,5,-1
 300 400 l 1,6,-1
 200 400 l 1,7,-1
 200 500 l 1,8,-1
 400 500 l 1,9,-1
 400 600 l 1,10,-1
 500 600 l 1,11,-1
 500 500 l 1,12,-1
 600 500 l 1,13,-1
 600 400 l 1,14,-1
 500 400 l 1,15,-1
 500 100 l 1,16,-1
 600 100 l 1,17,-1
 600 0 l 1,18,-1
 200 0 l 1,19,-1
 200 100 l 1,4,-1
EndSplineSet
EndChar

StartChar: J
Encoding: 74 74 28
AltUni2: 00e04a.ffffffff.0 00e04a.ffffffff.0
Width: 800
GlyphClass: 1
Flags: W
LayerCount: 2
Fore
SplineSet
400 600 m 1,0,-1
 400 700 l 1,1,-1
 700 700 l 1,2,-1
 700 100 l 1,3,-1
 600 100 l 1,4,-1
 600 0 l 1,5,-1
 200 0 l 1,6,-1
 200 100 l 1,7,-1
 100 100 l 1,8,-1
 100 200 l 1,9,-1
 300 200 l 1,10,-1
 300 100 l 1,11,-1
 500 100 l 1,12,-1
 500 600 l 1,13,-1
 400 600 l 1,0,-1
EndSplineSet
EndChar

StartChar: K
Encoding: 75 75 29
AltUni2: 00e04b.ffffffff.0 00e04b.ffffffff.0
Width: 800
GlyphClass: 1
Flags: W
LayerCount: 2
Fore
SplineSet
100 700 m 1,0,-1
 300 700 l 1,1,-1
 300 400 l 1,2,-1
 400 400 l 1,3,-1
 400 500 l 1,4,-1
 500 500 l 1,5,-1
 500 700 l 1,6,-1
 700 700 l 1,7,-1
 700 500 l 1,8,-1
 600 500 l 1,9,-1
 600 400 l 1,10,-1
 500 400 l 1,11,-1
 500 300 l 1,12,-1
 600 300 l 1,13,-1
 600 200 l 1,14,-1
 700 200 l 1,15,-1
 700 0 l 1,16,-1
 500 0 l 1,17,-1
 500 200 l 1,18,-1
 400 200 l 1,19,-1
 400 300 l 1,20,-1
 300 300 l 1,21,-1
 300 0 l 1,22,-1
 100 0 l 1,23,-1
 100 700 l 1,0,-1
EndSplineSet
EndChar

StartChar: L
Encoding: 76 76 30
AltUni2: 00e04c.ffffffff.0 00e04c.ffffffff.0
Width: 800
GlyphClass: 1
Flags: W
LayerCount: 2
Fore
SplineSet
300 700 m 1,0,-1
 300 100 l 1,1,-1
 700 100 l 1,2,-1
 700 0 l 1,3,-1
 100 0 l 1,4,-1
 100 700 l 1,5,-1
 300 700 l 1,0,-1
EndSplineSet
EndChar

StartChar: Lslash
Encoding: 321 321 31
Width: 800
GlyphClass: 1
Flags: W
LayerCount: 2
Fore
SplineSet
300 700 m 1,0,-1
 300 500 l 1,1,-1
 500 500 l 1,2,-1
 500 400 l 1,3,-1
 300 400 l 1,4,-1
 300 100 l 1,5,-1
 700 100 l 1,6,-1
 700 0 l 1,7,-1
 100 0 l 1,8,-1
 100 300 l 1,9,-1
 0 300 l 1,10,-1
 0 400 l 1,11,-1
 100 400 l 1,12,-1
 100 700 l 1,13,-1
 300 700 l 1,0,-1
EndSplineSet
EndChar

StartChar: M
Encoding: 77 77 32
AltUni2: 00e04d.ffffffff.0 00e04d.ffffffff.0
Width: 800
GlyphClass: 1
Flags: W
LayerCount: 2
Fore
SplineSet
0 700 m 1,0,-1
 200 700 l 1,1,-1
 200 600 l 1,2,-1
 300 600 l 1,3,-1
 300 500 l 1,4,-1
 400 500 l 1,5,-1
 400 600 l 1,6,-1
 500 600 l 1,7,-1
 500 700 l 1,8,-1
 700 700 l 1,9,-1
 700 0 l 1,10,-1
 500 0 l 1,11,-1
 500 400 l 1,12,-1
 400 400 l 1,13,-1
 400 300 l 1,14,-1
 300 300 l 1,15,-1
 300 400 l 1,16,-1
 200 400 l 1,17,-1
 200 0 l 1,18,-1
 0 0 l 1,19,-1
 0 700 l 1,0,-1
EndSplineSet
EndChar

StartChar: N
Encoding: 78 78 33
AltUni2: 00e04e.ffffffff.0 00e04e.ffffffff.0
Width: 800
GlyphClass: 1
Flags: W
LayerCount: 2
Fore
SplineSet
100 700 m 1,0,-1
 300 700 l 1,1,-1
 300 600 l 1,2,-1
 400 600 l 1,3,-1
 400 500 l 1,4,-1
 500 500 l 1,5,-1
 500 700 l 1,6,-1
 700 700 l 1,7,-1
 700 0 l 1,8,-1
 500 0 l 1,9,-1
 500 300 l 1,10,-1
 400 300 l 1,11,-1
 400 400 l 1,12,-1
 300 400 l 1,13,-1
 300 0 l 1,14,-1
 100 0 l 1,15,-1
 100 700 l 1,0,-1
EndSplineSet
EndChar

StartChar: Ntilde
Encoding: 209 209 34
Width: 800
GlyphClass: 1
Flags: W
LayerCount: 2
Fore
SplineSet
200 700 m 1,0,-1
 600 700 l 1,1,-1
 600 600 l 1,2,-1
 200 600 l 1,3,-1
 200 700 l 1,0,-1
100 500 m 1,4,-1
 300 500 l 1,5,-1
 300 400 l 1,6,-1
 400 400 l 1,7,-1
 400 300 l 1,8,-1
 500 300 l 1,9,-1
 500 500 l 1,10,-1
 700 500 l 1,11,-1
 700 0 l 1,12,-1
 500 0 l 1,13,-1
 500 100 l 1,14,-1
 400 100 l 1,15,-1
 400 200 l 1,16,-1
 300 200 l 1,17,-1
 300 0 l 1,18,-1
 100 0 l 1,19,-1
 100 500 l 1,4,-1
EndSplineSet
EndChar

StartChar: O
Encoding: 79 79 35
AltUni2: 00e04f.ffffffff.0 00e04f.ffffffff.0
Width: 800
GlyphClass: 1
Flags: W
LayerCount: 2
Fore
SplineSet
200 600 m 1,0,-1
 200 700 l 1,1,-1
 600 700 l 1,2,-1
 600 600 l 1,3,-1
 700 600 l 1,4,-1
 700 100 l 1,5,-1
 600 100 l 1,6,-1
 600 0 l 1,7,-1
 200 0 l 1,8,-1
 200 100 l 1,9,-1
 100 100 l 1,10,-1
 100 600 l 1,11,-1
 200 600 l 1,0,-1
500 100 m 1,12,-1
 500 600 l 1,13,-1
 300 600 l 1,14,-1
 300 100 l 1,15,-1
 500 100 l 1,12,-1
EndSplineSet
EndChar

StartChar: Oacute
Encoding: 211 211 36
Width: 800
GlyphClass: 1
Flags: W
LayerCount: 2
Fore
SplineSet
300 600 m 1,0,-1
 400 600 l 1,1,-1
 400 500 l 1,2,-1
 600 500 l 1,3,-1
 600 400 l 1,4,-1
 700 400 l 1,5,-1
 700 100 l 1,6,-1
 600 100 l 1,7,-1
 600 0 l 1,8,-1
 200 0 l 1,9,-1
 200 100 l 1,10,-1
 100 100 l 1,11,-1
 100 400 l 1,12,-1
 200 400 l 1,13,-1
 200 500 l 1,14,-1
 300 500 l 1,15,-1
 300 600 l 1,0,-1
500 100 m 1,16,-1
 500 400 l 1,17,-1
 300 400 l 1,18,-1
 300 100 l 1,19,-1
 500 100 l 1,16,-1
400 700 m 1,20,-1
 500 700 l 1,21,-1
 500 600 l 1,22,-1
 400 600 l 1,23,-1
 400 700 l 1,20,-1
EndSplineSet
EndChar

StartChar: Ocircumflex
Encoding: 212 212 37
Width: 800
GlyphClass: 1
Flags: W
LayerCount: 2
Fore
SplineSet
300 600 m 1,0,-1
 300 500 l 1,1,-1
 400 500 l 1,2,-1
 400 600 l 1,3,-1
 500 600 l 1,4,-1
 500 500 l 1,5,-1
 600 500 l 1,6,-1
 600 400 l 1,7,-1
 700 400 l 1,8,-1
 700 100 l 1,9,-1
 600 100 l 1,10,-1
 600 0 l 1,11,-1
 200 0 l 1,12,-1
 200 100 l 1,13,-1
 100 100 l 1,14,-1
 100 400 l 1,15,-1
 200 400 l 1,16,-1
 200 600 l 1,17,-1
 300 600 l 1,0,-1
500 100 m 1,18,-1
 500 400 l 1,19,-1
 300 400 l 1,20,-1
 300 100 l 1,21,-1
 500 100 l 1,18,-1
300 700 m 1,22,-1
 400 700 l 1,23,-1
 400 600 l 1,24,-1
 300 600 l 1,25,-1
 300 700 l 1,22,-1
EndSplineSet
EndChar

StartChar: Odieresis
Encoding: 214 214 38
Width: 800
GlyphClass: 1
Flags: W
LayerCount: 2
Fore
SplineSet
200 700 m 1,0,-1
 300 700 l 1,1,-1
 300 600 l 1,2,-1
 200 600 l 1,3,-1
 200 700 l 1,0,-1
100 400 m 1,4,-1
 200 400 l 1,5,-1
 200 500 l 1,6,-1
 600 500 l 1,7,-1
 600 400 l 1,8,-1
 700 400 l 1,9,-1
 700 100 l 1,10,-1
 600 100 l 1,11,-1
 600 0 l 1,12,-1
 200 0 l 1,13,-1
 200 100 l 1,14,-1
 100 100 l 1,15,-1
 100 400 l 1,4,-1
500 100 m 1,16,-1
 500 400 l 1,17,-1
 300 400 l 1,18,-1
 300 100 l 1,19,-1
 500 100 l 1,16,-1
500 700 m 1,20,-1
 600 700 l 1,21,-1
 600 600 l 1,22,-1
 500 600 l 1,23,-1
 500 700 l 1,20,-1
EndSplineSet
EndChar

StartChar: Ograve
Encoding: 210 210 39
Width: 800
GlyphClass: 1
Flags: W
LayerCount: 2
Fore
SplineSet
300 700 m 1,0,-1
 400 700 l 1,1,-1
 400 600 l 1,2,-1
 300 600 l 1,3,-1
 300 700 l 1,0,-1
100 400 m 1,4,-1
 200 400 l 1,5,-1
 200 500 l 1,6,-1
 400 500 l 1,7,-1
 400 600 l 1,8,-1
 500 600 l 1,9,-1
 500 500 l 1,10,-1
 600 500 l 1,11,-1
 600 400 l 1,12,-1
 700 400 l 1,13,-1
 700 100 l 1,14,-1
 600 100 l 1,15,-1
 600 0 l 1,16,-1
 200 0 l 1,17,-1
 200 100 l 1,18,-1
 100 100 l 1,19,-1
 100 400 l 1,4,-1
500 100 m 1,20,-1
 500 400 l 1,21,-1
 300 400 l 1,22,-1
 300 100 l 1,23,-1
 500 100 l 1,20,-1
EndSplineSet
EndChar

StartChar: Oslash
Encoding: 216 216 40
Width: 800
GlyphClass: 1
Flags: W
LayerCount: 2
Fore
SplineSet
200 600 m 1,0,-1
 200 700 l 1,1,-1
 600 700 l 1,2,-1
 600 600 l 1,3,-1
 700 600 l 1,4,-1
 700 100 l 1,5,-1
 600 100 l 1,6,-1
 600 0 l 1,7,-1
 200 0 l 1,8,-1
 200 100 l 1,9,-1
 100 100 l 1,10,-1
 100 600 l 1,11,-1
 200 600 l 1,0,-1
0 100 m 1,12,-1
 100 100 l 1,13,-1
 100 0 l 1,14,-1
 0 0 l 1,15,-1
 0 100 l 1,12,-1
500 100 m 1,16,-1
 500 300 l 1,17,-1
 400 300 l 1,18,-1
 400 200 l 1,19,-1
 300 200 l 1,20,-1
 300 100 l 1,21,-1
 500 100 l 1,16,-1
400 400 m 1,22,-1
 400 500 l 1,23,-1
 500 500 l 1,24,-1
 500 600 l 1,25,-1
 300 600 l 1,26,-1
 300 400 l 1,27,-1
 400 400 l 1,22,-1
700 700 m 1,28,-1
 800 700 l 1,29,-1
 800 600 l 1,30,-1
 700 600 l 1,31,-1
 700 700 l 1,28,-1
EndSplineSet
EndChar

StartChar: Otilde
Encoding: 213 213 41
Width: 800
GlyphClass: 1
Flags: W
LayerCount: 2
Fore
SplineSet
200 600 m 1,0,-1
 200 700 l 1,1,-1
 600 700 l 1,2,-1
 600 600 l 1,3,-1
 700 600 l 1,4,-1
 700 100 l 1,5,-1
 600 100 l 1,6,-1
 600 0 l 1,7,-1
 200 0 l 1,8,-1
 200 100 l 1,9,-1
 100 100 l 1,10,-1
 100 600 l 1,11,-1
 200 600 l 1,0,-1
500 100 m 1,12,-1
 500 600 l 1,13,-1
 300 600 l 1,14,-1
 300 100 l 1,15,-1
 500 100 l 1,12,-1
EndSplineSet
EndChar

StartChar: OE
Encoding: 338 338 42
Width: 800
GlyphClass: 1
Flags: W
LayerCount: 2
Fore
SplineSet
500 400 m 1,0,-1
 600 400 l 1,1,-1
 600 300 l 1,2,-1
 500 300 l 1,3,-1
 500 100 l 1,4,-1
 700 100 l 1,5,-1
 700 0 l 1,6,-1
 100 0 l 1,7,-1
 100 100 l 1,8,-1
 0 100 l 1,9,-1
 0 600 l 1,10,-1
 100 600 l 1,11,-1
 100 700 l 1,12,-1
 700 700 l 1,13,-1
 700 600 l 1,14,-1
 500 600 l 1,15,-1
 500 400 l 1,0,-1
300 100 m 1,16,-1
 300 600 l 1,17,-1
 200 600 l 1,18,-1
 200 100 l 1,19,-1
 300 100 l 1,16,-1
EndSplineSet
EndChar

StartChar: P
Encoding: 80 80 43
AltUni2: 00e050.ffffffff.0 00e050.ffffffff.0
Width: 800
GlyphClass: 1
Flags: W
LayerCount: 2
Fore
SplineSet
100 700 m 1,0,-1
 600 700 l 1,1,-1
 600 600 l 1,2,-1
 700 600 l 1,3,-1
 700 400 l 1,4,-1
 600 400 l 1,5,-1
 600 300 l 1,6,-1
 300 300 l 1,7,-1
 300 0 l 1,8,-1
 100 0 l 1,9,-1
 100 700 l 1,0,-1
500 400 m 1,10,-1
 500 600 l 1,11,-1
 300 600 l 1,12,-1
 300 400 l 1,13,-1
 500 400 l 1,10,-1
EndSplineSet
EndChar

StartChar: Thorn
Encoding: 222 222 44
Width: 800
GlyphClass: 1
Flags: W
LayerCount: 2
Fore
SplineSet
400 700 m 1,0,-1
 400 600 l 1,1,-1
 600 600 l 1,2,-1
 600 500 l 1,3,-1
 700 500 l 1,4,-1
 700 200 l 1,5,-1
 600 200 l 1,6,-1
 600 100 l 1,7,-1
 400 100 l 1,8,-1
 400 0 l 1,9,-1
 200 0 l 1,10,-1
 200 700 l 1,11,-1
 400 700 l 1,0,-1
500 200 m 1,12,-1
 500 500 l 1,13,-1
 400 500 l 1,14,-1
 400 200 l 1,15,-1
 500 200 l 1,12,-1
EndSplineSet
EndChar

StartChar: Q
Encoding: 81 81 45
AltUni2: 00e051.ffffffff.0 00e051.ffffffff.0
Width: 800
GlyphClass: 1
Flags: W
LayerCount: 2
Fore
SplineSet
200 600 m 1,0,-1
 200 700 l 1,1,-1
 600 700 l 1,2,-1
 600 600 l 1,3,-1
 700 600 l 1,4,-1
 700 100 l 1,5,-1
 600 100 l 1,6,-1
 600 0 l 1,7,-1
 700 0 l 1,8,-1
 700 -100 l 1,9,-1
 500 -100 l 1,10,-1
 500 0 l 1,11,-1
 200 0 l 1,12,-1
 200 100 l 1,13,-1
 100 100 l 1,14,-1
 100 600 l 1,15,-1
 200 600 l 1,0,-1
400 100 m 1,16,-1
 400 200 l 1,17,-1
 500 200 l 1,18,-1
 500 600 l 1,19,-1
 300 600 l 1,20,-1
 300 100 l 1,21,-1
 400 100 l 1,16,-1
EndSplineSet
EndChar

StartChar: R
Encoding: 82 82 46
AltUni2: 00e052.ffffffff.0 00e052.ffffffff.0
Width: 800
GlyphClass: 1
Flags: W
LayerCount: 2
Fore
SplineSet
100 700 m 1,0,-1
 600 700 l 1,1,-1
 600 600 l 1,2,-1
 700 600 l 1,3,-1
 700 400 l 1,4,-1
 600 400 l 1,5,-1
 600 300 l 1,6,-1
 700 300 l 1,7,-1
 700 0 l 1,8,-1
 500 0 l 1,9,-1
 500 300 l 1,10,-1
 300 300 l 1,11,-1
 300 0 l 1,12,-1
 100 0 l 1,13,-1
 100 700 l 1,0,-1
500 400 m 1,14,-1
 500 600 l 1,15,-1
 300 600 l 1,16,-1
 300 400 l 1,17,-1
 500 400 l 1,14,-1
EndSplineSet
EndChar

StartChar: S
Encoding: 83 83 47
AltUni2: 00e053.ffffffff.0 00e053.ffffffff.0
Width: 800
GlyphClass: 1
Flags: W
LayerCount: 2
Fore
SplineSet
200 700 m 1,0,-1
 600 700 l 1,1,-1
 600 600 l 1,2,-1
 700 600 l 1,3,-1
 700 500 l 1,4,-1
 500 500 l 1,5,-1
 500 600 l 1,6,-1
 300 600 l 1,7,-1
 300 400 l 1,8,-1
 600 400 l 1,9,-1
 600 300 l 1,10,-1
 700 300 l 1,11,-1
 700 100 l 1,12,-1
 600 100 l 1,13,-1
 600 0 l 1,14,-1
 200 0 l 1,15,-1
 200 100 l 1,16,-1
 100 100 l 1,17,-1
 100 200 l 1,18,-1
 300 200 l 1,19,-1
 300 100 l 1,20,-1
 500 100 l 1,21,-1
 500 300 l 1,22,-1
 200 300 l 1,23,-1
 200 400 l 1,24,-1
 100 400 l 1,25,-1
 100 600 l 1,26,-1
 200 600 l 1,27,-1
 200 700 l 1,0,-1
EndSplineSet
EndChar

StartChar: Scaron
Encoding: 352 352 48
Width: 800
GlyphClass: 1
Flags: W
LayerCount: 2
Fore
SplineSet
200 700 m 1,0,-1
 300 700 l 1,1,-1
 300 600 l 1,2,-1
 200 600 l 1,3,-1
 200 700 l 1,0,-1
100 100 m 1,4,-1
 500 100 l 1,5,-1
 500 200 l 1,6,-1
 200 200 l 1,7,-1
 200 300 l 1,8,-1
 100 300 l 1,9,-1
 100 400 l 1,10,-1
 200 400 l 1,11,-1
 200 500 l 1,12,-1
 300 500 l 1,13,-1
 300 600 l 1,14,-1
 400 600 l 1,15,-1
 400 500 l 1,16,-1
 700 500 l 1,17,-1
 700 400 l 1,18,-1
 300 400 l 1,19,-1
 300 300 l 1,20,-1
 600 300 l 1,21,-1
 600 200 l 1,22,-1
 700 200 l 1,23,-1
 700 100 l 1,24,-1
 600 100 l 1,25,-1
 600 0 l 1,26,-1
 100 0 l 1,27,-1
 100 100 l 1,4,-1
400 700 m 1,28,-1
 500 700 l 1,29,-1
 500 600 l 1,30,-1
 400 600 l 1,31,-1
 400 700 l 1,28,-1
EndSplineSet
EndChar

StartChar: uni1E9E
Encoding: 7838 7838 49
Width: 800
GlyphClass: 1
Flags: W
LayerCount: 2
Fore
SplineSet
600 700 m 1,0,-1
 600 600 l 1,1,-1
 700 600 l 1,2,-1
 700 400 l 1,3,-1
 600 400 l 1,4,-1
 600 300 l 1,5,-1
 700 300 l 1,6,-1
 700 100 l 1,7,-1
 600 100 l 1,8,-1
 600 0 l 1,9,-1
 400 0 l 1,10,-1
 400 100 l 1,11,-1
 500 100 l 1,12,-1
 500 300 l 1,13,-1
 400 300 l 1,14,-1
 400 400 l 1,15,-1
 500 400 l 1,16,-1
 500 600 l 1,17,-1
 300 600 l 1,18,-1
 300 -100 l 1,19,-1
 100 -100 l 1,20,-1
 100 700 l 1,21,-1
 600 700 l 1,0,-1
EndSplineSet
EndChar

StartChar: T
Encoding: 84 84 50
AltUni2: 00e054.ffffffff.0 00e054.ffffffff.0
Width: 800
GlyphClass: 1
Flags: W
LayerCount: 2
Fore
SplineSet
100 700 m 1,0,-1
 700 700 l 1,1,-1
 700 600 l 1,2,-1
 500 600 l 1,3,-1
 500 0 l 1,4,-1
 300 0 l 1,5,-1
 300 600 l 1,6,-1
 100 600 l 1,7,-1
 100 700 l 1,0,-1
EndSplineSet
EndChar

StartChar: U
Encoding: 85 85 51
AltUni2: 00e055.ffffffff.0 00e055.ffffffff.0
Width: 800
GlyphClass: 1
Flags: W
LayerCount: 2
Fore
SplineSet
200 100 m 1,0,-1
 100 100 l 1,1,-1
 100 700 l 1,2,-1
 300 700 l 1,3,-1
 300 100 l 1,4,-1
 500 100 l 1,5,-1
 500 700 l 1,6,-1
 700 700 l 1,7,-1
 700 100 l 1,8,-1
 600 100 l 1,9,-1
 600 0 l 1,10,-1
 200 0 l 1,11,-1
 200 100 l 1,0,-1
EndSplineSet
EndChar

StartChar: Uacute
Encoding: 218 218 52
Width: 800
GlyphClass: 1
Flags: W
LayerCount: 2
Fore
SplineSet
300 100 m 1,0,-1
 500 100 l 1,1,-1
 500 500 l 1,2,-1
 700 500 l 1,3,-1
 700 100 l 1,4,-1
 600 100 l 1,5,-1
 600 0 l 1,6,-1
 200 0 l 1,7,-1
 200 100 l 1,8,-1
 100 100 l 1,9,-1
 100 500 l 1,10,-1
 300 500 l 1,11,-1
 300 100 l 1,0,-1
300 600 m 1,12,-1
 400 600 l 1,13,-1
 400 500 l 1,14,-1
 300 500 l 1,15,-1
 300 600 l 1,12,-1
400 700 m 1,16,-1
 500 700 l 1,17,-1
 500 600 l 1,18,-1
 400 600 l 1,19,-1
 400 700 l 1,16,-1
EndSplineSet
EndChar

StartChar: Ucircumflex
Encoding: 219 219 53
Width: 800
GlyphClass: 1
Flags: W
LayerCount: 2
Fore
SplineSet
200 600 m 1,0,-1
 300 600 l 1,1,-1
 300 100 l 1,2,-1
 500 100 l 1,3,-1
 500 500 l 1,4,-1
 700 500 l 1,5,-1
 700 100 l 1,6,-1
 600 100 l 1,7,-1
 600 0 l 1,8,-1
 200 0 l 1,9,-1
 200 100 l 1,10,-1
 100 100 l 1,11,-1
 100 500 l 1,12,-1
 200 500 l 1,13,-1
 200 600 l 1,0,-1
300 700 m 1,14,-1
 400 700 l 1,15,-1
 400 600 l 1,16,-1
 300 600 l 1,17,-1
 300 700 l 1,14,-1
400 600 m 1,18,-1
 500 600 l 1,19,-1
 500 500 l 1,20,-1
 400 500 l 1,21,-1
 400 600 l 1,18,-1
EndSplineSet
EndChar

StartChar: Udieresis
Encoding: 220 220 54
Width: 800
GlyphClass: 1
Flags: W
LayerCount: 2
Fore
SplineSet
200 700 m 1,0,-1
 300 700 l 1,1,-1
 300 600 l 1,2,-1
 200 600 l 1,3,-1
 200 700 l 1,0,-1
100 500 m 1,4,-1
 300 500 l 1,5,-1
 300 100 l 1,6,-1
 500 100 l 1,7,-1
 500 500 l 1,8,-1
 700 500 l 1,9,-1
 700 100 l 1,10,-1
 600 100 l 1,11,-1
 600 0 l 1,12,-1
 200 0 l 1,13,-1
 200 100 l 1,14,-1
 100 100 l 1,15,-1
 100 500 l 1,4,-1
500 700 m 1,16,-1
 600 700 l 1,17,-1
 600 600 l 1,18,-1
 500 600 l 1,19,-1
 500 700 l 1,16,-1
EndSplineSet
EndChar

StartChar: Ugrave
Encoding: 217 217 55
Width: 800
GlyphClass: 1
Flags: W
LayerCount: 2
Fore
SplineSet
300 700 m 1,0,-1
 400 700 l 1,1,-1
 400 600 l 1,2,-1
 300 600 l 1,3,-1
 300 700 l 1,0,-1
100 500 m 1,4,-1
 300 500 l 1,5,-1
 300 100 l 1,6,-1
 500 100 l 1,7,-1
 500 500 l 1,8,-1
 700 500 l 1,9,-1
 700 100 l 1,10,-1
 600 100 l 1,11,-1
 600 0 l 1,12,-1
 200 0 l 1,13,-1
 200 100 l 1,14,-1
 100 100 l 1,15,-1
 100 500 l 1,4,-1
400 600 m 1,16,-1
 500 600 l 1,17,-1
 500 500 l 1,18,-1
 400 500 l 1,19,-1
 400 600 l 1,16,-1
EndSplineSet
EndChar

StartChar: V
Encoding: 86 86 56
AltUni2: 00e056.ffffffff.0 00e056.ffffffff.0
Width: 800
GlyphClass: 1
Flags: W
LayerCount: 2
Fore
SplineSet
300 100 m 1,0,-1
 200 100 l 1,1,-1
 200 200 l 1,2,-1
 100 200 l 1,3,-1
 100 700 l 1,4,-1
 300 700 l 1,5,-1
 300 200 l 1,6,-1
 500 200 l 1,7,-1
 500 700 l 1,8,-1
 700 700 l 1,9,-1
 700 200 l 1,10,-1
 600 200 l 1,11,-1
 600 100 l 1,12,-1
 500 100 l 1,13,-1
 500 0 l 1,14,-1
 300 0 l 1,15,-1
 300 100 l 1,0,-1
EndSplineSet
EndChar

StartChar: W
Encoding: 87 87 57
AltUni2: 00e057.ffffffff.0 00e057.ffffffff.0
Width: 800
GlyphClass: 1
Flags: W
LayerCount: 2
Fore
SplineSet
200 700 m 1,0,-1
 200 200 l 1,1,-1
 300 200 l 1,2,-1
 300 400 l 1,3,-1
 400 400 l 1,4,-1
 400 200 l 1,5,-1
 500 200 l 1,6,-1
 500 700 l 1,7,-1
 700 700 l 1,8,-1
 700 100 l 1,9,-1
 600 100 l 1,10,-1
 600 0 l 1,11,-1
 400 0 l 1,12,-1
 400 100 l 1,13,-1
 300 100 l 1,14,-1
 300 0 l 1,15,-1
 100 0 l 1,16,-1
 100 100 l 1,17,-1
 0 100 l 1,18,-1
 0 700 l 1,19,-1
 200 700 l 1,0,-1
EndSplineSet
EndChar

StartChar: X
Encoding: 88 88 58
AltUni2: 00e058.ffffffff.0 00e058.ffffffff.0
Width: 800
GlyphClass: 1
Flags: W
LayerCount: 2
Fore
SplineSet
200 300 m 1,0,-1
 300 300 l 1,1,-1
 300 400 l 1,2,-1
 200 400 l 1,3,-1
 200 500 l 1,4,-1
 100 500 l 1,5,-1
 100 700 l 1,6,-1
 300 700 l 1,7,-1
 300 500 l 1,8,-1
 500 500 l 1,9,-1
 500 700 l 1,10,-1
 700 700 l 1,11,-1
 700 500 l 1,12,-1
 600 500 l 1,13,-1
 600 400 l 1,14,-1
 500 400 l 1,15,-1
 500 300 l 1,16,-1
 600 300 l 1,17,-1
 600 200 l 1,18,-1
 700 200 l 1,19,-1
 700 0 l 1,20,-1
 500 0 l 1,21,-1
 500 200 l 1,22,-1
 300 200 l 1,23,-1
 300 0 l 1,24,-1
 100 0 l 1,25,-1
 100 200 l 1,26,-1
 200 200 l 1,27,-1
 200 300 l 1,0,-1
EndSplineSet
EndChar

StartChar: Y
Encoding: 89 89 59
AltUni2: 00e059.ffffffff.0 00e059.ffffffff.0
Width: 800
GlyphClass: 1
Flags: W
LayerCount: 2
Fore
SplineSet
300 300 m 1,0,-1
 200 300 l 1,1,-1
 200 400 l 1,2,-1
 100 400 l 1,3,-1
 100 700 l 1,4,-1
 300 700 l 1,5,-1
 300 400 l 1,6,-1
 500 400 l 1,7,-1
 500 700 l 1,8,-1
 700 700 l 1,9,-1
 700 400 l 1,10,-1
 600 400 l 1,11,-1
 600 300 l 1,12,-1
 500 300 l 1,13,-1
 500 0 l 1,14,-1
 300 0 l 1,15,-1
 300 300 l 1,0,-1
EndSplineSet
EndChar

StartChar: Yacute
Encoding: 221 221 60
Width: 800
GlyphClass: 1
Flags: W
LayerCount: 2
Fore
SplineSet
300 300 m 1,0,-1
 500 300 l 1,1,-1
 500 500 l 1,2,-1
 700 500 l 1,3,-1
 700 300 l 1,4,-1
 600 300 l 1,5,-1
 600 200 l 1,6,-1
 500 200 l 1,7,-1
 500 0 l 1,8,-1
 300 0 l 1,9,-1
 300 200 l 1,10,-1
 200 200 l 1,11,-1
 200 300 l 1,12,-1
 100 300 l 1,13,-1
 100 500 l 1,14,-1
 300 500 l 1,15,-1
 300 300 l 1,0,-1
300 600 m 1,16,-1
 400 600 l 1,17,-1
 400 500 l 1,18,-1
 300 500 l 1,19,-1
 300 600 l 1,16,-1
400 700 m 1,20,-1
 500 700 l 1,21,-1
 500 600 l 1,22,-1
 400 600 l 1,23,-1
 400 700 l 1,20,-1
EndSplineSet
EndChar

StartChar: Ydieresis
Encoding: 376 376 61
Width: 800
GlyphClass: 1
Flags: W
LayerCount: 2
Fore
SplineSet
200 700 m 1,0,-1
 300 700 l 1,1,-1
 300 600 l 1,2,-1
 200 600 l 1,3,-1
 200 700 l 1,0,-1
100 500 m 1,4,-1
 300 500 l 1,5,-1
 300 300 l 1,6,-1
 500 300 l 1,7,-1
 500 500 l 1,8,-1
 700 500 l 1,9,-1
 700 300 l 1,10,-1
 600 300 l 1,11,-1
 600 200 l 1,12,-1
 500 200 l 1,13,-1
 500 0 l 1,14,-1
 300 0 l 1,15,-1
 300 200 l 1,16,-1
 200 200 l 1,17,-1
 200 300 l 1,18,-1
 100 300 l 1,19,-1
 100 500 l 1,4,-1
500 700 m 1,20,-1
 600 700 l 1,21,-1
 600 600 l 1,22,-1
 500 600 l 1,23,-1
 500 700 l 1,20,-1
EndSplineSet
EndChar

StartChar: Z
Encoding: 90 90 62
AltUni2: 00e05a.ffffffff.0 00e05a.ffffffff.0
Width: 800
GlyphClass: 1
Flags: W
LayerCount: 2
Fore
SplineSet
100 700 m 1,0,-1
 700 700 l 1,1,-1
 700 500 l 1,2,-1
 600 500 l 1,3,-1
 600 400 l 1,4,-1
 500 400 l 1,5,-1
 500 300 l 1,6,-1
 400 300 l 1,7,-1
 400 200 l 1,8,-1
 300 200 l 1,9,-1
 300 100 l 1,10,-1
 700 100 l 1,11,-1
 700 0 l 1,12,-1
 100 0 l 1,13,-1
 100 200 l 1,14,-1
 200 200 l 1,15,-1
 200 300 l 1,16,-1
 300 300 l 1,17,-1
 300 400 l 1,18,-1
 400 400 l 1,19,-1
 400 500 l 1,20,-1
 500 500 l 1,21,-1
 500 600 l 1,22,-1
 100 600 l 1,23,-1
 100 700 l 1,0,-1
EndSplineSet
EndChar

StartChar: Zcaron
Encoding: 381 381 63
Width: 800
GlyphClass: 1
Flags: W
LayerCount: 2
Fore
SplineSet
200 700 m 1,0,-1
 300 700 l 1,1,-1
 300 600 l 1,2,-1
 200 600 l 1,3,-1
 200 700 l 1,0,-1
100 100 m 1,4,-1
 200 100 l 1,5,-1
 200 200 l 1,6,-1
 300 200 l 1,7,-1
 300 300 l 1,8,-1
 400 300 l 1,9,-1
 400 400 l 1,10,-1
 100 400 l 1,11,-1
 100 500 l 1,12,-1
 300 500 l 1,13,-1
 300 600 l 1,14,-1
 400 600 l 1,15,-1
 400 500 l 1,16,-1
 700 500 l 1,17,-1
 700 400 l 1,18,-1
 600 400 l 1,19,-1
 600 300 l 1,20,-1
 500 300 l 1,21,-1
 500 200 l 1,22,-1
 400 200 l 1,23,-1
 400 100 l 1,24,-1
 700 100 l 1,25,-1
 700 0 l 1,26,-1
 100 0 l 1,27,-1
 100 100 l 1,4,-1
400 700 m 1,28,-1
 500 700 l 1,29,-1
 500 600 l 1,30,-1
 400 600 l 1,31,-1
 400 700 l 1,28,-1
EndSplineSet
EndChar

StartChar: a
Encoding: 97 97 64
Width: 800
GlyphClass: 1
Flags: W
LayerCount: 2
Fore
SplineSet
200 500 m 1,0,-1
 600 500 l 1,1,-1
 600 400 l 1,2,-1
 700 400 l 1,3,-1
 700 0 l 1,4,-1
 200 0 l 1,5,-1
 200 100 l 1,6,-1
 100 100 l 1,7,-1
 100 200 l 1,8,-1
 200 200 l 1,9,-1
 200 300 l 1,10,-1
 500 300 l 1,11,-1
 500 400 l 1,12,-1
 200 400 l 1,13,-1
 200 500 l 1,0,-1
500 100 m 1,14,-1
 500 200 l 1,15,-1
 300 200 l 1,16,-1
 300 100 l 1,17,-1
 500 100 l 1,14,-1
EndSplineSet
EndChar

StartChar: aacute
Encoding: 225 225 65
Width: 800
GlyphClass: 1
Flags: W
LayerCount: 2
Fore
SplineSet
300 200 m 1,0,-1
 300 100 l 1,1,-1
 500 100 l 1,2,-1
 500 200 l 1,3,-1
 300 200 l 1,0,-1
100 200 m 1,4,-1
 200 200 l 1,5,-1
 200 300 l 1,6,-1
 500 300 l 1,7,-1
 500 400 l 1,8,-1
 200 400 l 1,9,-1
 200 500 l 1,10,-1
 400 500 l 1,11,-1
 400 600 l 1,12,-1
 500 600 l 1,13,-1
 500 500 l 1,14,-1
 600 500 l 1,15,-1
 600 400 l 1,16,-1
 700 400 l 1,17,-1
 700 0 l 1,18,-1
 200 0 l 1,19,-1
 200 100 l 1,20,-1
 100 100 l 1,21,-1
 100 200 l 1,4,-1
500 700 m 1,22,-1
 600 700 l 1,23,-1
 600 600 l 1,24,-1
 500 600 l 1,25,-1
 500 700 l 1,22,-1
EndSplineSet
EndChar

StartChar: ae
Encoding: 230 230 71
Width: 800
GlyphClass: 1
Flags: W
LayerCount: 2
Fore
SplineSet
400 100 m 1,0,-1
 600 100 l 1,1,-1
 600 0 l 1,2,-1
 100 0 l 1,3,-1
 100 100 l 1,4,-1
 200 100 l 1,5,-1
 200 200 l 1,6,-1
 100 200 l 1,7,-1
 100 300 l 1,8,-1
 200 300 l 1,9,-1
 200 400 l 1,10,-1
 0 400 l 1,11,-1
 0 500 l 1,12,-1
 300 500 l 1,13,-1
 300 400 l 1,14,-1
 400 400 l 1,15,-1
 400 300 l 1,16,-1
 600 300 l 1,17,-1
 600 400 l 1,18,-1
 700 400 l 1,19,-1
 700 200 l 1,20,-1
 400 200 l 1,21,-1
 400 100 l 1,0,-1
0 200 m 1,22,-1
 100 200 l 1,23,-1
 100 100 l 1,24,-1
 0 100 l 1,25,-1
 0 200 l 1,22,-1
400 500 m 1,26,-1
 600 500 l 1,27,-1
 600 400 l 1,28,-1
 400 400 l 1,29,-1
 400 500 l 1,26,-1
EndSplineSet
EndChar

StartChar: b
Encoding: 98 98 72
Width: 800
GlyphClass: 1
Flags: W
LayerCount: 2
Fore
SplineSet
300 700 m 1,0,-1
 300 500 l 1,1,-1
 600 500 l 1,2,-1
 600 400 l 1,3,-1
 700 400 l 1,4,-1
 700 100 l 1,5,-1
 600 100 l 1,6,-1
 600 0 l 1,7,-1
 100 0 l 1,8,-1
 100 700 l 1,9,-1
 300 700 l 1,0,-1
500 100 m 1,10,-1
 500 400 l 1,11,-1
 300 400 l 1,12,-1
 300 100 l 1,13,-1
 500 100 l 1,10,-1
EndSplineSet
EndChar

StartChar: c
Encoding: 99 99 73
Width: 800
GlyphClass: 1
Flags: W
LayerCount: 2
Fore
SplineSet
100 400 m 1,0,-1
 200 400 l 1,1,-1
 200 500 l 1,2,-1
 600 500 l 1,3,-1
 600 400 l 1,4,-1
 700 400 l 1,5,-1
 700 300 l 1,6,-1
 500 300 l 1,7,-1
 500 400 l 1,8,-1
 300 400 l 1,9,-1
 300 100 l 1,10,-1
 500 100 l 1,11,-1
 500 200 l 1,12,-1
 700 200 l 1,13,-1
 700 100 l 1,14,-1
 600 100 l 1,15,-1
 600 0 l 1,16,-1
 200 0 l 1,17,-1
 200 100 l 1,18,-1
 100 100 l 1,19,-1
 100 400 l 1,0,-1
EndSplineSet
EndChar

StartChar: ccedilla
Encoding: 231 231 74
Width: 800
GlyphClass: 1
Flags: W
LayerCount: 2
Fore
SplineSet
200 100 m 1,0,-1
 100 100 l 1,1,-1
 100 400 l 1,2,-1
 200 400 l 1,3,-1
 200 500 l 1,4,-1
 600 500 l 1,5,-1
 600 400 l 1,6,-1
 700 400 l 1,7,-1
 700 300 l 1,8,-1
 500 300 l 1,9,-1
 500 400 l 1,10,-1
 300 400 l 1,11,-1
 300 100 l 1,12,-1
 500 100 l 1,13,-1
 500 200 l 1,14,-1
 700 200 l 1,15,-1
 700 100 l 1,16,-1
 600 100 l 1,17,-1
 600 0 l 1,18,-1
 500 0 l 1,19,-1
 500 -100 l 1,20,-1
 400 -100 l 1,21,-1
 400 0 l 1,22,-1
 200 0 l 1,23,-1
 200 100 l 1,0,-1
EndSplineSet
EndChar

StartChar: d
Encoding: 100 100 75
Width: 800
GlyphClass: 1
Flags: W
LayerCount: 2
Fore
SplineSet
700 700 m 1,0,-1
 700 0 l 1,1,-1
 200 0 l 1,2,-1
 200 100 l 1,3,-1
 100 100 l 1,4,-1
 100 400 l 1,5,-1
 200 400 l 1,6,-1
 200 500 l 1,7,-1
 500 500 l 1,8,-1
 500 700 l 1,9,-1
 700 700 l 1,0,-1
500 100 m 1,10,-1
 500 400 l 1,11,-1
 300 400 l 1,12,-1
 300 100 l 1,13,-1
 500 100 l 1,10,-1
EndSplineSet
EndChar

StartChar: eth
Encoding: 240 240 76
Width: 800
GlyphClass: 1
Flags: W
LayerCount: 2
Fore
SplineSet
200 300 m 1,0,-1
 200 400 l 1,1,-1
 500 400 l 1,2,-1
 500 500 l 1,3,-1
 300 500 l 1,4,-1
 300 600 l 1,5,-1
 400 600 l 1,6,-1
 400 700 l 1,7,-1
 600 700 l 1,8,-1
 600 600 l 1,9,-1
 800 600 l 1,10,-1
 800 500 l 1,11,-1
 700 500 l 1,12,-1
 700 100 l 1,13,-1
 600 100 l 1,14,-1
 600 0 l 1,15,-1
 200 0 l 1,16,-1
 200 100 l 1,17,-1
 100 100 l 1,18,-1
 100 300 l 1,19,-1
 200 300 l 1,0,-1
500 100 m 1,20,-1
 500 300 l 1,21,-1
 300 300 l 1,22,-1
 300 100 l 1,23,-1
 500 100 l 1,20,-1
EndSplineSet
EndChar

StartChar: e
Encoding: 101 101 77
Width: 800
GlyphClass: 1
Flags: W
LayerCount: 2
Fore
SplineSet
200 400 m 1,0,-1
 200 500 l 1,1,-1
 600 500 l 1,2,-1
 600 400 l 1,3,-1
 700 400 l 1,4,-1
 700 200 l 1,5,-1
 300 200 l 1,6,-1
 300 100 l 1,7,-1
 600 100 l 1,8,-1
 600 0 l 1,9,-1
 200 0 l 1,10,-1
 200 100 l 1,11,-1
 100 100 l 1,12,-1
 100 400 l 1,13,-1
 200 400 l 1,0,-1
500 300 m 1,14,-1
 500 400 l 1,15,-1
 300 400 l 1,16,-1
 300 300 l 1,17,-1
 500 300 l 1,14,-1
EndSplineSet
EndChar

StartChar: eacute
Encoding: 233 233 78
Width: 800
GlyphClass: 1
Flags: W
LayerCount: 2
Fore
SplineSet
200 400 m 1,0,-1
 200 500 l 1,1,-1
 300 500 l 1,2,-1
 300 600 l 1,3,-1
 400 600 l 1,4,-1
 400 500 l 1,5,-1
 600 500 l 1,6,-1
 600 400 l 1,7,-1
 700 400 l 1,8,-1
 700 200 l 1,9,-1
 300 200 l 1,10,-1
 300 100 l 1,11,-1
 600 100 l 1,12,-1
 600 0 l 1,13,-1
 200 0 l 1,14,-1
 200 100 l 1,15,-1
 100 100 l 1,16,-1
 100 400 l 1,17,-1
 200 400 l 1,0,-1
500 300 m 1,18,-1
 500 400 l 1,19,-1
 300 400 l 1,20,-1
 300 300 l 1,21,-1
 500 300 l 1,18,-1
400 700 m 1,22,-1
 500 700 l 1,23,-1
 500 600 l 1,24,-1
 400 600 l 1,25,-1
 400 700 l 1,22,-1
EndSplineSet
EndChar

StartChar: f
Encoding: 102 102 82
Width: 800
GlyphClass: 1
Flags: W
LayerCount: 2
Fore
SplineSet
100 300 m 1,0,-1
 0 300 l 1,1,-1
 0 400 l 1,2,-1
 100 400 l 1,3,-1
 100 600 l 1,4,-1
 200 600 l 1,5,-1
 200 700 l 1,6,-1
 600 700 l 1,7,-1
 600 600 l 1,8,-1
 700 600 l 1,9,-1
 700 500 l 1,10,-1
 500 500 l 1,11,-1
 500 600 l 1,12,-1
 300 600 l 1,13,-1
 300 400 l 1,14,-1
 500 400 l 1,15,-1
 500 300 l 1,16,-1
 300 300 l 1,17,-1
 300 0 l 1,18,-1
 100 0 l 1,19,-1
 100 300 l 1,0,-1
EndSplineSet
EndChar

StartChar: g
Encoding: 103 103 83
Width: 800
GlyphClass: 1
Flags: W
LayerCount: 2
Fore
SplineSet
300 400 m 1,0,-1
 300 200 l 1,1,-1
 500 200 l 1,2,-1
 500 400 l 1,3,-1
 300 400 l 1,0,-1
100 400 m 1,4,-1
 200 400 l 1,5,-1
 200 500 l 1,6,-1
 700 500 l 1,7,-1
 700 0 l 1,8,-1
 600 0 l 1,9,-1
 600 -100 l 1,10,-1
 200 -100 l 1,11,-1
 200 0 l 1,12,-1
 500 0 l 1,13,-1
 500 100 l 1,14,-1
 200 100 l 1,15,-1
 200 200 l 1,16,-1
 100 200 l 1,17,-1
 100 400 l 1,4,-1
EndSplineSet
EndChar

StartChar: h
Encoding: 104 104 84
Width: 800
GlyphClass: 1
Flags: W
LayerCount: 2
Fore
SplineSet
100 700 m 1,0,-1
 300 700 l 1,1,-1
 300 500 l 1,2,-1
 600 500 l 1,3,-1
 600 400 l 1,4,-1
 700 400 l 1,5,-1
 700 0 l 1,6,-1
 500 0 l 1,7,-1
 500 400 l 1,8,-1
 300 400 l 1,9,-1
 300 0 l 1,10,-1
 100 0 l 1,11,-1
 100 700 l 1,0,-1
EndSplineSet
EndChar

StartChar: i
Encoding: 105 105 85
Width: 800
GlyphClass: 1
Flags: W
LayerCount: 2
Fore
SplineSet
500 500 m 1,0,-1
 500 100 l 1,1,-1
 600 100 l 1,2,-1
 600 0 l 1,3,-1
 400 0 l 1,4,-1
 400 100 l 1,5,-1
 300 100 l 1,6,-1
 300 500 l 1,7,-1
 500 500 l 1,0,-1
300 700 m 1,8,-1
 500 700 l 1,9,-1
 500 600 l 1,10,-1
 300 600 l 1,11,-1
 300 700 l 1,8,-1
EndSplineSet
EndChar

StartChar: dotlessi
Encoding: 305 305 86
Width: 800
GlyphClass: 1
Flags: W
LayerCount: 2
Fore
SplineSet
500 500 m 1,0,-1
 500 100 l 1,1,-1
 600 100 l 1,2,-1
 600 0 l 1,3,-1
 400 0 l 1,4,-1
 400 100 l 1,5,-1
 300 100 l 1,6,-1
 300 500 l 1,7,-1
 500 500 l 1,0,-1
EndSplineSet
EndChar

StartChar: iacute
Encoding: 237 237 87
Width: 800
GlyphClass: 1
Flags: W
LayerCount: 2
Fore
SplineSet
500 400 m 1,0,-1
 500 100 l 1,1,-1
 600 100 l 1,2,-1
 600 0 l 1,3,-1
 400 0 l 1,4,-1
 400 100 l 1,5,-1
 300 100 l 1,6,-1
 300 400 l 1,7,-1
 500 400 l 1,0,-1
300 600 m 1,8,-1
 400 600 l 1,9,-1
 400 500 l 1,10,-1
 300 500 l 1,11,-1
 300 600 l 1,8,-1
400 700 m 1,12,-1
 500 700 l 1,13,-1
 500 600 l 1,14,-1
 400 600 l 1,15,-1
 400 700 l 1,12,-1
EndSplineSet
EndChar

StartChar: icircumflex
Encoding: 238 238 88
Width: 800
GlyphClass: 1
Flags: W
LayerCount: 2
Fore
SplineSet
500 400 m 1,0,-1
 500 100 l 1,1,-1
 600 100 l 1,2,-1
 600 0 l 1,3,-1
 400 0 l 1,4,-1
 400 100 l 1,5,-1
 300 100 l 1,6,-1
 300 400 l 1,7,-1
 500 400 l 1,0,-1
200 600 m 1,8,-1
 300 600 l 1,9,-1
 300 500 l 1,10,-1
 200 500 l 1,11,-1
 200 600 l 1,8,-1
300 700 m 1,12,-1
 400 700 l 1,13,-1
 400 600 l 1,14,-1
 300 600 l 1,15,-1
 300 700 l 1,12,-1
400 600 m 1,16,-1
 500 600 l 1,17,-1
 500 500 l 1,18,-1
 400 500 l 1,19,-1
 400 600 l 1,16,-1
EndSplineSet
EndChar

StartChar: idieresis
Encoding: 239 239 89
Width: 800
GlyphClass: 1
Flags: W
LayerCount: 2
Fore
SplineSet
500 400 m 1,0,-1
 500 100 l 1,1,-1
 600 100 l 1,2,-1
 600 0 l 1,3,-1
 400 0 l 1,4,-1
 400 100 l 1,5,-1
 300 100 l 1,6,-1
 300 400 l 1,7,-1
 500 400 l 1,0,-1
200 700 m 1,8,-1
 300 700 l 1,9,-1
 300 600 l 1,10,-1
 200 600 l 1,11,-1
 200 700 l 1,8,-1
500 700 m 1,12,-1
 600 700 l 1,13,-1
 600 600 l 1,14,-1
 500 600 l 1,15,-1
 500 700 l 1,12,-1
EndSplineSet
EndChar

StartChar: igrave
Encoding: 236 236 90
Width: 800
GlyphClass: 1
Flags: W
LayerCount: 2
Fore
SplineSet
500 400 m 1,0,-1
 500 100 l 1,1,-1
 600 100 l 1,2,-1
 600 0 l 1,3,-1
 400 0 l 1,4,-1
 400 100 l 1,5,-1
 300 100 l 1,6,-1
 300 400 l 1,7,-1
 500 400 l 1,0,-1
300 700 m 1,8,-1
 400 700 l 1,9,-1
 400 600 l 1,10,-1
 300 600 l 1,11,-1
 300 700 l 1,8,-1
400 600 m 1,12,-1
 500 600 l 1,13,-1
 500 500 l 1,14,-1
 400 500 l 1,15,-1
 400 600 l 1,12,-1
EndSplineSet
EndChar

StartChar: j
Encoding: 106 106 91
Width: 800
GlyphClass: 1
Flags: W
LayerCount: 2
Fore
SplineSet
200 400 m 1,0,-1
 200 500 l 1,1,-1
 500 500 l 1,2,-1
 500 0 l 1,3,-1
 400 0 l 1,4,-1
 400 -100 l 1,5,-1
 100 -100 l 1,6,-1
 100 0 l 1,7,-1
 300 0 l 1,8,-1
 300 400 l 1,9,-1
 200 400 l 1,0,-1
300 700 m 1,10,-1
 500 700 l 1,11,-1
 500 600 l 1,12,-1
 300 600 l 1,13,-1
 300 700 l 1,10,-1
EndSplineSet
EndChar

StartChar: k
Encoding: 107 107 92
Width: 800
GlyphClass: 1
Flags: W
LayerCount: 2
Fore
SplineSet
100 700 m 1,0,-1
 300 700 l 1,1,-1
 300 300 l 1,2,-1
 400 300 l 1,3,-1
 400 400 l 1,4,-1
 500 400 l 1,5,-1
 500 500 l 1,6,-1
 700 500 l 1,7,-1
 700 400 l 1,8,-1
 600 400 l 1,9,-1
 600 300 l 1,10,-1
 500 300 l 1,11,-1
 500 200 l 1,12,-1
 600 200 l 1,13,-1
 600 100 l 1,14,-1
 700 100 l 1,15,-1
 700 0 l 1,16,-1
 500 0 l 1,17,-1
 500 100 l 1,18,-1
 400 100 l 1,19,-1
 400 200 l 1,20,-1
 300 200 l 1,21,-1
 300 0 l 1,22,-1
 100 0 l 1,23,-1
 100 700 l 1,0,-1
EndSplineSet
EndChar

StartChar: l
Encoding: 108 108 93
Width: 800
GlyphClass: 1
Flags: W
LayerCount: 2
Fore
SplineSet
500 700 m 1,0,-1
 500 100 l 1,1,-1
 600 100 l 1,2,-1
 600 0 l 1,3,-1
 400 0 l 1,4,-1
 400 100 l 1,5,-1
 300 100 l 1,6,-1
 300 700 l 1,7,-1
 500 700 l 1,0,-1
EndSplineSet
EndChar

StartChar: lslash
Encoding: 322 322 94
Width: 800
GlyphClass: 1
Flags: W
LayerCount: 2
Fore
SplineSet
500 700 m 1,0,-1
 500 500 l 1,1,-1
 600 500 l 1,2,-1
 600 400 l 1,3,-1
 500 400 l 1,4,-1
 500 100 l 1,5,-1
 600 100 l 1,6,-1
 600 0 l 1,7,-1
 400 0 l 1,8,-1
 400 100 l 1,9,-1
 300 100 l 1,10,-1
 300 300 l 1,11,-1
 200 300 l 1,12,-1
 200 400 l 1,13,-1
 300 400 l 1,14,-1
 300 700 l 1,15,-1
 500 700 l 1,0,-1
EndSplineSet
EndChar

StartChar: m
Encoding: 109 109 95
Width: 800
GlyphClass: 1
Flags: W
LayerCount: 2
Fore
SplineSet
0 500 m 1,0,-1
 300 500 l 1,1,-1
 300 400 l 1,2,-1
 400 400 l 1,3,-1
 400 500 l 1,4,-1
 600 500 l 1,5,-1
 600 400 l 1,6,-1
 700 400 l 1,7,-1
 700 0 l 1,8,-1
 500 0 l 1,9,-1
 500 300 l 1,10,-1
 400 300 l 1,11,-1
 400 0 l 1,12,-1
 300 0 l 1,13,-1
 300 300 l 1,14,-1
 200 300 l 1,15,-1
 200 0 l 1,16,-1
 0 0 l 1,17,-1
 0 500 l 1,0,-1
EndSplineSet
EndChar

StartChar: n
Encoding: 110 110 96
Width: 800
GlyphClass: 1
Flags: W
LayerCount: 2
Fore
SplineSet
100 500 m 1,0,-1
 600 500 l 1,1,-1
 600 400 l 1,2,-1
 700 400 l 1,3,-1
 700 0 l 1,4,-1
 500 0 l 1,5,-1
 500 400 l 1,6,-1
 300 400 l 1,7,-1
 300 0 l 1,8,-1
 100 0 l 1,9,-1
 100 500 l 1,0,-1
EndSplineSet
EndChar

StartChar: ntilde
Encoding: 241 241 97
Width: 800
GlyphClass: 1
Flags: W
LayerCount: 2
Fore
SplineSet
100 500 m 1,0,-1
 600 500 l 1,1,-1
 600 400 l 1,2,-1
 700 400 l 1,3,-1
 700 0 l 1,4,-1
 500 0 l 1,5,-1
 500 400 l 1,6,-1
 300 400 l 1,7,-1
 300 0 l 1,8,-1
 100 0 l 1,9,-1
 100 500 l 1,0,-1
200 700 m 1,10,-1
 600 700 l 1,11,-1
 600 600 l 1,12,-1
 200 600 l 1,13,-1
 200 700 l 1,10,-1
EndSplineSet
EndChar

StartChar: o
Encoding: 111 111 98
Width: 800
GlyphClass: 1
Flags: W
LayerCount: 2
Fore
SplineSet
200 400 m 1,0,-1
 200 500 l 1,1,-1
 600 500 l 1,2,-1
 600 400 l 1,3,-1
 700 400 l 1,4,-1
 700 100 l 1,5,-1
 600 100 l 1,6,-1
 600 0 l 1,7,-1
 200 0 l 1,8,-1
 200 100 l 1,9,-1
 100 100 l 1,10,-1
 100 400 l 1,11,-1
 200 400 l 1,0,-1
500 100 m 1,12,-1
 500 400 l 1,13,-1
 300 400 l 1,14,-1
 300 100 l 1,15,-1
 500 100 l 1,12,-1
EndSplineSet
EndChar

StartChar: oacute
Encoding: 243 243 99
Width: 800
GlyphClass: 1
Flags: W
LayerCount: 2
Fore
SplineSet
200 400 m 1,0,-1
 200 500 l 1,1,-1
 300 500 l 1,2,-1
 300 600 l 1,3,-1
 400 600 l 1,4,-1
 400 500 l 1,5,-1
 600 500 l 1,6,-1
 600 400 l 1,7,-1
 700 400 l 1,8,-1
 700 100 l 1,9,-1
 600 100 l 1,10,-1
 600 0 l 1,11,-1
 200 0 l 1,12,-1
 200 100 l 1,13,-1
 100 100 l 1,14,-1
 100 400 l 1,15,-1
 200 400 l 1,0,-1
500 100 m 1,16,-1
 500 400 l 1,17,-1
 300 400 l 1,18,-1
 300 100 l 1,19,-1
 500 100 l 1,16,-1
400 700 m 1,20,-1
 500 700 l 1,21,-1
 500 600 l 1,22,-1
 400 600 l 1,23,-1
 400 700 l 1,20,-1
EndSplineSet
EndChar

StartChar: oslash
Encoding: 248 248 103
Width: 800
GlyphClass: 1
Flags: W
LayerCount: 2
Fore
SplineSet
200 100 m 1,0,-1
 100 100 l 1,1,-1
 100 400 l 1,2,-1
 200 400 l 1,3,-1
 200 500 l 1,4,-1
 600 500 l 1,5,-1
 600 400 l 1,6,-1
 700 400 l 1,7,-1
 700 100 l 1,8,-1
 600 100 l 1,9,-1
 600 0 l 1,10,-1
 200 0 l 1,11,-1
 200 100 l 1,0,-1
0 100 m 1,12,-1
 100 100 l 1,13,-1
 100 0 l 1,14,-1
 0 0 l 1,15,-1
 0 100 l 1,12,-1
400 200 m 1,16,-1
 400 100 l 1,17,-1
 500 100 l 1,18,-1
 500 200 l 1,19,-1
 400 200 l 1,20,-1
 400 300 l 1,21,-1
 500 300 l 1,22,-1
 500 400 l 1,23,-1
 300 400 l 1,24,-1
 300 200 l 1,25,-1
 400 200 l 1,16,-1
700 500 m 1,26,-1
 800 500 l 1,27,-1
 800 400 l 1,28,-1
 700 400 l 1,29,-1
 700 500 l 1,26,-1
EndSplineSet
EndChar

StartChar: oe
Encoding: 339 339 105
Width: 800
GlyphClass: 1
Flags: W
LayerCount: 2
Fore
SplineSet
400 100 m 1,0,-1
 300 100 l 1,1,-1
 300 400 l 1,2,-1
 400 400 l 1,3,-1
 400 300 l 1,4,-1
 600 300 l 1,5,-1
 600 400 l 1,6,-1
 700 400 l 1,7,-1
 700 200 l 1,8,-1
 400 200 l 1,9,-1
 400 100 l 1,0,-1
0 400 m 1,10,-1
 100 400 l 1,11,-1
 100 100 l 1,12,-1
 0 100 l 1,13,-1
 0 400 l 1,10,-1
100 100 m 1,14,-1
 300 100 l 1,15,-1
 300 0 l 1,16,-1
 100 0 l 1,17,-1
 100 100 l 1,14,-1
100 500 m 1,18,-1
 300 500 l 1,19,-1
 300 400 l 1,20,-1
 100 400 l 1,21,-1
 100 500 l 1,18,-1
400 100 m 1,22,-1
 600 100 l 1,23,-1
 600 0 l 1,24,-1
 400 0 l 1,25,-1
 400 100 l 1,22,-1
400 500 m 1,26,-1
 600 500 l 1,27,-1
 600 400 l 1,28,-1
 400 400 l 1,29,-1
 400 500 l 1,26,-1
EndSplineSet
EndChar

StartChar: p
Encoding: 112 112 106
Width: 800
GlyphClass: 1
Flags: W
LayerCount: 2
Fore
SplineSet
100 500 m 1,0,-1
 600 500 l 1,1,-1
 600 400 l 1,2,-1
 700 400 l 1,3,-1
 700 200 l 1,4,-1
 600 200 l 1,5,-1
 600 100 l 1,6,-1
 300 100 l 1,7,-1
 300 -100 l 1,8,-1
 100 -100 l 1,9,-1
 100 500 l 1,0,-1
500 200 m 1,10,-1
 500 400 l 1,11,-1
 300 400 l 1,12,-1
 300 200 l 1,13,-1
 500 200 l 1,10,-1
EndSplineSet
EndChar

StartChar: thorn
Encoding: 254 254 107
Width: 800
GlyphClass: 1
Flags: W
LayerCount: 2
Fore
SplineSet
400 500 m 1,0,-1
 400 400 l 1,1,-1
 600 400 l 1,2,-1
 600 300 l 1,3,-1
 700 300 l 1,4,-1
 700 200 l 1,5,-1
 600 200 l 1,6,-1
 600 100 l 1,7,-1
 400 100 l 1,8,-1
 400 0 l 1,9,-1
 200 0 l 1,10,-1
 200 500 l 1,11,-1
 400 500 l 1,0,-1
500 200 m 1,12,-1
 500 300 l 1,13,-1
 400 300 l 1,14,-1
 400 200 l 1,15,-1
 500 200 l 1,12,-1
EndSplineSet
EndChar

StartChar: q
Encoding: 113 113 108
Width: 800
GlyphClass: 1
Flags: W
LayerCount: 2
Fore
SplineSet
300 400 m 1,0,-1
 300 200 l 1,1,-1
 500 200 l 1,2,-1
 500 400 l 1,3,-1
 300 400 l 1,0,-1
100 400 m 1,4,-1
 200 400 l 1,5,-1
 200 500 l 1,6,-1
 700 500 l 1,7,-1
 700 -100 l 1,8,-1
 500 -100 l 1,9,-1
 500 100 l 1,10,-1
 200 100 l 1,11,-1
 200 200 l 1,12,-1
 100 200 l 1,13,-1
 100 400 l 1,4,-1
EndSplineSet
EndChar

StartChar: r
Encoding: 114 114 109
Width: 800
GlyphClass: 1
Flags: W
LayerCount: 2
Fore
SplineSet
600 500 m 1,0,-1
 600 400 l 1,1,-1
 700 400 l 1,2,-1
 700 300 l 1,3,-1
 500 300 l 1,4,-1
 500 400 l 1,5,-1
 300 400 l 1,6,-1
 300 0 l 1,7,-1
 100 0 l 1,8,-1
 100 500 l 1,9,-1
 600 500 l 1,0,-1
EndSplineSet
EndChar

StartChar: s
Encoding: 115 115 110
Width: 800
GlyphClass: 1
Flags: W
LayerCount: 2
Fore
SplineSet
200 300 m 1,0,-1
 100 300 l 1,1,-1
 100 400 l 1,2,-1
 200 400 l 1,3,-1
 200 500 l 1,4,-1
 600 500 l 1,5,-1
 600 400 l 1,6,-1
 300 400 l 1,7,-1
 300 300 l 1,8,-1
 600 300 l 1,9,-1
 600 200 l 1,10,-1
 700 200 l 1,11,-1
 700 100 l 1,12,-1
 600 100 l 1,13,-1
 600 0 l 1,14,-1
 200 0 l 1,15,-1
 200 100 l 1,16,-1
 500 100 l 1,17,-1
 500 200 l 1,18,-1
 200 200 l 1,19,-1
 200 300 l 1,0,-1
EndSplineSet
EndChar

StartChar: germandbls
Encoding: 223 223 112
Width: 800
GlyphClass: 1
Flags: W
LayerCount: 2
Fore
SplineSet
100 500 m 1,0,-1
 600 500 l 1,1,-1
 600 400 l 1,2,-1
 700 400 l 1,3,-1
 700 300 l 1,4,-1
 600 300 l 1,5,-1
 600 200 l 1,6,-1
 700 200 l 1,7,-1
 700 100 l 1,8,-1
 600 100 l 1,9,-1
 600 0 l 1,10,-1
 400 0 l 1,11,-1
 400 100 l 1,12,-1
 500 100 l 1,13,-1
 500 200 l 1,14,-1
 400 200 l 1,15,-1
 400 300 l 1,16,-1
 500 300 l 1,17,-1
 500 400 l 1,18,-1
 300 400 l 1,19,-1
 300 -100 l 1,20,-1
 100 -100 l 1,21,-1
 100 500 l 1,0,-1
EndSplineSet
EndChar

StartChar: t
Encoding: 116 116 113
Width: 800
GlyphClass: 1
Flags: W
LayerCount: 2
Fore
SplineSet
400 700 m 1,0,-1
 400 500 l 1,1,-1
 600 500 l 1,2,-1
 600 400 l 1,3,-1
 400 400 l 1,4,-1
 400 100 l 1,5,-1
 600 100 l 1,6,-1
 600 0 l 1,7,-1
 300 0 l 1,8,-1
 300 100 l 1,9,-1
 200 100 l 1,10,-1
 200 400 l 1,11,-1
 100 400 l 1,12,-1
 100 500 l 1,13,-1
 200 500 l 1,14,-1
 200 700 l 1,15,-1
 400 700 l 1,0,-1
EndSplineSet
EndChar

StartChar: u
Encoding: 117 117 114
Width: 800
GlyphClass: 1
Flags: W
LayerCount: 2
Fore
SplineSet
700 500 m 1,0,-1
 700 0 l 1,1,-1
 200 0 l 1,2,-1
 200 100 l 1,3,-1
 100 100 l 1,4,-1
 100 500 l 1,5,-1
 300 500 l 1,6,-1
 300 100 l 1,7,-1
 500 100 l 1,8,-1
 500 500 l 1,9,-1
 700 500 l 1,0,-1
EndSplineSet
EndChar

StartChar: uacute
Encoding: 250 250 115
Width: 800
GlyphClass: 1
Flags: W
LayerCount: 2
Fore
SplineSet
500 500 m 1,0,-1
 700 500 l 1,1,-1
 700 0 l 1,2,-1
 200 0 l 1,3,-1
 200 100 l 1,4,-1
 100 100 l 1,5,-1
 100 500 l 1,6,-1
 300 500 l 1,7,-1
 300 100 l 1,8,-1
 500 100 l 1,9,-1
 500 500 l 1,0,-1
300 600 m 1,10,-1
 400 600 l 1,11,-1
 400 500 l 1,12,-1
 300 500 l 1,13,-1
 300 600 l 1,10,-1
400 700 m 1,14,-1
 500 700 l 1,15,-1
 500 600 l 1,16,-1
 400 600 l 1,17,-1
 400 700 l 1,14,-1
EndSplineSet
EndChar

StartChar: v
Encoding: 118 118 119
Width: 800
GlyphClass: 1
Flags: W
LayerCount: 2
Fore
SplineSet
300 100 m 1,0,-1
 200 100 l 1,1,-1
 200 200 l 1,2,-1
 100 200 l 1,3,-1
 100 500 l 1,4,-1
 300 500 l 1,5,-1
 300 200 l 1,6,-1
 500 200 l 1,7,-1
 500 500 l 1,8,-1
 700 500 l 1,9,-1
 700 200 l 1,10,-1
 600 200 l 1,11,-1
 600 100 l 1,12,-1
 500 100 l 1,13,-1
 500 0 l 1,14,-1
 300 0 l 1,15,-1
 300 100 l 1,0,-1
EndSplineSet
EndChar

StartChar: w
Encoding: 119 119 120
Width: 800
GlyphClass: 1
Flags: W
LayerCount: 2
Fore
SplineSet
100 100 m 1,0,-1
 0 100 l 1,1,-1
 0 500 l 1,2,-1
 200 500 l 1,3,-1
 200 100 l 1,4,-1
 300 100 l 1,5,-1
 300 0 l 1,6,-1
 100 0 l 1,7,-1
 100 100 l 1,0,-1
300 300 m 1,8,-1
 400 300 l 1,9,-1
 400 100 l 1,10,-1
 300 100 l 1,11,-1
 300 300 l 1,8,-1
400 100 m 1,12,-1
 500 100 l 1,13,-1
 500 500 l 1,14,-1
 700 500 l 1,15,-1
 700 100 l 1,16,-1
 600 100 l 1,17,-1
 600 0 l 1,18,-1
 400 0 l 1,19,-1
 400 100 l 1,12,-1
EndSplineSet
EndChar

StartChar: x
Encoding: 120 120 121
Width: 800
GlyphClass: 1
Flags: W
LayerCount: 2
Fore
SplineSet
100 100 m 1,0,-1
 200 100 l 1,1,-1
 200 200 l 1,2,-1
 300 200 l 1,3,-1
 300 300 l 1,4,-1
 200 300 l 1,5,-1
 200 400 l 1,6,-1
 100 400 l 1,7,-1
 100 500 l 1,8,-1
 300 500 l 1,9,-1
 300 400 l 1,10,-1
 500 400 l 1,11,-1
 500 500 l 1,12,-1
 700 500 l 1,13,-1
 700 400 l 1,14,-1
 600 400 l 1,15,-1
 600 300 l 1,16,-1
 500 300 l 1,17,-1
 500 200 l 1,18,-1
 600 200 l 1,19,-1
 600 100 l 1,20,-1
 700 100 l 1,21,-1
 700 0 l 1,22,-1
 500 0 l 1,23,-1
 500 100 l 1,24,-1
 300 100 l 1,25,-1
 300 0 l 1,26,-1
 100 0 l 1,27,-1
 100 100 l 1,0,-1
EndSplineSet
EndChar

StartChar: y
Encoding: 121 121 122
Width: 800
GlyphClass: 1
Flags: W
LayerCount: 2
Fore
SplineSet
600 -100 m 1,0,-1
 200 -100 l 1,1,-1
 200 0 l 1,2,-1
 500 0 l 1,3,-1
 500 100 l 1,4,-1
 200 100 l 1,5,-1
 200 200 l 1,6,-1
 100 200 l 1,7,-1
 100 500 l 1,8,-1
 300 500 l 1,9,-1
 300 200 l 1,10,-1
 500 200 l 1,11,-1
 500 500 l 1,12,-1
 700 500 l 1,13,-1
 700 0 l 1,14,-1
 600 0 l 1,15,-1
 600 -100 l 1,0,-1
EndSplineSet
EndChar

StartChar: z
Encoding: 122 122 125
Width: 800
GlyphClass: 1
Flags: W
LayerCount: 2
Fore
SplineSet
100 500 m 1,0,-1
 700 500 l 1,1,-1
 700 400 l 1,2,-1
 600 400 l 1,3,-1
 600 300 l 1,4,-1
 500 300 l 1,5,-1
 500 200 l 1,6,-1
 400 200 l 1,7,-1
 400 100 l 1,8,-1
 700 100 l 1,9,-1
 700 0 l 1,10,-1
 100 0 l 1,11,-1
 100 100 l 1,12,-1
 200 100 l 1,13,-1
 200 200 l 1,14,-1
 300 200 l 1,15,-1
 300 300 l 1,16,-1
 400 300 l 1,17,-1
 400 400 l 1,18,-1
 100 400 l 1,19,-1
 100 500 l 1,0,-1
EndSplineSet
EndChar

StartChar: fi
Encoding: 64257 64257 127
Width: 800
GlyphClass: 3
Flags: W
LayerCount: 2
Fore
SplineSet
100 300 m 1,0,-1
 0 300 l 1,1,-1
 0 400 l 1,2,-1
 100 400 l 1,3,-1
 100 600 l 1,4,-1
 200 600 l 1,5,-1
 200 700 l 1,6,-1
 600 700 l 1,7,-1
 600 600 l 1,8,-1
 700 600 l 1,9,-1
 700 500 l 1,10,-1
 500 500 l 1,11,-1
 500 600 l 1,12,-1
 300 600 l 1,13,-1
 300 400 l 1,14,-1
 600 400 l 1,15,-1
 600 100 l 1,16,-1
 700 100 l 1,17,-1
 700 0 l 1,18,-1
 500 0 l 1,19,-1
 500 100 l 1,20,-1
 400 100 l 1,21,-1
 400 300 l 1,22,-1
 300 300 l 1,23,-1
 300 0 l 1,24,-1
 100 0 l 1,25,-1
 100 300 l 1,0,-1
EndSplineSet
EndChar

StartChar: fl
Encoding: 64258 64258 128
Width: 800
GlyphClass: 3
Flags: W
LayerCount: 2
Fore
SplineSet
100 300 m 1,0,-1
 0 300 l 1,1,-1
 0 400 l 1,2,-1
 100 400 l 1,3,-1
 100 600 l 1,4,-1
 200 600 l 1,5,-1
 200 700 l 1,6,-1
 600 700 l 1,7,-1
 600 600 l 1,8,-1
 700 600 l 1,9,-1
 700 0 l 1,10,-1
 500 0 l 1,11,-1
 500 600 l 1,12,-1
 300 600 l 1,13,-1
 300 400 l 1,14,-1
 400 400 l 1,15,-1
 400 300 l 1,16,-1
 300 300 l 1,17,-1
 300 0 l 1,18,-1
 100 0 l 1,19,-1
 100 300 l 1,0,-1
EndSplineSet
EndChar

StartChar: ordfeminine
Encoding: 170 170 129
Width: 800
GlyphClass: 1
Flags: W
LayerCount: 2
Fore
SplineSet
500 500 m 1,0,-1
 400 500 l 1,1,-1
 400 600 l 1,2,-1
 500 600 l 1,3,-1
 500 500 l 1,0,-1
500 500 m 1,4,-1
 600 500 l 1,5,-1
 600 600 l 1,6,-1
 500 600 l 1,7,-1
 500 700 l 1,8,-1
 700 700 l 1,9,-1
 700 400 l 1,10,-1
 500 400 l 1,11,-1
 500 500 l 1,4,-1
EndSplineSet
EndChar

StartChar: ordmasculine
Encoding: 186 186 130
Width: 800
GlyphClass: 1
Flags: W
LayerCount: 2
Fore
SplineSet
600 400 m 1,0,-1
 500 400 l 1,1,-1
 500 500 l 1,2,-1
 600 500 l 1,3,-1
 600 400 l 1,0,-1
400 600 m 1,4,-1
 500 600 l 1,5,-1
 500 500 l 1,6,-1
 400 500 l 1,7,-1
 400 600 l 1,4,-1
500 700 m 1,8,-1
 600 700 l 1,9,-1
 600 600 l 1,10,-1
 500 600 l 1,11,-1
 500 700 l 1,8,-1
600 600 m 1,12,-1
 700 600 l 1,13,-1
 700 500 l 1,14,-1
 600 500 l 1,15,-1
 600 600 l 1,12,-1
EndSplineSet
EndChar

StartChar: uni0394
Encoding: 916 916 131
Width: 800
GlyphClass: 1
Flags: W
LayerCount: 2
Fore
SplineSet
0 300 m 1,0,-1
 100 300 l 1,1,-1
 100 500 l 1,2,-1
 200 500 l 1,3,-1
 200 600 l 1,4,-1
 300 600 l 1,5,-1
 300 700 l 1,6,-1
 400 700 l 1,7,-1
 400 600 l 1,8,-1
 500 600 l 1,9,-1
 500 500 l 1,10,-1
 600 500 l 1,11,-1
 600 300 l 1,12,-1
 700 300 l 1,13,-1
 700 0 l 1,14,-1
 0 0 l 1,15,-1
 0 300 l 1,0,-1
500 100 m 1,16,-1
 500 300 l 1,17,-1
 400 300 l 1,18,-1
 400 500 l 1,19,-1
 300 500 l 1,20,-1
 300 300 l 1,21,-1
 200 300 l 1,22,-1
 200 100 l 1,23,-1
 500 100 l 1,16,-1
EndSplineSet
EndChar

StartChar: Sigma
Encoding: 931 931 132
Width: 800
VWidth: 0
GlyphClass: 1
Flags: W
LayerCount: 2
Fore
SplineSet
0 200 m 1,0,-1
 100 200 l 1,1,-1
 100 300 l 1,2,-1
 200 300 l 1,3,-1
 200 400 l 1,4,-1
 100 400 l 1,5,-1
 100 500 l 1,6,-1
 0 500 l 1,7,-1
 0 700 l 1,8,-1
 700 700 l 1,9,-1
 700 500 l 1,10,-1
 500 500 l 1,11,-1
 500 600 l 1,12,-1
 200 600 l 1,13,-1
 200 500 l 1,14,-1
 300 500 l 1,15,-1
 300 400 l 1,16,-1
 400 400 l 1,17,-1
 400 300 l 1,18,-1
 300 300 l 1,19,-1
 300 200 l 1,20,-1
 200 200 l 1,21,-1
 200 100 l 1,22,-1
 500 100 l 1,23,-1
 500 200 l 1,24,-1
 700 200 l 1,25,-1
 700 0 l 1,26,-1
 0 0 l 1,27,-1
 0 200 l 1,0,-1
EndSplineSet
EndChar

StartChar: uni03A9
Encoding: 937 937 133
Width: 800
GlyphClass: 1
Flags: W
LayerCount: 2
Fore
SplineSet
200 200 m 1,0,-1
 300 200 l 1,1,-1
 300 0 l 1,2,-1
 0 0 l 1,3,-1
 0 100 l 1,4,-1
 100 100 l 1,5,-1
 100 200 l 1,6,-1
 0 200 l 1,7,-1
 0 600 l 1,8,-1
 100 600 l 1,9,-1
 100 700 l 1,10,-1
 600 700 l 1,11,-1
 600 600 l 1,12,-1
 700 600 l 1,13,-1
 700 200 l 1,14,-1
 600 200 l 1,15,-1
 600 100 l 1,16,-1
 700 100 l 1,17,-1
 700 0 l 1,18,-1
 400 0 l 1,19,-1
 400 200 l 1,20,-1
 500 200 l 1,21,-1
 500 600 l 1,22,-1
 200 600 l 1,23,-1
 200 200 l 1,0,-1
EndSplineSet
EndChar

StartChar: alpha
Encoding: 945 945 134
Width: 800
VWidth: 0
GlyphClass: 1
Flags: W
LayerCount: 2
Fore
SplineSet
600 100 m 1,0,-1
 400 100 l 1,1,-1
 400 0 l 1,2,-1
 100 0 l 1,3,-1
 100 100 l 1,4,-1
 0 100 l 1,5,-1
 0 400 l 1,6,-1
 100 400 l 1,7,-1
 100 500 l 1,8,-1
 400 500 l 1,9,-1
 400 400 l 1,10,-1
 600 400 l 1,11,-1
 600 500 l 1,12,-1
 800 500 l 1,13,-1
 800 400 l 1,14,-1
 700 400 l 1,15,-1
 700 300 l 1,16,-1
 600 300 l 1,17,-1
 600 200 l 1,18,-1
 700 200 l 1,19,-1
 700 100 l 1,20,-1
 800 100 l 1,21,-1
 800 0 l 1,22,-1
 600 0 l 1,23,-1
 600 100 l 1,0,-1
300 100 m 1,24,-1
 300 200 l 1,25,-1
 400 200 l 1,26,-1
 400 300 l 1,27,-1
 300 300 l 1,28,-1
 300 400 l 1,29,-1
 200 400 l 1,30,-1
 200 100 l 1,31,-1
 300 100 l 1,24,-1
EndSplineSet
EndChar

StartChar: beta
Encoding: 946 946 135
Width: 800
VWidth: 0
GlyphClass: 1
Flags: W
LayerCount: 2
Fore
SplineSet
0 600 m 1,0,-1
 100 600 l 1,1,-1
 100 700 l 1,2,-1
 600 700 l 1,3,-1
 600 600 l 1,4,-1
 700 600 l 1,5,-1
 700 400 l 1,6,-1
 600 400 l 1,7,-1
 600 300 l 1,8,-1
 700 300 l 1,9,-1
 700 100 l 1,10,-1
 500 100 l 1,11,-1
 500 300 l 1,12,-1
 200 300 l 1,13,-1
 200 100 l 1,14,-1
 500 100 l 1,15,-1
 500 0 l 1,16,-1
 200 0 l 1,17,-1
 200 -100 l 1,18,-1
 0 -100 l 1,19,-1
 0 600 l 1,0,-1
500 400 m 1,20,-1
 500 600 l 1,21,-1
 200 600 l 1,22,-1
 200 400 l 1,23,-1
 500 400 l 1,20,-1
EndSplineSet
EndChar

StartChar: gamma
Encoding: 947 947 136
Width: 800
VWidth: 0
GlyphClass: 1
Flags: W
LayerCount: 2
Fore
SplineSet
200 100 m 1,0,-1
 100 100 l 1,1,-1
 100 300 l 1,2,-1
 200 300 l 1,3,-1
 200 400 l 1,4,-1
 100 400 l 1,5,-1
 100 600 l 1,6,-1
 300 600 l 1,7,-1
 300 400 l 1,8,-1
 500 400 l 1,9,-1
 500 600 l 1,10,-1
 700 600 l 1,11,-1
 700 400 l 1,12,-1
 600 400 l 1,13,-1
 600 300 l 1,14,-1
 700 300 l 1,15,-1
 700 100 l 1,16,-1
 600 100 l 1,17,-1
 600 0 l 1,18,-1
 200 0 l 1,19,-1
 200 100 l 1,0,-1
500 100 m 1,20,-1
 500 300 l 1,21,-1
 300 300 l 1,22,-1
 300 100 l 1,23,-1
 500 100 l 1,20,-1
EndSplineSet
EndChar

StartChar: delta
Encoding: 948 948 137
Width: 800
VWidth: 0
GlyphClass: 1
Flags: W
LayerCount: 2
Fore
SplineSet
200 100 m 1,0,-1
 100 100 l 1,1,-1
 100 300 l 1,2,-1
 200 300 l 1,3,-1
 200 400 l 1,4,-1
 100 400 l 1,5,-1
 100 600 l 1,6,-1
 200 600 l 1,7,-1
 200 700 l 1,8,-1
 600 700 l 1,9,-1
 600 600 l 1,10,-1
 300 600 l 1,11,-1
 300 400 l 1,12,-1
 600 400 l 1,13,-1
 600 300 l 1,14,-1
 700 300 l 1,15,-1
 700 100 l 1,16,-1
 600 100 l 1,17,-1
 600 0 l 1,18,-1
 200 0 l 1,19,-1
 200 100 l 1,0,-1
500 100 m 1,20,-1
 500 300 l 1,21,-1
 300 300 l 1,22,-1
 300 100 l 1,23,-1
 500 100 l 1,20,-1
EndSplineSet
EndChar

StartChar: epsilon
Encoding: 949 949 138
Width: 800
VWidth: 0
GlyphClass: 1
Flags: W
LayerCount: 2
Fore
SplineSet
300 100 m 1,0,-1
 200 100 l 1,1,-1
 200 200 l 1,2,-1
 100 200 l 1,3,-1
 100 300 l 1,4,-1
 200 300 l 1,5,-1
 200 400 l 1,6,-1
 300 400 l 1,7,-1
 300 500 l 1,8,-1
 700 500 l 1,9,-1
 700 400 l 1,10,-1
 400 400 l 1,11,-1
 400 300 l 1,12,-1
 600 300 l 1,13,-1
 600 200 l 1,14,-1
 400 200 l 1,15,-1
 400 100 l 1,16,-1
 700 100 l 1,17,-1
 700 0 l 1,18,-1
 300 0 l 1,19,-1
 300 100 l 1,0,-1
EndSplineSet
EndChar

StartChar: theta
Encoding: 952 952 139
Width: 800
VWidth: 0
GlyphClass: 1
Flags: W
LayerCount: 2
Fore
SplineSet
100 200 m 1,0,-1
 0 200 l 1,1,-1
 0 500 l 1,2,-1
 100 500 l 1,3,-1
 100 600 l 1,4,-1
 200 600 l 1,5,-1
 200 700 l 1,6,-1
 500 700 l 1,7,-1
 500 600 l 1,8,-1
 600 600 l 1,9,-1
 600 500 l 1,10,-1
 700 500 l 1,11,-1
 700 200 l 1,12,-1
 600 200 l 1,13,-1
 600 100 l 1,14,-1
 500 100 l 1,15,-1
 500 0 l 1,16,-1
 200 0 l 1,17,-1
 200 100 l 1,18,-1
 100 100 l 1,19,-1
 100 200 l 1,0,-1
300 200 m 1,20,-1
 300 100 l 1,21,-1
 400 100 l 1,22,-1
 400 200 l 1,23,-1
 500 200 l 1,24,-1
 500 300 l 1,25,-1
 200 300 l 1,26,-1
 200 200 l 1,27,-1
 300 200 l 1,20,-1
500 400 m 1,28,-1
 500 500 l 1,29,-1
 400 500 l 1,30,-1
 400 600 l 1,31,-1
 300 600 l 1,32,-1
 300 500 l 1,33,-1
 200 500 l 1,34,-1
 200 400 l 1,35,-1
 500 400 l 1,28,-1
EndSplineSet
EndChar

StartChar: lambda
Encoding: 955 955 140
Width: 800
VWidth: 0
GlyphClass: 1
Flags: W
LayerCount: 2
Fore
SplineSet
0 100 m 1,0,-1
 100 100 l 1,1,-1
 100 200 l 1,2,-1
 200 200 l 1,3,-1
 200 400 l 1,4,-1
 100 400 l 1,5,-1
 100 500 l 1,6,-1
 0 500 l 1,7,-1
 0 600 l 1,8,-1
 200 600 l 1,9,-1
 200 500 l 1,10,-1
 300 500 l 1,11,-1
 300 400 l 1,12,-1
 400 400 l 1,13,-1
 400 300 l 1,14,-1
 500 300 l 1,15,-1
 500 200 l 1,16,-1
 600 200 l 1,17,-1
 600 100 l 1,18,-1
 700 100 l 1,19,-1
 700 0 l 1,20,-1
 500 0 l 1,21,-1
 500 100 l 1,22,-1
 400 100 l 1,23,-1
 400 200 l 1,24,-1
 300 200 l 1,25,-1
 300 100 l 1,26,-1
 200 100 l 1,27,-1
 200 0 l 1,28,-1
 0 0 l 1,29,-1
 0 100 l 1,0,-1
EndSplineSet
EndChar

StartChar: uni03BC
Encoding: 956 956 141
Width: 800
VWidth: 0
GlyphClass: 1
Flags: W
LayerCount: 2
Fore
SplineSet
300 500 m 1,0,-1
 300 200 l 1,1,-1
 500 200 l 1,2,-1
 500 500 l 1,3,-1
 700 500 l 1,4,-1
 700 200 l 1,5,-1
 600 200 l 1,6,-1
 600 100 l 1,7,-1
 300 100 l 1,8,-1
 300 -100 l 1,9,-1
 100 -100 l 1,10,-1
 100 500 l 1,11,-1
 300 500 l 1,0,-1
EndSplineSet
EndChar

StartChar: pi
Encoding: 960 960 142
AltUni2: 00e0ff.ffffffff.0 00e0de.ffffffff.0 00e07e.ffffffff.0 00e0ff.ffffffff.0 00e0de.ffffffff.0 00e07e.ffffffff.0
Width: 800
GlyphClass: 1
Flags: W
LayerCount: 2
Fore
SplineSet
0 400 m 1,0,-1
 0 500 l 1,1,-1
 700 500 l 1,2,-1
 700 400 l 1,3,-1
 600 400 l 1,4,-1
 600 100 l 1,5,-1
 700 100 l 1,6,-1
 700 0 l 1,7,-1
 500 0 l 1,8,-1
 500 100 l 1,9,-1
 400 100 l 1,10,-1
 400 400 l 1,11,-1
 300 400 l 1,12,-1
 300 0 l 1,13,-1
 100 0 l 1,14,-1
 100 400 l 1,15,-1
 0 400 l 1,0,-1
EndSplineSet
EndChar

StartChar: sigma
Encoding: 963 963 143
Width: 800
VWidth: 0
GlyphClass: 1
Flags: W
LayerCount: 2
Fore
SplineSet
100 400 m 1,0,-1
 100 500 l 1,1,-1
 700 500 l 1,2,-1
 700 400 l 1,3,-1
 600 400 l 1,4,-1
 600 100 l 1,5,-1
 500 100 l 1,6,-1
 500 0 l 1,7,-1
 100 0 l 1,8,-1
 100 100 l 1,9,-1
 0 100 l 1,10,-1
 0 400 l 1,11,-1
 100 400 l 1,0,-1
400 100 m 1,12,-1
 400 400 l 1,13,-1
 200 400 l 1,14,-1
 200 100 l 1,15,-1
 400 100 l 1,12,-1
EndSplineSet
EndChar

StartChar: phi
Encoding: 966 966 144
Width: 800
VWidth: 0
GlyphClass: 1
Flags: W
LayerCount: 2
Fore
SplineSet
0 100 m 1,0,-1
 0 400 l 1,1,-1
 100 400 l 1,2,-1
 100 500 l 1,3,-1
 300 500 l 1,4,-1
 300 600 l 1,5,-1
 400 600 l 1,6,-1
 400 500 l 1,7,-1
 600 500 l 1,8,-1
 600 400 l 1,9,-1
 700 400 l 1,10,-1
 700 100 l 1,11,-1
 600 100 l 1,12,-1
 600 0 l 1,13,-1
 400 0 l 1,14,-1
 400 -100 l 1,15,-1
 300 -100 l 1,16,-1
 300 0 l 1,17,-1
 100 0 l 1,18,-1
 100 100 l 1,19,-1
 0 100 l 1,0,-1
300 100 m 1,20,-1
 300 400 l 1,21,-1
 200 400 l 1,22,-1
 200 100 l 1,23,-1
 300 100 l 1,20,-1
500 100 m 1,24,-1
 500 400 l 1,25,-1
 400 400 l 1,26,-1
 400 100 l 1,27,-1
 500 100 l 1,24,-1
EndSplineSet
EndChar

StartChar: chi
Encoding: 967 967 145
Width: 800
VWidth: 0
GlyphClass: 1
Flags: W
LayerCount: 2
Fore
SplineSet
0 200 m 1,0,-1
 200 200 l 1,1,-1
 200 300 l 1,2,-1
 300 300 l 1,3,-1
 300 400 l 1,4,-1
 200 400 l 1,5,-1
 200 500 l 1,6,-1
 0 500 l 1,7,-1
 0 600 l 1,8,-1
 300 600 l 1,9,-1
 300 500 l 1,10,-1
 500 500 l 1,11,-1
 500 600 l 1,12,-1
 700 600 l 1,13,-1
 700 500 l 1,14,-1
 600 500 l 1,15,-1
 600 400 l 1,16,-1
 500 400 l 1,17,-1
 500 200 l 1,18,-1
 600 200 l 1,19,-1
 600 100 l 1,20,-1
 800 100 l 1,21,-1
 800 0 l 1,22,-1
 500 0 l 1,23,-1
 500 100 l 1,24,-1
 400 100 l 1,25,-1
 400 200 l 1,26,-1
 300 200 l 1,27,-1
 300 100 l 1,28,-1
 200 100 l 1,29,-1
 200 0 l 1,30,-1
 100 0 l 1,31,-1
 100 100 l 1,32,-1
 0 100 l 1,33,-1
 0 200 l 1,0,-1
EndSplineSet
EndChar

StartChar: psi
Encoding: 968 968 146
Width: 800
VWidth: 0
GlyphClass: 1
Flags: W
LayerCount: 2
Fore
SplineSet
100 100 m 1,0,-1
 0 100 l 1,1,-1
 0 500 l 1,2,-1
 200 500 l 1,3,-1
 200 100 l 1,4,-1
 300 100 l 1,5,-1
 300 600 l 1,6,-1
 400 600 l 1,7,-1
 400 100 l 1,8,-1
 500 100 l 1,9,-1
 500 500 l 1,10,-1
 700 500 l 1,11,-1
 700 100 l 1,12,-1
 600 100 l 1,13,-1
 600 0 l 1,14,-1
 400 0 l 1,15,-1
 400 -100 l 1,16,-1
 300 -100 l 1,17,-1
 300 0 l 1,18,-1
 100 0 l 1,19,-1
 100 100 l 1,0,-1
EndSplineSet
EndChar

StartChar: omega
Encoding: 969 969 147
Width: 800
VWidth: 0
GlyphClass: 1
Flags: W
LayerCount: 2
Fore
SplineSet
100 100 m 1,0,-1
 0 100 l 1,1,-1
 0 400 l 1,2,-1
 100 400 l 1,3,-1
 100 500 l 1,4,-1
 300 500 l 1,5,-1
 300 400 l 1,6,-1
 200 400 l 1,7,-1
 200 100 l 1,8,-1
 300 100 l 1,9,-1
 300 300 l 1,10,-1
 500 300 l 1,11,-1
 500 100 l 1,12,-1
 600 100 l 1,13,-1
 600 400 l 1,14,-1
 500 400 l 1,15,-1
 500 500 l 1,16,-1
 700 500 l 1,17,-1
 700 400 l 1,18,-1
 800 400 l 1,19,-1
 800 100 l 1,20,-1
 700 100 l 1,21,-1
 700 0 l 1,22,-1
 100 0 l 1,23,-1
 100 100 l 1,0,-1
EndSplineSet
EndChar

StartChar: uni3042
Encoding: 12354 12354 148
Width: 800
GlyphClass: 1
Flags: W
LayerCount: 2
Fore
SplineSet
300 700 m 1,0,-1
 400 700 l 1,1,-1
 400 600 l 1,2,-1
 700 600 l 1,3,-1
 700 500 l 1,4,-1
 400 500 l 1,5,-1
 400 400 l 1,6,-1
 600 400 l 1,7,-1
 600 300 l 1,8,-1
 700 300 l 1,9,-1
 700 100 l 1,10,-1
 600 100 l 1,11,-1
 600 200 l 1,12,-1
 500 200 l 1,13,-1
 500 300 l 1,14,-1
 400 300 l 1,15,-1
 400 200 l 1,16,-1
 500 200 l 1,17,-1
 500 100 l 1,18,-1
 400 100 l 1,19,-1
 400 0 l 1,20,-1
 200 0 l 1,21,-1
 200 100 l 1,22,-1
 300 100 l 1,23,-1
 300 300 l 1,24,-1
 200 300 l 1,25,-1
 200 400 l 1,26,-1
 300 400 l 1,27,-1
 300 500 l 1,28,-1
 100 500 l 1,29,-1
 100 600 l 1,30,-1
 300 600 l 1,31,-1
 300 700 l 1,0,-1
100 300 m 1,32,-1
 200 300 l 1,33,-1
 200 100 l 1,34,-1
 100 100 l 1,35,-1
 100 300 l 1,32,-1
500 100 m 1,36,-1
 600 100 l 1,37,-1
 600 0 l 1,38,-1
 500 0 l 1,39,-1
 500 100 l 1,36,-1
EndSplineSet
EndChar

StartChar: uni3041
Encoding: 12353 12353 149
Width: 800
GlyphClass: 1
Flags: W
LayerCount: 2
Fore
SplineSet
300 600 m 1,0,-1
 400 600 l 1,1,-1
 400 500 l 1,2,-1
 600 500 l 1,3,-1
 600 400 l 1,4,-1
 400 400 l 1,5,-1
 400 300 l 1,6,-1
 500 300 l 1,7,-1
 500 200 l 1,8,-1
 600 200 l 1,9,-1
 600 0 l 1,10,-1
 500 0 l 1,11,-1
 500 100 l 1,12,-1
 400 100 l 1,13,-1
 400 0 l 1,14,-1
 200 0 l 1,15,-1
 200 100 l 1,16,-1
 300 100 l 1,17,-1
 300 200 l 1,18,-1
 200 200 l 1,19,-1
 200 300 l 1,20,-1
 300 300 l 1,21,-1
 300 400 l 1,22,-1
 200 400 l 1,23,-1
 200 500 l 1,24,-1
 300 500 l 1,25,-1
 300 600 l 1,0,-1
100 200 m 1,26,-1
 200 200 l 1,27,-1
 200 100 l 1,28,-1
 100 100 l 1,29,-1
 100 200 l 1,26,-1
EndSplineSet
EndChar

StartChar: uni3044
Encoding: 12356 12356 150
Width: 800
GlyphClass: 1
Flags: W
LayerCount: 2
Fore
SplineSet
500 600 m 1,0,-1
 600 600 l 1,1,-1
 600 500 l 1,2,-1
 500 500 l 1,3,-1
 500 600 l 1,0,-1
100 600 m 1,4,-1
 200 600 l 1,5,-1
 200 100 l 1,6,-1
 100 100 l 1,7,-1
 100 600 l 1,4,-1
200 100 m 1,8,-1
 300 100 l 1,9,-1
 300 0 l 1,10,-1
 200 0 l 1,11,-1
 200 100 l 1,8,-1
300 200 m 1,12,-1
 400 200 l 1,13,-1
 400 100 l 1,14,-1
 300 100 l 1,15,-1
 300 200 l 1,12,-1
600 500 m 1,16,-1
 700 500 l 1,17,-1
 700 0 l 1,18,-1
 600 0 l 1,19,-1
 600 500 l 1,16,-1
EndSplineSet
EndChar

StartChar: uni3043
Encoding: 12355 12355 151
Width: 800
GlyphClass: 1
Flags: W
LayerCount: 2
Fore
SplineSet
500 300 m 1,0,-1
 600 300 l 1,1,-1
 600 0 l 1,2,-1
 500 0 l 1,3,-1
 500 300 l 1,0,-1
100 400 m 1,4,-1
 200 400 l 1,5,-1
 200 100 l 1,6,-1
 100 100 l 1,7,-1
 100 400 l 1,4,-1
200 100 m 1,8,-1
 300 100 l 1,9,-1
 300 0 l 1,10,-1
 200 0 l 1,11,-1
 200 100 l 1,8,-1
400 400 m 1,12,-1
 500 400 l 1,13,-1
 500 300 l 1,14,-1
 400 300 l 1,15,-1
 400 400 l 1,12,-1
EndSplineSet
EndChar

StartChar: uni3046
Encoding: 12358 12358 152
Width: 800
GlyphClass: 1
Flags: W
LayerCount: 2
Fore
SplineSet
200 700 m 1,0,-1
 600 700 l 1,1,-1
 600 600 l 1,2,-1
 200 600 l 1,3,-1
 200 700 l 1,0,-1
100 500 m 1,4,-1
 600 500 l 1,5,-1
 600 400 l 1,6,-1
 100 400 l 1,7,-1
 100 500 l 1,4,-1
200 100 m 1,8,-1
 500 100 l 1,9,-1
 500 0 l 1,10,-1
 200 0 l 1,11,-1
 200 100 l 1,8,-1
500 200 m 1,12,-1
 600 200 l 1,13,-1
 600 100 l 1,14,-1
 500 100 l 1,15,-1
 500 200 l 1,12,-1
600 400 m 1,16,-1
 700 400 l 1,17,-1
 700 200 l 1,18,-1
 600 200 l 1,19,-1
 600 400 l 1,16,-1
EndSplineSet
EndChar

StartChar: uni3045
Encoding: 12357 12357 153
Width: 800
GlyphClass: 1
Flags: W
LayerCount: 2
Fore
SplineSet
100 300 m 1,0,-1
 500 300 l 1,1,-1
 500 200 l 1,2,-1
 100 200 l 1,3,-1
 100 300 l 1,0,-1
200 500 m 1,4,-1
 500 500 l 1,5,-1
 500 400 l 1,6,-1
 200 400 l 1,7,-1
 200 500 l 1,4,-1
300 100 m 1,8,-1
 500 100 l 1,9,-1
 500 0 l 1,10,-1
 300 0 l 1,11,-1
 300 100 l 1,8,-1
500 200 m 1,12,-1
 600 200 l 1,13,-1
 600 100 l 1,14,-1
 500 100 l 1,15,-1
 500 200 l 1,12,-1
EndSplineSet
EndChar

StartChar: uni3048
Encoding: 12360 12360 154
Width: 800
GlyphClass: 1
Flags: W
LayerCount: 2
Fore
SplineSet
200 700 m 1,0,-1
 600 700 l 1,1,-1
 600 600 l 1,2,-1
 200 600 l 1,3,-1
 200 700 l 1,0,-1
100 100 m 1,4,-1
 200 100 l 1,5,-1
 200 0 l 1,6,-1
 100 0 l 1,7,-1
 100 100 l 1,4,-1
100 500 m 1,8,-1
 600 500 l 1,9,-1
 600 300 l 1,10,-1
 500 300 l 1,11,-1
 500 400 l 1,12,-1
 100 400 l 1,13,-1
 100 500 l 1,8,-1
200 200 m 1,14,-1
 400 200 l 1,15,-1
 400 100 l 1,16,-1
 200 100 l 1,17,-1
 200 200 l 1,14,-1
400 300 m 1,18,-1
 500 300 l 1,19,-1
 500 200 l 1,20,-1
 400 200 l 1,21,-1
 400 300 l 1,18,-1
500 200 m 1,22,-1
 600 200 l 1,23,-1
 600 100 l 1,24,-1
 700 100 l 1,25,-1
 700 0 l 1,26,-1
 500 0 l 1,27,-1
 500 200 l 1,22,-1
EndSplineSet
EndChar

StartChar: uni3047
Encoding: 12359 12359 155
Width: 800
GlyphClass: 1
Flags: W
LayerCount: 2
Fore
SplineSet
200 500 m 1,0,-1
 500 500 l 1,1,-1
 500 400 l 1,2,-1
 200 400 l 1,3,-1
 200 500 l 1,0,-1
200 100 m 1,4,-1
 400 100 l 1,5,-1
 400 0 l 1,6,-1
 200 0 l 1,7,-1
 200 100 l 1,4,-1
200 300 m 1,8,-1
 600 300 l 1,9,-1
 600 200 l 1,10,-1
 500 200 l 1,11,-1
 500 100 l 1,12,-1
 400 100 l 1,13,-1
 400 200 l 1,14,-1
 200 200 l 1,15,-1
 200 300 l 1,8,-1
500 100 m 1,16,-1
 600 100 l 1,17,-1
 600 0 l 1,18,-1
 500 0 l 1,19,-1
 500 100 l 1,16,-1
EndSplineSet
EndChar

StartChar: uni304A
Encoding: 12362 12362 156
Width: 800
GlyphClass: 1
Flags: W
LayerCount: 2
Fore
SplineSet
0 600 m 1,0,-1
 200 600 l 1,1,-1
 200 700 l 1,2,-1
 300 700 l 1,3,-1
 300 600 l 1,4,-1
 500 600 l 1,5,-1
 500 500 l 1,6,-1
 300 500 l 1,7,-1
 300 400 l 1,8,-1
 500 400 l 1,9,-1
 500 300 l 1,10,-1
 300 300 l 1,11,-1
 300 0 l 1,12,-1
 100 0 l 1,13,-1
 100 100 l 1,14,-1
 200 100 l 1,15,-1
 200 300 l 1,16,-1
 100 300 l 1,17,-1
 100 400 l 1,18,-1
 200 400 l 1,19,-1
 200 500 l 1,20,-1
 0 500 l 1,21,-1
 0 600 l 1,0,-1
0 300 m 1,22,-1
 100 300 l 1,23,-1
 100 100 l 1,24,-1
 0 100 l 1,25,-1
 0 300 l 1,22,-1
400 100 m 1,26,-1
 500 100 l 1,27,-1
 500 0 l 1,28,-1
 400 0 l 1,29,-1
 400 100 l 1,26,-1
500 300 m 1,30,-1
 600 300 l 1,31,-1
 600 100 l 1,32,-1
 500 100 l 1,33,-1
 500 300 l 1,30,-1
600 600 m 1,34,-1
 700 600 l 1,35,-1
 700 400 l 1,36,-1
 600 400 l 1,37,-1
 600 600 l 1,34,-1
EndSplineSet
EndChar

StartChar: uni3049
Encoding: 12361 12361 157
Width: 800
GlyphClass: 1
Flags: W
LayerCount: 2
Fore
SplineSet
200 400 m 1,0,-1
 100 400 l 1,1,-1
 100 500 l 1,2,-1
 200 500 l 1,3,-1
 200 600 l 1,4,-1
 300 600 l 1,5,-1
 300 500 l 1,6,-1
 400 500 l 1,7,-1
 400 400 l 1,8,-1
 300 400 l 1,9,-1
 300 300 l 1,10,-1
 400 300 l 1,11,-1
 400 200 l 1,12,-1
 300 200 l 1,13,-1
 300 0 l 1,14,-1
 100 0 l 1,15,-1
 100 100 l 1,16,-1
 200 100 l 1,17,-1
 200 200 l 1,18,-1
 100 200 l 1,19,-1
 100 300 l 1,20,-1
 200 300 l 1,21,-1
 200 400 l 1,0,-1
0 200 m 1,22,-1
 100 200 l 1,23,-1
 100 100 l 1,24,-1
 0 100 l 1,25,-1
 0 200 l 1,22,-1
400 200 m 1,26,-1
 500 200 l 1,27,-1
 500 0 l 1,28,-1
 400 0 l 1,29,-1
 400 200 l 1,26,-1
500 500 m 1,30,-1
 600 500 l 1,31,-1
 600 300 l 1,32,-1
 500 300 l 1,33,-1
 500 500 l 1,30,-1
EndSplineSet
EndChar

StartChar: uni304B
Encoding: 12363 12363 158
Width: 800
GlyphClass: 1
Flags: W
LayerCount: 2
Fore
SplineSet
200 300 m 1,0,-1
 200 0 l 1,1,-1
 100 0 l 1,2,-1
 100 300 l 1,3,-1
 200 300 l 1,0,-1
100 600 m 1,4,-1
 200 600 l 1,5,-1
 200 700 l 1,6,-1
 300 700 l 1,7,-1
 300 600 l 1,8,-1
 500 600 l 1,9,-1
 500 100 l 1,10,-1
 400 100 l 1,11,-1
 400 500 l 1,12,-1
 300 500 l 1,13,-1
 300 300 l 1,14,-1
 200 300 l 1,15,-1
 200 500 l 1,16,-1
 100 500 l 1,17,-1
 100 600 l 1,4,-1
300 100 m 1,18,-1
 400 100 l 1,19,-1
 400 0 l 1,20,-1
 300 0 l 1,21,-1
 300 100 l 1,18,-1
600 500 m 1,22,-1
 700 500 l 1,23,-1
 700 200 l 1,24,-1
 600 200 l 1,25,-1
 600 500 l 1,22,-1
EndSplineSet
EndChar

StartChar: uni304C
Encoding: 12364 12364 159
Width: 800
GlyphClass: 1
Flags: W
LayerCount: 2
Fore
SplineSet
100 400 m 1,0,-1
 300 400 l 1,1,-1
 300 500 l 1,2,-1
 400 500 l 1,3,-1
 400 400 l 1,4,-1
 500 400 l 1,5,-1
 500 100 l 1,6,-1
 400 100 l 1,7,-1
 400 300 l 1,8,-1
 300 300 l 1,9,-1
 300 200 l 1,10,-1
 200 200 l 1,11,-1
 200 300 l 1,12,-1
 100 300 l 1,13,-1
 100 400 l 1,0,-1
100 200 m 1,14,-1
 200 200 l 1,15,-1
 200 0 l 1,16,-1
 100 0 l 1,17,-1
 100 200 l 1,14,-1
300 100 m 1,18,-1
 400 100 l 1,19,-1
 400 0 l 1,20,-1
 300 0 l 1,21,-1
 300 100 l 1,18,-1
600 400 m 1,22,-1
 700 400 l 1,23,-1
 700 200 l 1,24,-1
 600 200 l 1,25,-1
 600 400 l 1,22,-1
EndSplineSet
EndChar

StartChar: uni304D
Encoding: 12365 12365 160
Width: 800
GlyphClass: 1
Flags: W
LayerCount: 2
Fore
SplineSet
100 600 m 1,0,-1
 300 600 l 1,1,-1
 300 700 l 1,2,-1
 400 700 l 1,3,-1
 400 600 l 1,4,-1
 600 600 l 1,5,-1
 600 500 l 1,6,-1
 400 500 l 1,7,-1
 400 400 l 1,8,-1
 600 400 l 1,9,-1
 600 300 l 1,10,-1
 500 300 l 1,11,-1
 500 200 l 1,12,-1
 300 200 l 1,13,-1
 300 300 l 1,14,-1
 100 300 l 1,15,-1
 100 400 l 1,16,-1
 300 400 l 1,17,-1
 300 500 l 1,18,-1
 100 500 l 1,19,-1
 100 600 l 1,0,-1
200 200 m 1,20,-1
 300 200 l 1,21,-1
 300 100 l 1,22,-1
 200 100 l 1,23,-1
 200 200 l 1,20,-1
300 100 m 1,24,-1
 600 100 l 1,25,-1
 600 0 l 1,26,-1
 300 0 l 1,27,-1
 300 100 l 1,24,-1
EndSplineSet
EndChar

StartChar: uni304E
Encoding: 12366 12366 161
Width: 800
GlyphClass: 1
Flags: W
LayerCount: 2
Fore
SplineSet
0 600 m 1,0,-1
 100 600 l 1,1,-1
 100 700 l 1,2,-1
 200 700 l 1,3,-1
 200 600 l 1,4,-1
 300 600 l 1,5,-1
 300 500 l 1,6,-1
 200 500 l 1,7,-1
 200 400 l 1,8,-1
 400 400 l 1,9,-1
 400 300 l 1,10,-1
 300 300 l 1,11,-1
 300 200 l 1,12,-1
 100 200 l 1,13,-1
 100 300 l 1,14,-1
 0 300 l 1,15,-1
 0 400 l 1,16,-1
 100 400 l 1,17,-1
 100 500 l 1,18,-1
 0 500 l 1,19,-1
 0 600 l 1,0,-1
0 200 m 1,20,-1
 100 200 l 1,21,-1
 100 100 l 1,22,-1
 0 100 l 1,23,-1
 0 200 l 1,20,-1
100 100 m 1,24,-1
 400 100 l 1,25,-1
 400 0 l 1,26,-1
 100 0 l 1,27,-1
 100 100 l 1,24,-1
400 700 m 1,28,-1
 500 700 l 1,29,-1
 500 500 l 1,30,-1
 400 500 l 1,31,-1
 400 700 l 1,28,-1
600 700 m 1,32,-1
 700 700 l 1,33,-1
 700 500 l 1,34,-1
 600 500 l 1,35,-1
 600 700 l 1,32,-1
EndSplineSet
EndChar

StartChar: uni304F
Encoding: 12367 12367 162
Width: 800
GlyphClass: 1
Flags: W
LayerCount: 2
Fore
SplineSet
400 400 m 1,0,-1
 200 400 l 1,1,-1
 200 500 l 1,2,-1
 400 500 l 1,3,-1
 400 400 l 1,0,-1
100 400 m 1,4,-1
 200 400 l 1,5,-1
 200 300 l 1,6,-1
 100 300 l 1,7,-1
 100 400 l 1,4,-1
200 300 m 1,8,-1
 400 300 l 1,9,-1
 400 200 l 1,10,-1
 200 200 l 1,11,-1
 200 300 l 1,8,-1
400 200 m 1,12,-1
 500 200 l 1,13,-1
 500 100 l 1,14,-1
 400 100 l 1,15,-1
 400 200 l 1,12,-1
400 600 m 1,16,-1
 500 600 l 1,17,-1
 500 500 l 1,18,-1
 400 500 l 1,19,-1
 400 600 l 1,16,-1
500 100 m 1,20,-1
 600 100 l 1,21,-1
 600 0 l 1,22,-1
 500 0 l 1,23,-1
 500 100 l 1,20,-1
500 700 m 1,24,-1
 600 700 l 1,25,-1
 600 600 l 1,26,-1
 500 600 l 1,27,-1
 500 700 l 1,24,-1
EndSplineSet
EndChar

StartChar: uni3050
Encoding: 12368 12368 163
Width: 800
GlyphClass: 1
Flags: W
LayerCount: 2
Fore
SplineSet
200 400 m 1,0,-1
 100 400 l 1,1,-1
 100 500 l 1,2,-1
 200 500 l 1,3,-1
 200 400 l 1,0,-1
0 400 m 1,4,-1
 100 400 l 1,5,-1
 100 300 l 1,6,-1
 0 300 l 1,7,-1
 0 400 l 1,4,-1
100 300 m 1,8,-1
 200 300 l 1,9,-1
 200 200 l 1,10,-1
 100 200 l 1,11,-1
 100 300 l 1,8,-1
200 200 m 1,12,-1
 300 200 l 1,13,-1
 300 100 l 1,14,-1
 200 100 l 1,15,-1
 200 200 l 1,12,-1
200 600 m 1,16,-1
 300 600 l 1,17,-1
 300 500 l 1,18,-1
 200 500 l 1,19,-1
 200 600 l 1,16,-1
300 100 m 1,20,-1
 400 100 l 1,21,-1
 400 0 l 1,22,-1
 300 0 l 1,23,-1
 300 100 l 1,20,-1
400 700 m 1,24,-1
 500 700 l 1,25,-1
 500 500 l 1,26,-1
 400 500 l 1,27,-1
 400 700 l 1,24,-1
600 700 m 1,28,-1
 700 700 l 1,29,-1
 700 500 l 1,30,-1
 600 500 l 1,31,-1
 600 700 l 1,28,-1
EndSplineSet
EndChar

StartChar: uni3051
Encoding: 12369 12369 164
Width: 800
GlyphClass: 1
Flags: W
LayerCount: 2
Fore
SplineSet
500 700 m 1,0,-1
 600 700 l 1,1,-1
 600 600 l 1,2,-1
 700 600 l 1,3,-1
 700 500 l 1,4,-1
 600 500 l 1,5,-1
 600 100 l 1,6,-1
 500 100 l 1,7,-1
 500 500 l 1,8,-1
 300 500 l 1,9,-1
 300 600 l 1,10,-1
 500 600 l 1,11,-1
 500 700 l 1,0,-1
100 600 m 1,12,-1
 200 600 l 1,13,-1
 200 100 l 1,14,-1
 100 100 l 1,15,-1
 100 600 l 1,12,-1
400 100 m 1,16,-1
 500 100 l 1,17,-1
 500 0 l 1,18,-1
 400 0 l 1,19,-1
 400 100 l 1,16,-1
EndSplineSet
EndChar

StartChar: uni3052
Encoding: 12370 12370 165
Width: 800
GlyphClass: 1
Flags: W
LayerCount: 2
Fore
SplineSet
100 600 m 1,0,-1
 100 100 l 1,1,-1
 0 100 l 1,2,-1
 0 600 l 1,3,-1
 100 600 l 1,0,-1
200 100 m 1,4,-1
 300 100 l 1,5,-1
 300 0 l 1,6,-1
 200 0 l 1,7,-1
 200 100 l 1,4,-1
200 500 m 1,8,-1
 300 500 l 1,9,-1
 300 700 l 1,10,-1
 400 700 l 1,11,-1
 400 500 l 1,12,-1
 500 500 l 1,13,-1
 500 400 l 1,14,-1
 400 400 l 1,15,-1
 400 100 l 1,16,-1
 300 100 l 1,17,-1
 300 400 l 1,18,-1
 200 400 l 1,19,-1
 200 500 l 1,8,-1
500 700 m 1,20,-1
 600 700 l 1,21,-1
 600 500 l 1,22,-1
 500 500 l 1,23,-1
 500 700 l 1,20,-1
700 700 m 1,24,-1
 800 700 l 1,25,-1
 800 500 l 1,26,-1
 700 500 l 1,27,-1
 700 700 l 1,24,-1
EndSplineSet
EndChar

StartChar: uni3053
Encoding: 12371 12371 166
Width: 800
GlyphClass: 1
Flags: W
LayerCount: 2
Fore
SplineSet
200 100 m 1,0,-1
 600 100 l 1,1,-1
 600 0 l 1,2,-1
 200 0 l 1,3,-1
 200 100 l 1,0,-1
100 300 m 1,4,-1
 200 300 l 1,5,-1
 200 100 l 1,6,-1
 100 100 l 1,7,-1
 100 300 l 1,4,-1
100 700 m 1,8,-1
 600 700 l 1,9,-1
 600 500 l 1,10,-1
 500 500 l 1,11,-1
 500 600 l 1,12,-1
 100 600 l 1,13,-1
 100 700 l 1,8,-1
200 400 m 1,14,-1
 300 400 l 1,15,-1
 300 300 l 1,16,-1
 200 300 l 1,17,-1
 200 400 l 1,14,-1
400 500 m 1,18,-1
 500 500 l 1,19,-1
 500 400 l 1,20,-1
 400 400 l 1,21,-1
 400 500 l 1,18,-1
600 200 m 1,22,-1
 700 200 l 1,23,-1
 700 100 l 1,24,-1
 600 100 l 1,25,-1
 600 200 l 1,22,-1
EndSplineSet
EndChar

StartChar: uni3054
Encoding: 12372 12372 167
Width: 800
GlyphClass: 1
Flags: W
LayerCount: 2
Fore
SplineSet
100 100 m 1,0,-1
 500 100 l 1,1,-1
 500 0 l 1,2,-1
 100 0 l 1,3,-1
 100 100 l 1,0,-1
0 300 m 1,4,-1
 100 300 l 1,5,-1
 100 100 l 1,6,-1
 0 100 l 1,7,-1
 0 300 l 1,4,-1
0 700 m 1,8,-1
 300 700 l 1,9,-1
 300 500 l 1,10,-1
 200 500 l 1,11,-1
 200 600 l 1,12,-1
 0 600 l 1,13,-1
 0 700 l 1,8,-1
100 400 m 1,14,-1
 200 400 l 1,15,-1
 200 300 l 1,16,-1
 100 300 l 1,17,-1
 100 400 l 1,14,-1
400 700 m 1,18,-1
 500 700 l 1,19,-1
 500 500 l 1,20,-1
 400 500 l 1,21,-1
 400 700 l 1,18,-1
500 200 m 1,22,-1
 600 200 l 1,23,-1
 600 100 l 1,24,-1
 500 100 l 1,25,-1
 500 200 l 1,22,-1
600 700 m 1,26,-1
 700 700 l 1,27,-1
 700 500 l 1,28,-1
 600 500 l 1,29,-1
 600 700 l 1,26,-1
EndSplineSet
EndChar

StartChar: uni3055
Encoding: 12373 12373 168
Width: 800
GlyphClass: 1
Flags: W
LayerCount: 2
Fore
SplineSet
100 600 m 1,0,-1
 300 600 l 1,1,-1
 300 700 l 1,2,-1
 400 700 l 1,3,-1
 400 600 l 1,4,-1
 700 600 l 1,5,-1
 700 500 l 1,6,-1
 500 500 l 1,7,-1
 500 400 l 1,8,-1
 600 400 l 1,9,-1
 600 300 l 1,10,-1
 200 300 l 1,11,-1
 200 400 l 1,12,-1
 400 400 l 1,13,-1
 400 500 l 1,14,-1
 100 500 l 1,15,-1
 100 600 l 1,0,-1
100 300 m 1,16,-1
 200 300 l 1,17,-1
 200 100 l 1,18,-1
 100 100 l 1,19,-1
 100 300 l 1,16,-1
200 100 m 1,20,-1
 600 100 l 1,21,-1
 600 0 l 1,22,-1
 200 0 l 1,23,-1
 200 100 l 1,20,-1
600 300 m 1,24,-1
 700 300 l 1,25,-1
 700 200 l 1,26,-1
 600 200 l 1,27,-1
 600 300 l 1,24,-1
EndSplineSet
EndChar

StartChar: uni3056
Encoding: 12374 12374 169
Width: 800
GlyphClass: 1
Flags: W
LayerCount: 2
Fore
SplineSet
0 600 m 1,0,-1
 100 600 l 1,1,-1
 100 700 l 1,2,-1
 200 700 l 1,3,-1
 200 600 l 1,4,-1
 400 600 l 1,5,-1
 400 700 l 1,6,-1
 500 700 l 1,7,-1
 500 500 l 1,8,-1
 300 500 l 1,9,-1
 300 400 l 1,10,-1
 500 400 l 1,11,-1
 500 300 l 1,12,-1
 100 300 l 1,13,-1
 100 400 l 1,14,-1
 200 400 l 1,15,-1
 200 500 l 1,16,-1
 0 500 l 1,17,-1
 0 600 l 1,0,-1
0 300 m 1,18,-1
 100 300 l 1,19,-1
 100 100 l 1,20,-1
 0 100 l 1,21,-1
 0 300 l 1,18,-1
100 100 m 1,22,-1
 500 100 l 1,23,-1
 500 0 l 1,24,-1
 100 0 l 1,25,-1
 100 100 l 1,22,-1
500 300 m 1,26,-1
 600 300 l 1,27,-1
 600 200 l 1,28,-1
 500 200 l 1,29,-1
 500 300 l 1,26,-1
600 700 m 1,30,-1
 700 700 l 1,31,-1
 700 500 l 1,32,-1
 600 500 l 1,33,-1
 600 700 l 1,30,-1
EndSplineSet
EndChar

StartChar: uni3057
Encoding: 12375 12375 170
Width: 800
GlyphClass: 1
Flags: W
LayerCount: 2
Fore
SplineSet
200 700 m 1,0,-1
 200 100 l 1,1,-1
 100 100 l 1,2,-1
 100 700 l 1,3,-1
 200 700 l 1,0,-1
200 100 m 1,4,-1
 500 100 l 1,5,-1
 500 0 l 1,6,-1
 200 0 l 1,7,-1
 200 100 l 1,4,-1
500 200 m 1,8,-1
 600 200 l 1,9,-1
 600 100 l 1,10,-1
 500 100 l 1,11,-1
 500 200 l 1,8,-1
600 300 m 1,12,-1
 700 300 l 1,13,-1
 700 200 l 1,14,-1
 600 200 l 1,15,-1
 600 300 l 1,12,-1
EndSplineSet
EndChar

StartChar: uni3058
Encoding: 12376 12376 171
Width: 800
GlyphClass: 1
Flags: W
LayerCount: 2
Fore
SplineSet
100 700 m 1,0,-1
 100 100 l 1,1,-1
 0 100 l 1,2,-1
 0 700 l 1,3,-1
 100 700 l 1,0,-1
100 100 m 1,4,-1
 400 100 l 1,5,-1
 400 0 l 1,6,-1
 100 0 l 1,7,-1
 100 100 l 1,4,-1
400 200 m 1,8,-1
 500 200 l 1,9,-1
 500 100 l 1,10,-1
 400 100 l 1,11,-1
 400 200 l 1,8,-1
400 700 m 1,12,-1
 500 700 l 1,13,-1
 500 500 l 1,14,-1
 400 500 l 1,15,-1
 400 700 l 1,12,-1
500 300 m 1,16,-1
 600 300 l 1,17,-1
 600 200 l 1,18,-1
 500 200 l 1,19,-1
 500 300 l 1,16,-1
600 700 m 1,20,-1
 700 700 l 1,21,-1
 700 500 l 1,22,-1
 600 500 l 1,23,-1
 600 700 l 1,20,-1
EndSplineSet
EndChar

StartChar: uni3059
Encoding: 12377 12377 172
Width: 800
GlyphClass: 1
Flags: W
LayerCount: 2
Fore
SplineSet
100 600 m 1,0,-1
 400 600 l 1,1,-1
 400 700 l 1,2,-1
 500 700 l 1,3,-1
 500 600 l 1,4,-1
 700 600 l 1,5,-1
 700 500 l 1,6,-1
 500 500 l 1,7,-1
 500 100 l 1,8,-1
 400 100 l 1,9,-1
 400 0 l 1,10,-1
 100 0 l 1,11,-1
 100 100 l 1,12,-1
 300 100 l 1,13,-1
 300 200 l 1,14,-1
 400 200 l 1,15,-1
 400 300 l 1,16,-1
 300 300 l 1,17,-1
 300 400 l 1,18,-1
 400 400 l 1,19,-1
 400 500 l 1,20,-1
 100 500 l 1,21,-1
 100 600 l 1,0,-1
200 300 m 1,22,-1
 300 300 l 1,23,-1
 300 200 l 1,24,-1
 200 200 l 1,25,-1
 200 300 l 1,22,-1
EndSplineSet
EndChar

StartChar: uni305A
Encoding: 12378 12378 173
Width: 800
GlyphClass: 1
Flags: W
LayerCount: 2
Fore
SplineSet
0 600 m 1,0,-1
 200 600 l 1,1,-1
 200 700 l 1,2,-1
 300 700 l 1,3,-1
 300 600 l 1,4,-1
 400 600 l 1,5,-1
 400 500 l 1,6,-1
 300 500 l 1,7,-1
 300 100 l 1,8,-1
 200 100 l 1,9,-1
 200 0 l 1,10,-1
 0 0 l 1,11,-1
 0 100 l 1,12,-1
 100 100 l 1,13,-1
 100 200 l 1,14,-1
 200 200 l 1,15,-1
 200 300 l 1,16,-1
 100 300 l 1,17,-1
 100 400 l 1,18,-1
 200 400 l 1,19,-1
 200 500 l 1,20,-1
 0 500 l 1,21,-1
 0 600 l 1,0,-1
0 300 m 1,22,-1
 100 300 l 1,23,-1
 100 200 l 1,24,-1
 0 200 l 1,25,-1
 0 300 l 1,22,-1
500 700 m 1,26,-1
 600 700 l 1,27,-1
 600 500 l 1,28,-1
 500 500 l 1,29,-1
 500 700 l 1,26,-1
700 700 m 1,30,-1
 800 700 l 1,31,-1
 800 500 l 1,32,-1
 700 500 l 1,33,-1
 700 700 l 1,30,-1
EndSplineSet
EndChar

StartChar: uni305B
Encoding: 12379 12379 174
Width: 800
GlyphClass: 1
Flags: W
LayerCount: 2
Fore
SplineSet
100 500 m 1,0,-1
 200 500 l 1,1,-1
 200 600 l 1,2,-1
 300 600 l 1,3,-1
 300 500 l 1,4,-1
 500 500 l 1,5,-1
 500 600 l 1,6,-1
 600 600 l 1,7,-1
 600 500 l 1,8,-1
 700 500 l 1,9,-1
 700 400 l 1,10,-1
 600 400 l 1,11,-1
 600 200 l 1,12,-1
 400 200 l 1,13,-1
 400 300 l 1,14,-1
 500 300 l 1,15,-1
 500 400 l 1,16,-1
 300 400 l 1,17,-1
 300 100 l 1,18,-1
 200 100 l 1,19,-1
 200 400 l 1,20,-1
 100 400 l 1,21,-1
 100 500 l 1,0,-1
300 100 m 1,22,-1
 600 100 l 1,23,-1
 600 0 l 1,24,-1
 300 0 l 1,25,-1
 300 100 l 1,22,-1
EndSplineSet
EndChar

StartChar: uni305C
Encoding: 12380 12380 175
Width: 800
GlyphClass: 1
Flags: W
LayerCount: 2
Fore
SplineSet
0 500 m 1,0,-1
 100 500 l 1,1,-1
 100 600 l 1,2,-1
 200 600 l 1,3,-1
 200 500 l 1,4,-1
 300 500 l 1,5,-1
 300 600 l 1,6,-1
 400 600 l 1,7,-1
 400 500 l 1,8,-1
 500 500 l 1,9,-1
 500 400 l 1,10,-1
 400 400 l 1,11,-1
 400 200 l 1,12,-1
 300 200 l 1,13,-1
 300 400 l 1,14,-1
 200 400 l 1,15,-1
 200 100 l 1,16,-1
 100 100 l 1,17,-1
 100 400 l 1,18,-1
 0 400 l 1,19,-1
 0 500 l 1,0,-1
200 100 m 1,20,-1
 400 100 l 1,21,-1
 400 0 l 1,22,-1
 200 0 l 1,23,-1
 200 100 l 1,20,-1
500 700 m 1,24,-1
 600 700 l 1,25,-1
 600 500 l 1,26,-1
 500 500 l 1,27,-1
 500 700 l 1,24,-1
700 700 m 1,28,-1
 800 700 l 1,29,-1
 800 500 l 1,30,-1
 700 500 l 1,31,-1
 700 700 l 1,28,-1
EndSplineSet
EndChar

StartChar: uni305D
Encoding: 12381 12381 176
Width: 800
GlyphClass: 1
Flags: W
LayerCount: 2
Fore
SplineSet
200 700 m 1,0,-1
 700 700 l 1,1,-1
 700 600 l 1,2,-1
 600 600 l 1,3,-1
 600 500 l 1,4,-1
 700 500 l 1,5,-1
 700 400 l 1,6,-1
 600 400 l 1,7,-1
 600 300 l 1,8,-1
 400 300 l 1,9,-1
 400 400 l 1,10,-1
 100 400 l 1,11,-1
 100 500 l 1,12,-1
 400 500 l 1,13,-1
 400 600 l 1,14,-1
 200 600 l 1,15,-1
 200 700 l 1,0,-1
300 300 m 1,16,-1
 400 300 l 1,17,-1
 400 100 l 1,18,-1
 300 100 l 1,19,-1
 300 300 l 1,16,-1
400 100 m 1,20,-1
 700 100 l 1,21,-1
 700 0 l 1,22,-1
 400 0 l 1,23,-1
 400 100 l 1,20,-1
EndSplineSet
EndChar

StartChar: uni305E
Encoding: 12382 12382 177
Width: 800
GlyphClass: 1
Flags: W
LayerCount: 2
Fore
SplineSet
0 700 m 1,0,-1
 400 700 l 1,1,-1
 400 600 l 1,2,-1
 300 600 l 1,3,-1
 300 500 l 1,4,-1
 400 500 l 1,5,-1
 400 400 l 1,6,-1
 300 400 l 1,7,-1
 300 300 l 1,8,-1
 100 300 l 1,9,-1
 100 400 l 1,10,-1
 0 400 l 1,11,-1
 0 500 l 1,12,-1
 100 500 l 1,13,-1
 100 600 l 1,14,-1
 0 600 l 1,15,-1
 0 700 l 1,0,-1
0 300 m 1,16,-1
 100 300 l 1,17,-1
 100 100 l 1,18,-1
 0 100 l 1,19,-1
 0 300 l 1,16,-1
100 100 m 1,20,-1
 400 100 l 1,21,-1
 400 0 l 1,22,-1
 100 0 l 1,23,-1
 100 100 l 1,20,-1
500 700 m 1,24,-1
 600 700 l 1,25,-1
 600 500 l 1,26,-1
 500 500 l 1,27,-1
 500 700 l 1,24,-1
700 700 m 1,28,-1
 800 700 l 1,29,-1
 800 500 l 1,30,-1
 700 500 l 1,31,-1
 700 700 l 1,28,-1
EndSplineSet
EndChar

StartChar: uni305F
Encoding: 12383 12383 178
Width: 800
GlyphClass: 1
Flags: W
LayerCount: 2
Fore
SplineSet
0 500 m 1,0,-1
 0 600 l 1,1,-1
 100 600 l 1,2,-1
 100 700 l 1,3,-1
 200 700 l 1,4,-1
 200 600 l 1,5,-1
 400 600 l 1,6,-1
 400 500 l 1,7,-1
 200 500 l 1,8,-1
 200 100 l 1,9,-1
 100 100 l 1,10,-1
 100 500 l 1,11,-1
 0 500 l 1,0,-1
0 100 m 1,12,-1
 100 100 l 1,13,-1
 100 0 l 1,14,-1
 0 0 l 1,15,-1
 0 100 l 1,12,-1
300 300 m 1,16,-1
 400 300 l 1,17,-1
 400 100 l 1,18,-1
 300 100 l 1,19,-1
 300 300 l 1,16,-1
400 100 m 1,20,-1
 700 100 l 1,21,-1
 700 0 l 1,22,-1
 400 0 l 1,23,-1
 400 100 l 1,20,-1
400 500 m 1,24,-1
 700 500 l 1,25,-1
 700 400 l 1,26,-1
 400 400 l 1,27,-1
 400 500 l 1,24,-1
EndSplineSet
EndChar

StartChar: uni3060
Encoding: 12384 12384 179
Width: 800
GlyphClass: 1
Flags: W
LayerCount: 2
Fore
SplineSet
0 500 m 1,0,-1
 0 600 l 1,1,-1
 100 600 l 1,2,-1
 100 700 l 1,3,-1
 200 700 l 1,4,-1
 200 600 l 1,5,-1
 300 600 l 1,6,-1
 300 500 l 1,7,-1
 200 500 l 1,8,-1
 200 100 l 1,9,-1
 100 100 l 1,10,-1
 100 500 l 1,11,-1
 0 500 l 1,0,-1
0 100 m 1,12,-1
 100 100 l 1,13,-1
 100 0 l 1,14,-1
 0 0 l 1,15,-1
 0 100 l 1,12,-1
300 300 m 1,16,-1
 400 300 l 1,17,-1
 400 100 l 1,18,-1
 300 100 l 1,19,-1
 300 300 l 1,16,-1
300 500 m 1,20,-1
 500 500 l 1,21,-1
 500 400 l 1,22,-1
 300 400 l 1,23,-1
 300 500 l 1,20,-1
400 100 m 1,24,-1
 600 100 l 1,25,-1
 600 0 l 1,26,-1
 400 0 l 1,27,-1
 400 100 l 1,24,-1
500 700 m 1,28,-1
 600 700 l 1,29,-1
 600 500 l 1,30,-1
 500 500 l 1,31,-1
 500 700 l 1,28,-1
700 700 m 1,32,-1
 800 700 l 1,33,-1
 800 500 l 1,34,-1
 700 500 l 1,35,-1
 700 700 l 1,32,-1
EndSplineSet
EndChar

StartChar: uni3061
Encoding: 12385 12385 180
Width: 800
GlyphClass: 1
Flags: W
LayerCount: 2
Fore
SplineSet
300 700 m 1,0,-1
 400 700 l 1,1,-1
 400 600 l 1,2,-1
 700 600 l 1,3,-1
 700 500 l 1,4,-1
 300 500 l 1,5,-1
 300 400 l 1,6,-1
 600 400 l 1,7,-1
 600 300 l 1,8,-1
 200 300 l 1,9,-1
 200 500 l 1,10,-1
 100 500 l 1,11,-1
 100 600 l 1,12,-1
 300 600 l 1,13,-1
 300 700 l 1,0,-1
300 100 m 1,14,-1
 600 100 l 1,15,-1
 600 0 l 1,16,-1
 300 0 l 1,17,-1
 300 100 l 1,14,-1
600 300 m 1,18,-1
 700 300 l 1,19,-1
 700 100 l 1,20,-1
 600 100 l 1,21,-1
 600 300 l 1,18,-1
EndSplineSet
EndChar

StartChar: uni3062
Encoding: 12386 12386 181
Width: 800
GlyphClass: 1
Flags: W
LayerCount: 2
Fore
SplineSet
200 700 m 1,0,-1
 300 700 l 1,1,-1
 300 600 l 1,2,-1
 400 600 l 1,3,-1
 400 500 l 1,4,-1
 200 500 l 1,5,-1
 200 400 l 1,6,-1
 400 400 l 1,7,-1
 400 300 l 1,8,-1
 100 300 l 1,9,-1
 100 500 l 1,10,-1
 0 500 l 1,11,-1
 0 600 l 1,12,-1
 200 600 l 1,13,-1
 200 700 l 1,0,-1
200 100 m 1,14,-1
 400 100 l 1,15,-1
 400 0 l 1,16,-1
 200 0 l 1,17,-1
 200 100 l 1,14,-1
400 300 m 1,18,-1
 500 300 l 1,19,-1
 500 100 l 1,20,-1
 400 100 l 1,21,-1
 400 300 l 1,18,-1
500 700 m 1,22,-1
 600 700 l 1,23,-1
 600 500 l 1,24,-1
 500 500 l 1,25,-1
 500 700 l 1,22,-1
700 700 m 1,26,-1
 800 700 l 1,27,-1
 800 500 l 1,28,-1
 700 500 l 1,29,-1
 700 700 l 1,26,-1
EndSplineSet
EndChar

StartChar: uni3064
Encoding: 12388 12388 182
Width: 800
GlyphClass: 1
Flags: W
LayerCount: 2
Fore
SplineSet
100 500 m 1,0,-1
 600 500 l 1,1,-1
 600 400 l 1,2,-1
 100 400 l 1,3,-1
 100 500 l 1,0,-1
200 100 m 1,4,-1
 600 100 l 1,5,-1
 600 0 l 1,6,-1
 200 0 l 1,7,-1
 200 100 l 1,4,-1
600 400 m 1,8,-1
 700 400 l 1,9,-1
 700 100 l 1,10,-1
 600 100 l 1,11,-1
 600 400 l 1,8,-1
EndSplineSet
EndChar

StartChar: uni3063
Encoding: 12387 12387 183
Width: 800
GlyphClass: 1
Flags: W
LayerCount: 2
Fore
SplineSet
300 100 m 1,0,-1
 500 100 l 1,1,-1
 500 0 l 1,2,-1
 300 0 l 1,3,-1
 300 100 l 1,0,-1
200 400 m 1,4,-1
 500 400 l 1,5,-1
 500 300 l 1,6,-1
 200 300 l 1,7,-1
 200 400 l 1,4,-1
500 300 m 1,8,-1
 600 300 l 1,9,-1
 600 100 l 1,10,-1
 500 100 l 1,11,-1
 500 300 l 1,8,-1
EndSplineSet
EndChar

StartChar: uni3065
Encoding: 12389 12389 184
Width: 800
GlyphClass: 1
Flags: W
LayerCount: 2
Fore
SplineSet
0 500 m 1,0,-1
 400 500 l 1,1,-1
 400 400 l 1,2,-1
 0 400 l 1,3,-1
 0 500 l 1,0,-1
100 100 m 1,4,-1
 400 100 l 1,5,-1
 400 0 l 1,6,-1
 100 0 l 1,7,-1
 100 100 l 1,4,-1
400 400 m 1,8,-1
 500 400 l 1,9,-1
 500 100 l 1,10,-1
 400 100 l 1,11,-1
 400 400 l 1,8,-1
400 700 m 1,12,-1
 500 700 l 1,13,-1
 500 500 l 1,14,-1
 400 500 l 1,15,-1
 400 700 l 1,12,-1
600 700 m 1,16,-1
 700 700 l 1,17,-1
 700 500 l 1,18,-1
 600 500 l 1,19,-1
 600 700 l 1,16,-1
EndSplineSet
EndChar

StartChar: uni3066
Encoding: 12390 12390 185
Width: 800
GlyphClass: 1
Flags: W
LayerCount: 2
Fore
SplineSet
100 600 m 1,0,-1
 700 600 l 1,1,-1
 700 500 l 1,2,-1
 600 500 l 1,3,-1
 600 400 l 1,4,-1
 400 400 l 1,5,-1
 400 500 l 1,6,-1
 100 500 l 1,7,-1
 100 600 l 1,0,-1
200 300 m 1,8,-1
 300 300 l 1,9,-1
 300 100 l 1,10,-1
 200 100 l 1,11,-1
 200 300 l 1,8,-1
300 100 m 1,12,-1
 600 100 l 1,13,-1
 600 0 l 1,14,-1
 300 0 l 1,15,-1
 300 100 l 1,12,-1
300 400 m 1,16,-1
 400 400 l 1,17,-1
 400 300 l 1,18,-1
 300 300 l 1,19,-1
 300 400 l 1,16,-1
EndSplineSet
EndChar

StartChar: uni3067
Encoding: 12391 12391 186
Width: 800
GlyphClass: 1
Flags: W
LayerCount: 2
Fore
SplineSet
0 600 m 1,0,-1
 500 600 l 1,1,-1
 500 500 l 1,2,-1
 400 500 l 1,3,-1
 400 400 l 1,4,-1
 200 400 l 1,5,-1
 200 500 l 1,6,-1
 0 500 l 1,7,-1
 0 600 l 1,0,-1
0 300 m 1,8,-1
 100 300 l 1,9,-1
 100 100 l 1,10,-1
 0 100 l 1,11,-1
 0 300 l 1,8,-1
100 100 m 1,12,-1
 400 100 l 1,13,-1
 400 0 l 1,14,-1
 100 0 l 1,15,-1
 100 100 l 1,12,-1
100 400 m 1,16,-1
 200 400 l 1,17,-1
 200 300 l 1,18,-1
 100 300 l 1,19,-1
 100 400 l 1,16,-1
500 500 m 1,20,-1
 600 500 l 1,21,-1
 600 300 l 1,22,-1
 500 300 l 1,23,-1
 500 500 l 1,20,-1
700 500 m 1,24,-1
 800 500 l 1,25,-1
 800 300 l 1,26,-1
 700 300 l 1,27,-1
 700 500 l 1,24,-1
EndSplineSet
EndChar

StartChar: uni3068
Encoding: 12392 12392 187
Width: 800
GlyphClass: 1
Flags: W
LayerCount: 2
Fore
SplineSet
500 500 m 1,0,-1
 700 500 l 1,1,-1
 700 400 l 1,2,-1
 500 400 l 1,3,-1
 500 500 l 1,0,-1
100 300 m 1,4,-1
 200 300 l 1,5,-1
 200 100 l 1,6,-1
 100 100 l 1,7,-1
 100 300 l 1,4,-1
200 100 m 1,8,-1
 600 100 l 1,9,-1
 600 0 l 1,10,-1
 200 0 l 1,11,-1
 200 100 l 1,8,-1
200 600 m 1,12,-1
 300 600 l 1,13,-1
 300 400 l 1,14,-1
 500 400 l 1,15,-1
 500 300 l 1,16,-1
 200 300 l 1,17,-1
 200 600 l 1,12,-1
EndSplineSet
EndChar

StartChar: uni3069
Encoding: 12393 12393 188
Width: 800
GlyphClass: 1
Flags: W
LayerCount: 2
Fore
SplineSet
100 600 m 1,0,-1
 200 600 l 1,1,-1
 200 400 l 1,2,-1
 500 400 l 1,3,-1
 500 300 l 1,4,-1
 100 300 l 1,5,-1
 100 600 l 1,0,-1
0 300 m 1,6,-1
 100 300 l 1,7,-1
 100 100 l 1,8,-1
 0 100 l 1,9,-1
 0 300 l 1,6,-1
100 100 m 1,10,-1
 500 100 l 1,11,-1
 500 0 l 1,12,-1
 100 0 l 1,13,-1
 100 100 l 1,10,-1
400 700 m 1,14,-1
 500 700 l 1,15,-1
 500 500 l 1,16,-1
 400 500 l 1,17,-1
 400 700 l 1,14,-1
600 700 m 1,18,-1
 700 700 l 1,19,-1
 700 500 l 1,20,-1
 600 500 l 1,21,-1
 600 700 l 1,18,-1
EndSplineSet
EndChar

StartChar: uni306A
Encoding: 12394 12394 189
Width: 800
GlyphClass: 1
Flags: W
LayerCount: 2
Fore
SplineSet
0 500 m 1,0,-1
 0 600 l 1,1,-1
 100 600 l 1,2,-1
 100 700 l 1,3,-1
 200 700 l 1,4,-1
 200 600 l 1,5,-1
 300 600 l 1,6,-1
 300 500 l 1,7,-1
 200 500 l 1,8,-1
 200 100 l 1,9,-1
 100 100 l 1,10,-1
 100 500 l 1,11,-1
 0 500 l 1,0,-1
0 100 m 1,12,-1
 100 100 l 1,13,-1
 100 0 l 1,14,-1
 0 0 l 1,15,-1
 0 100 l 1,12,-1
300 200 m 1,16,-1
 400 200 l 1,17,-1
 400 100 l 1,18,-1
 300 100 l 1,19,-1
 300 200 l 1,16,-1
400 100 m 1,20,-1
 500 100 l 1,21,-1
 500 0 l 1,22,-1
 400 0 l 1,23,-1
 400 100 l 1,20,-1
400 300 m 1,24,-1
 500 300 l 1,25,-1
 500 400 l 1,26,-1
 600 400 l 1,27,-1
 600 200 l 1,28,-1
 700 200 l 1,29,-1
 700 0 l 1,30,-1
 600 0 l 1,31,-1
 600 100 l 1,32,-1
 500 100 l 1,33,-1
 500 200 l 1,34,-1
 400 200 l 1,35,-1
 400 300 l 1,24,-1
400 600 m 1,36,-1
 700 600 l 1,37,-1
 700 500 l 1,38,-1
 400 500 l 1,39,-1
 400 600 l 1,36,-1
EndSplineSet
EndChar

StartChar: uni306B
Encoding: 12395 12395 190
Width: 800
GlyphClass: 1
Flags: W
LayerCount: 2
Fore
SplineSet
200 600 m 1,0,-1
 200 100 l 1,1,-1
 100 100 l 1,2,-1
 100 600 l 1,3,-1
 200 600 l 1,0,-1
300 300 m 1,4,-1
 400 300 l 1,5,-1
 400 100 l 1,6,-1
 300 100 l 1,7,-1
 300 300 l 1,4,-1
300 600 m 1,8,-1
 700 600 l 1,9,-1
 700 500 l 1,10,-1
 300 500 l 1,11,-1
 300 600 l 1,8,-1
400 100 m 1,12,-1
 700 100 l 1,13,-1
 700 0 l 1,14,-1
 400 0 l 1,15,-1
 400 100 l 1,12,-1
EndSplineSet
EndChar

StartChar: uni306C
Encoding: 12396 12396 191
Width: 800
GlyphClass: 1
Flags: W
LayerCount: 2
Fore
SplineSet
700 100 m 1,0,-1
 800 100 l 1,1,-1
 800 0 l 1,2,-1
 700 0 l 1,3,-1
 700 100 l 1,0,-1
0 400 m 1,4,-1
 100 400 l 1,5,-1
 100 100 l 1,6,-1
 0 100 l 1,7,-1
 0 400 l 1,4,-1
100 100 m 1,8,-1
 300 100 l 1,9,-1
 300 0 l 1,10,-1
 100 0 l 1,11,-1
 100 100 l 1,8,-1
100 500 m 1,12,-1
 200 500 l 1,13,-1
 200 600 l 1,14,-1
 300 600 l 1,15,-1
 300 500 l 1,16,-1
 400 500 l 1,17,-1
 400 600 l 1,18,-1
 500 600 l 1,19,-1
 500 500 l 1,20,-1
 600 500 l 1,21,-1
 600 400 l 1,22,-1
 500 400 l 1,23,-1
 500 200 l 1,24,-1
 600 200 l 1,25,-1
 600 400 l 1,26,-1
 700 400 l 1,27,-1
 700 100 l 1,28,-1
 600 100 l 1,29,-1
 600 0 l 1,30,-1
 400 0 l 1,31,-1
 400 100 l 1,32,-1
 300 100 l 1,33,-1
 300 200 l 1,34,-1
 400 200 l 1,35,-1
 400 400 l 1,36,-1
 300 400 l 1,37,-1
 300 200 l 1,38,-1
 200 200 l 1,39,-1
 200 400 l 1,40,-1
 100 400 l 1,41,-1
 100 500 l 1,12,-1
EndSplineSet
EndChar

StartChar: uni306D
Encoding: 12397 12397 192
Width: 800
GlyphClass: 1
Flags: W
LayerCount: 2
Fore
SplineSet
200 700 m 1,0,-1
 300 700 l 1,1,-1
 300 500 l 1,2,-1
 600 500 l 1,3,-1
 600 400 l 1,4,-1
 300 400 l 1,5,-1
 300 0 l 1,6,-1
 200 0 l 1,7,-1
 200 100 l 1,8,-1
 100 100 l 1,9,-1
 100 200 l 1,10,-1
 200 200 l 1,11,-1
 200 500 l 1,12,-1
 100 500 l 1,13,-1
 100 600 l 1,14,-1
 200 600 l 1,15,-1
 200 700 l 1,0,-1
400 200 m 1,16,-1
 500 200 l 1,17,-1
 500 100 l 1,18,-1
 400 100 l 1,19,-1
 400 200 l 1,16,-1
500 100 m 1,20,-1
 600 100 l 1,21,-1
 600 200 l 1,22,-1
 500 200 l 1,23,-1
 500 300 l 1,24,-1
 600 300 l 1,25,-1
 600 400 l 1,26,-1
 700 400 l 1,27,-1
 700 0 l 1,28,-1
 500 0 l 1,29,-1
 500 100 l 1,20,-1
EndSplineSet
EndChar

StartChar: uni306E
Encoding: 12398 12398 193
Width: 800
GlyphClass: 1
Flags: W
LayerCount: 2
Fore
SplineSet
200 100 m 1,0,-1
 300 100 l 1,1,-1
 300 0 l 1,2,-1
 200 0 l 1,3,-1
 200 100 l 1,0,-1
100 400 m 1,4,-1
 200 400 l 1,5,-1
 200 100 l 1,6,-1
 100 100 l 1,7,-1
 100 400 l 1,4,-1
200 500 m 1,8,-1
 600 500 l 1,9,-1
 600 400 l 1,10,-1
 400 400 l 1,11,-1
 400 100 l 1,12,-1
 300 100 l 1,13,-1
 300 400 l 1,14,-1
 200 400 l 1,15,-1
 200 500 l 1,8,-1
500 100 m 1,16,-1
 600 100 l 1,17,-1
 600 0 l 1,18,-1
 500 0 l 1,19,-1
 500 100 l 1,16,-1
600 400 m 1,20,-1
 700 400 l 1,21,-1
 700 100 l 1,22,-1
 600 100 l 1,23,-1
 600 400 l 1,20,-1
EndSplineSet
EndChar

StartChar: uni306F
Encoding: 12399 12399 194
Width: 800
GlyphClass: 1
Flags: W
LayerCount: 2
Fore
SplineSet
100 600 m 1,0,-1
 100 100 l 1,1,-1
 0 100 l 1,2,-1
 0 600 l 1,3,-1
 100 600 l 1,0,-1
200 200 m 1,4,-1
 300 200 l 1,5,-1
 300 100 l 1,6,-1
 200 100 l 1,7,-1
 200 200 l 1,4,-1
200 600 m 1,8,-1
 400 600 l 1,9,-1
 400 700 l 1,10,-1
 500 700 l 1,11,-1
 500 600 l 1,12,-1
 700 600 l 1,13,-1
 700 500 l 1,14,-1
 500 500 l 1,15,-1
 500 300 l 1,16,-1
 600 300 l 1,17,-1
 600 200 l 1,18,-1
 500 200 l 1,19,-1
 500 100 l 1,20,-1
 400 100 l 1,21,-1
 400 200 l 1,22,-1
 300 200 l 1,23,-1
 300 300 l 1,24,-1
 400 300 l 1,25,-1
 400 500 l 1,26,-1
 200 500 l 1,27,-1
 200 600 l 1,8,-1
300 100 m 1,28,-1
 400 100 l 1,29,-1
 400 0 l 1,30,-1
 300 0 l 1,31,-1
 300 100 l 1,28,-1
600 200 m 1,32,-1
 700 200 l 1,33,-1
 700 0 l 1,34,-1
 600 0 l 1,35,-1
 600 200 l 1,32,-1
EndSplineSet
EndChar

StartChar: uni3070
Encoding: 12400 12400 195
Width: 800
GlyphClass: 1
Flags: W
LayerCount: 2
Fore
SplineSet
100 600 m 1,0,-1
 100 200 l 1,1,-1
 200 200 l 1,2,-1
 200 100 l 1,3,-1
 0 100 l 1,4,-1
 0 600 l 1,5,-1
 100 600 l 1,0,-1
200 100 m 1,6,-1
 300 100 l 1,7,-1
 300 200 l 1,8,-1
 200 200 l 1,9,-1
 200 300 l 1,10,-1
 300 300 l 1,11,-1
 300 500 l 1,12,-1
 200 500 l 1,13,-1
 200 600 l 1,14,-1
 300 600 l 1,15,-1
 300 700 l 1,16,-1
 400 700 l 1,17,-1
 400 600 l 1,18,-1
 500 600 l 1,19,-1
 500 700 l 1,20,-1
 600 700 l 1,21,-1
 600 500 l 1,22,-1
 400 500 l 1,23,-1
 400 300 l 1,24,-1
 500 300 l 1,25,-1
 500 200 l 1,26,-1
 400 200 l 1,27,-1
 400 0 l 1,28,-1
 200 0 l 1,29,-1
 200 100 l 1,6,-1
500 200 m 1,30,-1
 600 200 l 1,31,-1
 600 0 l 1,32,-1
 500 0 l 1,33,-1
 500 200 l 1,30,-1
700 700 m 1,34,-1
 800 700 l 1,35,-1
 800 500 l 1,36,-1
 700 500 l 1,37,-1
 700 700 l 1,34,-1
EndSplineSet
EndChar

StartChar: uni3071
Encoding: 12401 12401 196
Width: 800
GlyphClass: 1
Flags: W
LayerCount: 2
Fore
SplineSet
100 600 m 1,0,-1
 100 200 l 1,1,-1
 200 200 l 1,2,-1
 200 100 l 1,3,-1
 0 100 l 1,4,-1
 0 600 l 1,5,-1
 100 600 l 1,0,-1
200 100 m 1,6,-1
 300 100 l 1,7,-1
 300 200 l 1,8,-1
 200 200 l 1,9,-1
 200 300 l 1,10,-1
 300 300 l 1,11,-1
 300 500 l 1,12,-1
 200 500 l 1,13,-1
 200 600 l 1,14,-1
 300 600 l 1,15,-1
 300 700 l 1,16,-1
 400 700 l 1,17,-1
 400 600 l 1,18,-1
 500 600 l 1,19,-1
 500 500 l 1,20,-1
 400 500 l 1,21,-1
 400 300 l 1,22,-1
 500 300 l 1,23,-1
 500 200 l 1,24,-1
 400 200 l 1,25,-1
 400 0 l 1,26,-1
 200 0 l 1,27,-1
 200 100 l 1,6,-1
500 200 m 1,28,-1
 600 200 l 1,29,-1
 600 0 l 1,30,-1
 500 0 l 1,31,-1
 500 200 l 1,28,-1
600 700 m 1,32,-1
 800 700 l 1,33,-1
 800 500 l 1,34,-1
 600 500 l 1,35,-1
 600 700 l 1,32,-1
EndSplineSet
EndChar

StartChar: uni3072
Encoding: 12402 12402 197
Width: 800
GlyphClass: 1
Flags: W
LayerCount: 2
Fore
SplineSet
0 500 m 1,0,-1
 0 600 l 1,1,-1
 300 600 l 1,2,-1
 300 400 l 1,3,-1
 200 400 l 1,4,-1
 200 500 l 1,5,-1
 0 500 l 1,0,-1
100 400 m 1,6,-1
 200 400 l 1,7,-1
 200 100 l 1,8,-1
 100 100 l 1,9,-1
 100 400 l 1,6,-1
200 100 m 1,10,-1
 500 100 l 1,11,-1
 500 0 l 1,12,-1
 200 0 l 1,13,-1
 200 100 l 1,10,-1
400 600 m 1,14,-1
 500 600 l 1,15,-1
 500 500 l 1,16,-1
 600 500 l 1,17,-1
 600 400 l 1,18,-1
 700 400 l 1,19,-1
 700 300 l 1,20,-1
 600 300 l 1,21,-1
 600 100 l 1,22,-1
 500 100 l 1,23,-1
 500 400 l 1,24,-1
 400 400 l 1,25,-1
 400 600 l 1,14,-1
EndSplineSet
EndChar

StartChar: uni3073
Encoding: 12403 12403 198
Width: 800
GlyphClass: 1
Flags: W
LayerCount: 2
Fore
SplineSet
0 500 m 1,0,-1
 0 600 l 1,1,-1
 200 600 l 1,2,-1
 200 400 l 1,3,-1
 100 400 l 1,4,-1
 100 500 l 1,5,-1
 0 500 l 1,0,-1
0 400 m 1,6,-1
 100 400 l 1,7,-1
 100 100 l 1,8,-1
 0 100 l 1,9,-1
 0 400 l 1,6,-1
100 100 m 1,10,-1
 400 100 l 1,11,-1
 400 0 l 1,12,-1
 100 0 l 1,13,-1
 100 100 l 1,10,-1
300 600 m 1,14,-1
 400 600 l 1,15,-1
 400 500 l 1,16,-1
 500 500 l 1,17,-1
 500 400 l 1,18,-1
 600 400 l 1,19,-1
 600 300 l 1,20,-1
 500 300 l 1,21,-1
 500 100 l 1,22,-1
 400 100 l 1,23,-1
 400 400 l 1,24,-1
 300 400 l 1,25,-1
 300 600 l 1,14,-1
500 700 m 1,26,-1
 600 700 l 1,27,-1
 600 500 l 1,28,-1
 500 500 l 1,29,-1
 500 700 l 1,26,-1
700 700 m 1,30,-1
 800 700 l 1,31,-1
 800 500 l 1,32,-1
 700 500 l 1,33,-1
 700 700 l 1,30,-1
EndSplineSet
EndChar

StartChar: uni3074
Encoding: 12404 12404 199
Width: 800
GlyphClass: 1
Flags: W
LayerCount: 2
Fore
SplineSet
0 500 m 1,0,-1
 0 600 l 1,1,-1
 200 600 l 1,2,-1
 200 400 l 1,3,-1
 100 400 l 1,4,-1
 100 500 l 1,5,-1
 0 500 l 1,0,-1
0 400 m 1,6,-1
 100 400 l 1,7,-1
 100 100 l 1,8,-1
 0 100 l 1,9,-1
 0 400 l 1,6,-1
100 100 m 1,10,-1
 400 100 l 1,11,-1
 400 0 l 1,12,-1
 100 0 l 1,13,-1
 100 100 l 1,10,-1
300 600 m 1,14,-1
 400 600 l 1,15,-1
 400 500 l 1,16,-1
 500 500 l 1,17,-1
 500 400 l 1,18,-1
 600 400 l 1,19,-1
 600 300 l 1,20,-1
 500 300 l 1,21,-1
 500 100 l 1,22,-1
 400 100 l 1,23,-1
 400 400 l 1,24,-1
 300 400 l 1,25,-1
 300 600 l 1,14,-1
600 700 m 1,26,-1
 800 700 l 1,27,-1
 800 500 l 1,28,-1
 600 500 l 1,29,-1
 600 700 l 1,26,-1
EndSplineSet
EndChar

StartChar: uni3075
Encoding: 12405 12405 200
Width: 800
GlyphClass: 1
Flags: W
LayerCount: 2
Fore
SplineSet
400 500 m 1,0,-1
 400 300 l 1,1,-1
 300 300 l 1,2,-1
 300 500 l 1,3,-1
 400 500 l 1,0,-1
0 200 m 1,4,-1
 100 200 l 1,5,-1
 100 100 l 1,6,-1
 0 100 l 1,7,-1
 0 200 l 1,4,-1
100 400 m 1,8,-1
 200 400 l 1,9,-1
 200 200 l 1,10,-1
 100 200 l 1,11,-1
 100 400 l 1,8,-1
200 100 m 1,12,-1
 400 100 l 1,13,-1
 400 0 l 1,14,-1
 200 0 l 1,15,-1
 200 100 l 1,12,-1
200 700 m 1,16,-1
 500 700 l 1,17,-1
 500 600 l 1,18,-1
 200 600 l 1,19,-1
 200 700 l 1,16,-1
400 300 m 1,20,-1
 500 300 l 1,21,-1
 500 100 l 1,22,-1
 400 100 l 1,23,-1
 400 300 l 1,20,-1
500 400 m 1,24,-1
 600 400 l 1,25,-1
 600 300 l 1,26,-1
 500 300 l 1,27,-1
 500 400 l 1,24,-1
600 300 m 1,28,-1
 700 300 l 1,29,-1
 700 100 l 1,30,-1
 600 100 l 1,31,-1
 600 300 l 1,28,-1
EndSplineSet
EndChar

StartChar: uni3076
Encoding: 12406 12406 201
Width: 800
GlyphClass: 1
Flags: W
LayerCount: 2
Fore
SplineSet
300 500 m 1,0,-1
 300 300 l 1,1,-1
 200 300 l 1,2,-1
 200 500 l 1,3,-1
 300 500 l 1,0,-1
0 400 m 1,4,-1
 100 400 l 1,5,-1
 100 200 l 1,6,-1
 0 200 l 1,7,-1
 0 400 l 1,4,-1
100 100 m 1,8,-1
 300 100 l 1,9,-1
 300 0 l 1,10,-1
 100 0 l 1,11,-1
 100 100 l 1,8,-1
100 700 m 1,12,-1
 300 700 l 1,13,-1
 300 600 l 1,14,-1
 100 600 l 1,15,-1
 100 700 l 1,12,-1
300 300 m 1,16,-1
 400 300 l 1,17,-1
 400 100 l 1,18,-1
 300 100 l 1,19,-1
 300 300 l 1,16,-1
400 400 m 1,20,-1
 500 400 l 1,21,-1
 500 300 l 1,22,-1
 400 300 l 1,23,-1
 400 400 l 1,20,-1
400 700 m 1,24,-1
 500 700 l 1,25,-1
 500 500 l 1,26,-1
 400 500 l 1,27,-1
 400 700 l 1,24,-1
500 300 m 1,28,-1
 600 300 l 1,29,-1
 600 100 l 1,30,-1
 500 100 l 1,31,-1
 500 300 l 1,28,-1
600 700 m 1,32,-1
 700 700 l 1,33,-1
 700 500 l 1,34,-1
 600 500 l 1,35,-1
 600 700 l 1,32,-1
EndSplineSet
EndChar

StartChar: uni3077
Encoding: 12407 12407 202
Width: 800
GlyphClass: 1
Flags: W
LayerCount: 2
Fore
SplineSet
300 500 m 1,0,-1
 300 300 l 1,1,-1
 200 300 l 1,2,-1
 200 500 l 1,3,-1
 300 500 l 1,0,-1
0 400 m 1,4,-1
 100 400 l 1,5,-1
 100 200 l 1,6,-1
 0 200 l 1,7,-1
 0 400 l 1,4,-1
100 100 m 1,8,-1
 300 100 l 1,9,-1
 300 0 l 1,10,-1
 100 0 l 1,11,-1
 100 100 l 1,8,-1
100 700 m 1,12,-1
 400 700 l 1,13,-1
 400 600 l 1,14,-1
 100 600 l 1,15,-1
 100 700 l 1,12,-1
300 300 m 1,16,-1
 400 300 l 1,17,-1
 400 100 l 1,18,-1
 300 100 l 1,19,-1
 300 300 l 1,16,-1
400 400 m 1,20,-1
 500 400 l 1,21,-1
 500 300 l 1,22,-1
 400 300 l 1,23,-1
 400 400 l 1,20,-1
500 300 m 1,24,-1
 600 300 l 1,25,-1
 600 100 l 1,26,-1
 500 100 l 1,27,-1
 500 300 l 1,24,-1
500 700 m 1,28,-1
 700 700 l 1,29,-1
 700 500 l 1,30,-1
 500 500 l 1,31,-1
 500 700 l 1,28,-1
EndSplineSet
EndChar

StartChar: uni3078
Encoding: 12408 12408 203
Width: 800
GlyphClass: 1
Flags: W
LayerCount: 2
Fore
SplineSet
0 300 m 1,0,-1
 100 300 l 1,1,-1
 100 200 l 1,2,-1
 0 200 l 1,3,-1
 0 300 l 1,0,-1
100 400 m 1,4,-1
 200 400 l 1,5,-1
 200 300 l 1,6,-1
 100 300 l 1,7,-1
 100 400 l 1,4,-1
200 500 m 1,8,-1
 300 500 l 1,9,-1
 300 400 l 1,10,-1
 200 400 l 1,11,-1
 200 500 l 1,8,-1
300 400 m 1,12,-1
 400 400 l 1,13,-1
 400 300 l 1,14,-1
 300 300 l 1,15,-1
 300 400 l 1,12,-1
400 300 m 1,16,-1
 600 300 l 1,17,-1
 600 200 l 1,18,-1
 400 200 l 1,19,-1
 400 300 l 1,16,-1
600 200 m 1,20,-1
 700 200 l 1,21,-1
 700 100 l 1,22,-1
 600 100 l 1,23,-1
 600 200 l 1,20,-1
EndSplineSet
EndChar

StartChar: uni3079
Encoding: 12409 12409 204
Width: 800
GlyphClass: 1
Flags: W
LayerCount: 2
Fore
SplineSet
0 300 m 1,0,-1
 100 300 l 1,1,-1
 100 200 l 1,2,-1
 0 200 l 1,3,-1
 0 300 l 1,0,-1
100 400 m 1,4,-1
 200 400 l 1,5,-1
 200 300 l 1,6,-1
 100 300 l 1,7,-1
 100 400 l 1,4,-1
200 500 m 1,8,-1
 300 500 l 1,9,-1
 300 400 l 1,10,-1
 200 400 l 1,11,-1
 200 500 l 1,8,-1
300 400 m 1,12,-1
 400 400 l 1,13,-1
 400 300 l 1,14,-1
 300 300 l 1,15,-1
 300 400 l 1,12,-1
400 300 m 1,16,-1
 600 300 l 1,17,-1
 600 200 l 1,18,-1
 400 200 l 1,19,-1
 400 300 l 1,16,-1
400 700 m 1,20,-1
 500 700 l 1,21,-1
 500 500 l 1,22,-1
 400 500 l 1,23,-1
 400 700 l 1,20,-1
600 200 m 1,24,-1
 700 200 l 1,25,-1
 700 100 l 1,26,-1
 600 100 l 1,27,-1
 600 200 l 1,24,-1
600 700 m 1,28,-1
 700 700 l 1,29,-1
 700 500 l 1,30,-1
 600 500 l 1,31,-1
 600 700 l 1,28,-1
EndSplineSet
EndChar

StartChar: uni307A
Encoding: 12410 12410 205
Width: 800
GlyphClass: 1
Flags: W
LayerCount: 2
Fore
SplineSet
0 300 m 1,0,-1
 100 300 l 1,1,-1
 100 200 l 1,2,-1
 0 200 l 1,3,-1
 0 300 l 1,0,-1
100 400 m 1,4,-1
 200 400 l 1,5,-1
 200 300 l 1,6,-1
 100 300 l 1,7,-1
 100 400 l 1,4,-1
200 500 m 1,8,-1
 300 500 l 1,9,-1
 300 400 l 1,10,-1
 200 400 l 1,11,-1
 200 500 l 1,8,-1
300 400 m 1,12,-1
 400 400 l 1,13,-1
 400 300 l 1,14,-1
 300 300 l 1,15,-1
 300 400 l 1,12,-1
400 300 m 1,16,-1
 600 300 l 1,17,-1
 600 200 l 1,18,-1
 400 200 l 1,19,-1
 400 300 l 1,16,-1
500 700 m 1,20,-1
 700 700 l 1,21,-1
 700 500 l 1,22,-1
 500 500 l 1,23,-1
 500 700 l 1,20,-1
600 200 m 1,24,-1
 700 200 l 1,25,-1
 700 100 l 1,26,-1
 600 100 l 1,27,-1
 600 200 l 1,24,-1
EndSplineSet
EndChar

StartChar: uni307B
Encoding: 12411 12411 206
Width: 800
GlyphClass: 1
Flags: W
LayerCount: 2
Fore
SplineSet
100 700 m 1,0,-1
 100 0 l 1,1,-1
 0 0 l 1,2,-1
 0 700 l 1,3,-1
 100 700 l 1,0,-1
200 200 m 1,4,-1
 300 200 l 1,5,-1
 300 100 l 1,6,-1
 200 100 l 1,7,-1
 200 200 l 1,4,-1
200 500 m 1,8,-1
 400 500 l 1,9,-1
 400 600 l 1,10,-1
 200 600 l 1,11,-1
 200 700 l 1,12,-1
 700 700 l 1,13,-1
 700 600 l 1,14,-1
 500 600 l 1,15,-1
 500 500 l 1,16,-1
 700 500 l 1,17,-1
 700 400 l 1,18,-1
 500 400 l 1,19,-1
 500 300 l 1,20,-1
 600 300 l 1,21,-1
 600 200 l 1,22,-1
 500 200 l 1,23,-1
 500 100 l 1,24,-1
 400 100 l 1,25,-1
 400 200 l 1,26,-1
 300 200 l 1,27,-1
 300 300 l 1,28,-1
 400 300 l 1,29,-1
 400 400 l 1,30,-1
 200 400 l 1,31,-1
 200 500 l 1,8,-1
300 100 m 1,32,-1
 400 100 l 1,33,-1
 400 0 l 1,34,-1
 300 0 l 1,35,-1
 300 100 l 1,32,-1
600 200 m 1,36,-1
 700 200 l 1,37,-1
 700 0 l 1,38,-1
 600 0 l 1,39,-1
 600 200 l 1,36,-1
EndSplineSet
EndChar

StartChar: uni307C
Encoding: 12412 12412 207
Width: 800
GlyphClass: 1
Flags: W
LayerCount: 2
Fore
SplineSet
200 700 m 1,0,-1
 600 700 l 1,1,-1
 600 500 l 1,2,-1
 500 500 l 1,3,-1
 500 600 l 1,4,-1
 400 600 l 1,5,-1
 400 500 l 1,6,-1
 500 500 l 1,7,-1
 500 400 l 1,8,-1
 400 400 l 1,9,-1
 400 300 l 1,10,-1
 500 300 l 1,11,-1
 500 200 l 1,12,-1
 400 200 l 1,13,-1
 400 0 l 1,14,-1
 200 0 l 1,15,-1
 200 100 l 1,16,-1
 300 100 l 1,17,-1
 300 200 l 1,18,-1
 200 200 l 1,19,-1
 200 300 l 1,20,-1
 300 300 l 1,21,-1
 300 400 l 1,22,-1
 200 400 l 1,23,-1
 200 500 l 1,24,-1
 300 500 l 1,25,-1
 300 600 l 1,26,-1
 200 600 l 1,27,-1
 200 700 l 1,0,-1
0 700 m 1,28,-1
 100 700 l 1,29,-1
 100 200 l 1,30,-1
 200 200 l 1,31,-1
 200 100 l 1,32,-1
 0 100 l 1,33,-1
 0 700 l 1,28,-1
500 200 m 1,34,-1
 600 200 l 1,35,-1
 600 0 l 1,36,-1
 500 0 l 1,37,-1
 500 200 l 1,34,-1
700 700 m 1,38,-1
 800 700 l 1,39,-1
 800 500 l 1,40,-1
 700 500 l 1,41,-1
 700 700 l 1,38,-1
EndSplineSet
EndChar

StartChar: uni307D
Encoding: 12413 12413 208
Width: 800
GlyphClass: 1
Flags: W
LayerCount: 2
Fore
SplineSet
200 700 m 1,0,-1
 500 700 l 1,1,-1
 500 600 l 1,2,-1
 400 600 l 1,3,-1
 400 500 l 1,4,-1
 500 500 l 1,5,-1
 500 400 l 1,6,-1
 400 400 l 1,7,-1
 400 300 l 1,8,-1
 500 300 l 1,9,-1
 500 200 l 1,10,-1
 400 200 l 1,11,-1
 400 0 l 1,12,-1
 200 0 l 1,13,-1
 200 100 l 1,14,-1
 300 100 l 1,15,-1
 300 200 l 1,16,-1
 200 200 l 1,17,-1
 200 300 l 1,18,-1
 300 300 l 1,19,-1
 300 400 l 1,20,-1
 200 400 l 1,21,-1
 200 500 l 1,22,-1
 300 500 l 1,23,-1
 300 600 l 1,24,-1
 200 600 l 1,25,-1
 200 700 l 1,0,-1
0 700 m 1,26,-1
 100 700 l 1,27,-1
 100 200 l 1,28,-1
 200 200 l 1,29,-1
 200 100 l 1,30,-1
 0 100 l 1,31,-1
 0 700 l 1,26,-1
500 200 m 1,32,-1
 600 200 l 1,33,-1
 600 0 l 1,34,-1
 500 0 l 1,35,-1
 500 200 l 1,32,-1
600 700 m 1,36,-1
 800 700 l 1,37,-1
 800 500 l 1,38,-1
 600 500 l 1,39,-1
 600 700 l 1,36,-1
EndSplineSet
EndChar

StartChar: uni307E
Encoding: 12414 12414 209
Width: 800
GlyphClass: 1
Flags: W
LayerCount: 2
Fore
SplineSet
400 700 m 1,0,-1
 500 700 l 1,1,-1
 500 600 l 1,2,-1
 700 600 l 1,3,-1
 700 500 l 1,4,-1
 500 500 l 1,5,-1
 500 400 l 1,6,-1
 700 400 l 1,7,-1
 700 300 l 1,8,-1
 500 300 l 1,9,-1
 500 200 l 1,10,-1
 600 200 l 1,11,-1
 600 100 l 1,12,-1
 400 100 l 1,13,-1
 400 0 l 1,14,-1
 100 0 l 1,15,-1
 100 200 l 1,16,-1
 400 200 l 1,17,-1
 400 300 l 1,18,-1
 100 300 l 1,19,-1
 100 400 l 1,20,-1
 400 400 l 1,21,-1
 400 500 l 1,22,-1
 100 500 l 1,23,-1
 100 600 l 1,24,-1
 400 600 l 1,25,-1
 400 700 l 1,0,-1
600 100 m 1,26,-1
 700 100 l 1,27,-1
 700 0 l 1,28,-1
 600 0 l 1,29,-1
 600 100 l 1,26,-1
EndSplineSet
EndChar

StartChar: uni307F
Encoding: 12415 12415 210
Width: 800
GlyphClass: 1
Flags: W
LayerCount: 2
Fore
SplineSet
200 300 m 1,0,-1
 200 400 l 1,1,-1
 300 400 l 1,2,-1
 300 500 l 1,3,-1
 100 500 l 1,4,-1
 100 600 l 1,5,-1
 400 600 l 1,6,-1
 400 400 l 1,7,-1
 500 400 l 1,8,-1
 500 600 l 1,9,-1
 600 600 l 1,10,-1
 600 400 l 1,11,-1
 700 400 l 1,12,-1
 700 300 l 1,13,-1
 600 300 l 1,14,-1
 600 0 l 1,15,-1
 500 0 l 1,16,-1
 500 300 l 1,17,-1
 400 300 l 1,18,-1
 400 100 l 1,19,-1
 300 100 l 1,20,-1
 300 300 l 1,21,-1
 200 300 l 1,0,-1
100 300 m 1,22,-1
 200 300 l 1,23,-1
 200 100 l 1,24,-1
 100 100 l 1,25,-1
 100 300 l 1,22,-1
200 100 m 1,26,-1
 300 100 l 1,27,-1
 300 0 l 1,28,-1
 200 0 l 1,29,-1
 200 100 l 1,26,-1
EndSplineSet
EndChar

StartChar: uni3080
Encoding: 12416 12416 211
Width: 800
GlyphClass: 1
Flags: W
LayerCount: 2
Fore
SplineSet
200 700 m 1,0,-1
 300 700 l 1,1,-1
 300 600 l 1,2,-1
 400 600 l 1,3,-1
 400 500 l 1,4,-1
 300 500 l 1,5,-1
 300 100 l 1,6,-1
 100 100 l 1,7,-1
 100 200 l 1,8,-1
 200 200 l 1,9,-1
 200 300 l 1,10,-1
 100 300 l 1,11,-1
 100 400 l 1,12,-1
 200 400 l 1,13,-1
 200 500 l 1,14,-1
 0 500 l 1,15,-1
 0 600 l 1,16,-1
 200 600 l 1,17,-1
 200 700 l 1,0,-1
0 300 m 1,18,-1
 100 300 l 1,19,-1
 100 200 l 1,20,-1
 0 200 l 1,21,-1
 0 300 l 1,18,-1
300 100 m 1,22,-1
 600 100 l 1,23,-1
 600 0 l 1,24,-1
 300 0 l 1,25,-1
 300 100 l 1,22,-1
500 600 m 1,26,-1
 600 600 l 1,27,-1
 600 500 l 1,28,-1
 500 500 l 1,29,-1
 500 600 l 1,26,-1
600 200 m 1,30,-1
 700 200 l 1,31,-1
 700 100 l 1,32,-1
 600 100 l 1,33,-1
 600 200 l 1,30,-1
600 500 m 1,34,-1
 700 500 l 1,35,-1
 700 400 l 1,36,-1
 600 400 l 1,37,-1
 600 500 l 1,34,-1
EndSplineSet
EndChar

StartChar: uni3081
Encoding: 12417 12417 212
Width: 800
GlyphClass: 1
Flags: W
LayerCount: 2
Fore
SplineSet
200 600 m 1,0,-1
 200 500 l 1,1,-1
 400 500 l 1,2,-1
 400 600 l 1,3,-1
 500 600 l 1,4,-1
 500 500 l 1,5,-1
 600 500 l 1,6,-1
 600 400 l 1,7,-1
 500 400 l 1,8,-1
 500 200 l 1,9,-1
 400 200 l 1,10,-1
 400 400 l 1,11,-1
 200 400 l 1,12,-1
 200 300 l 1,13,-1
 100 300 l 1,14,-1
 100 100 l 1,15,-1
 0 100 l 1,16,-1
 0 400 l 1,17,-1
 100 400 l 1,18,-1
 100 600 l 1,19,-1
 200 600 l 1,0,-1
100 100 m 1,20,-1
 200 100 l 1,21,-1
 200 300 l 1,22,-1
 300 300 l 1,23,-1
 300 200 l 1,24,-1
 400 200 l 1,25,-1
 400 100 l 1,26,-1
 300 100 l 1,27,-1
 300 0 l 1,28,-1
 100 0 l 1,29,-1
 100 100 l 1,20,-1
500 100 m 1,30,-1
 600 100 l 1,31,-1
 600 0 l 1,32,-1
 500 0 l 1,33,-1
 500 100 l 1,30,-1
600 400 m 1,34,-1
 700 400 l 1,35,-1
 700 100 l 1,36,-1
 600 100 l 1,37,-1
 600 400 l 1,34,-1
EndSplineSet
EndChar

StartChar: uni3082
Encoding: 12418 12418 213
Width: 800
GlyphClass: 1
Flags: W
LayerCount: 2
Fore
SplineSet
200 700 m 1,0,-1
 300 700 l 1,1,-1
 300 600 l 1,2,-1
 600 600 l 1,3,-1
 600 500 l 1,4,-1
 300 500 l 1,5,-1
 300 400 l 1,6,-1
 600 400 l 1,7,-1
 600 300 l 1,8,-1
 300 300 l 1,9,-1
 300 100 l 1,10,-1
 200 100 l 1,11,-1
 200 300 l 1,12,-1
 100 300 l 1,13,-1
 100 400 l 1,14,-1
 200 400 l 1,15,-1
 200 500 l 1,16,-1
 100 500 l 1,17,-1
 100 600 l 1,18,-1
 200 600 l 1,19,-1
 200 700 l 1,0,-1
300 100 m 1,20,-1
 600 100 l 1,21,-1
 600 0 l 1,22,-1
 300 0 l 1,23,-1
 300 100 l 1,20,-1
600 200 m 1,24,-1
 700 200 l 1,25,-1
 700 100 l 1,26,-1
 600 100 l 1,27,-1
 600 200 l 1,24,-1
EndSplineSet
EndChar

StartChar: uni3084
Encoding: 12420 12420 214
Width: 800
GlyphClass: 1
Flags: W
LayerCount: 2
Fore
SplineSet
0 400 m 1,0,-1
 100 400 l 1,1,-1
 100 700 l 1,2,-1
 200 700 l 1,3,-1
 200 500 l 1,4,-1
 400 500 l 1,5,-1
 400 600 l 1,6,-1
 500 600 l 1,7,-1
 500 500 l 1,8,-1
 600 500 l 1,9,-1
 600 400 l 1,10,-1
 500 400 l 1,11,-1
 500 300 l 1,12,-1
 400 300 l 1,13,-1
 400 400 l 1,14,-1
 200 400 l 1,15,-1
 200 0 l 1,16,-1
 100 0 l 1,17,-1
 100 300 l 1,18,-1
 0 300 l 1,19,-1
 0 400 l 1,0,-1
400 200 m 1,20,-1
 600 200 l 1,21,-1
 600 100 l 1,22,-1
 400 100 l 1,23,-1
 400 200 l 1,20,-1
600 400 m 1,24,-1
 700 400 l 1,25,-1
 700 200 l 1,26,-1
 600 200 l 1,27,-1
 600 400 l 1,24,-1
EndSplineSet
EndChar

StartChar: uni3083
Encoding: 12419 12419 215
Width: 800
GlyphClass: 1
Flags: W
LayerCount: 2
Fore
SplineSet
200 500 m 1,0,-1
 300 500 l 1,1,-1
 300 400 l 1,2,-1
 400 400 l 1,3,-1
 400 500 l 1,4,-1
 500 500 l 1,5,-1
 500 300 l 1,6,-1
 300 300 l 1,7,-1
 300 0 l 1,8,-1
 200 0 l 1,9,-1
 200 300 l 1,10,-1
 100 300 l 1,11,-1
 100 400 l 1,12,-1
 200 400 l 1,13,-1
 200 500 l 1,0,-1
400 200 m 1,14,-1
 500 200 l 1,15,-1
 500 100 l 1,16,-1
 400 100 l 1,17,-1
 400 200 l 1,14,-1
500 300 m 1,18,-1
 600 300 l 1,19,-1
 600 200 l 1,20,-1
 500 200 l 1,21,-1
 500 300 l 1,18,-1
EndSplineSet
EndChar

StartChar: uni3086
Encoding: 12422 12422 216
Width: 800
GlyphClass: 1
Flags: W
LayerCount: 2
Fore
SplineSet
400 600 m 1,0,-1
 500 600 l 1,1,-1
 500 500 l 1,2,-1
 600 500 l 1,3,-1
 600 400 l 1,4,-1
 500 400 l 1,5,-1
 500 200 l 1,6,-1
 600 200 l 1,7,-1
 600 100 l 1,8,-1
 500 100 l 1,9,-1
 500 0 l 1,10,-1
 400 0 l 1,11,-1
 400 100 l 1,12,-1
 300 100 l 1,13,-1
 300 200 l 1,14,-1
 400 200 l 1,15,-1
 400 400 l 1,16,-1
 300 400 l 1,17,-1
 300 500 l 1,18,-1
 400 500 l 1,19,-1
 400 600 l 1,0,-1
100 600 m 1,20,-1
 200 600 l 1,21,-1
 200 400 l 1,22,-1
 300 400 l 1,23,-1
 300 300 l 1,24,-1
 200 300 l 1,25,-1
 200 100 l 1,26,-1
 100 100 l 1,27,-1
 100 600 l 1,20,-1
600 400 m 1,28,-1
 700 400 l 1,29,-1
 700 200 l 1,30,-1
 600 200 l 1,31,-1
 600 400 l 1,28,-1
EndSplineSet
EndChar

StartChar: uni3085
Encoding: 12421 12421 217
Width: 800
GlyphClass: 1
Flags: W
LayerCount: 2
Fore
SplineSet
400 100 m 1,0,-1
 300 100 l 1,1,-1
 300 200 l 1,2,-1
 400 200 l 1,3,-1
 400 300 l 1,4,-1
 300 300 l 1,5,-1
 300 400 l 1,6,-1
 400 400 l 1,7,-1
 400 500 l 1,8,-1
 500 500 l 1,9,-1
 500 400 l 1,10,-1
 600 400 l 1,11,-1
 600 300 l 1,12,-1
 500 300 l 1,13,-1
 500 200 l 1,14,-1
 600 200 l 1,15,-1
 600 100 l 1,16,-1
 500 100 l 1,17,-1
 500 0 l 1,18,-1
 400 0 l 1,19,-1
 400 100 l 1,0,-1
100 500 m 1,20,-1
 200 500 l 1,21,-1
 200 300 l 1,22,-1
 300 300 l 1,23,-1
 300 200 l 1,24,-1
 200 200 l 1,25,-1
 200 0 l 1,26,-1
 100 0 l 1,27,-1
 100 500 l 1,20,-1
600 300 m 1,28,-1
 700 300 l 1,29,-1
 700 200 l 1,30,-1
 600 200 l 1,31,-1
 600 300 l 1,28,-1
EndSplineSet
EndChar

StartChar: uni3088
Encoding: 12424 12424 218
Width: 800
GlyphClass: 1
Flags: W
LayerCount: 2
Fore
SplineSet
400 700 m 1,0,-1
 400 600 l 1,1,-1
 600 600 l 1,2,-1
 600 500 l 1,3,-1
 400 500 l 1,4,-1
 400 300 l 1,5,-1
 500 300 l 1,6,-1
 500 200 l 1,7,-1
 400 200 l 1,8,-1
 400 100 l 1,9,-1
 300 100 l 1,10,-1
 300 200 l 1,11,-1
 200 200 l 1,12,-1
 200 300 l 1,13,-1
 300 300 l 1,14,-1
 300 700 l 1,15,-1
 400 700 l 1,0,-1
100 200 m 1,16,-1
 200 200 l 1,17,-1
 200 100 l 1,18,-1
 100 100 l 1,19,-1
 100 200 l 1,16,-1
200 100 m 1,20,-1
 300 100 l 1,21,-1
 300 0 l 1,22,-1
 200 0 l 1,23,-1
 200 100 l 1,20,-1
500 200 m 1,24,-1
 600 200 l 1,25,-1
 600 100 l 1,26,-1
 500 100 l 1,27,-1
 500 200 l 1,24,-1
600 100 m 1,28,-1
 700 100 l 1,29,-1
 700 0 l 1,30,-1
 600 0 l 1,31,-1
 600 100 l 1,28,-1
EndSplineSet
EndChar

StartChar: uni3087
Encoding: 12423 12423 219
Width: 800
GlyphClass: 1
Flags: W
LayerCount: 2
Fore
SplineSet
400 500 m 1,0,-1
 400 400 l 1,1,-1
 500 400 l 1,2,-1
 500 300 l 1,3,-1
 400 300 l 1,4,-1
 400 200 l 1,5,-1
 500 200 l 1,6,-1
 500 100 l 1,7,-1
 400 100 l 1,8,-1
 400 0 l 1,9,-1
 200 0 l 1,10,-1
 200 200 l 1,11,-1
 300 200 l 1,12,-1
 300 500 l 1,13,-1
 400 500 l 1,0,-1
500 100 m 1,14,-1
 600 100 l 1,15,-1
 600 0 l 1,16,-1
 500 0 l 1,17,-1
 500 100 l 1,14,-1
EndSplineSet
EndChar

StartChar: uni3089
Encoding: 12425 12425 220
Width: 800
GlyphClass: 1
Flags: W
LayerCount: 2
Fore
SplineSet
200 500 m 1,0,-1
 200 300 l 1,1,-1
 300 300 l 1,2,-1
 300 200 l 1,3,-1
 200 200 l 1,4,-1
 200 100 l 1,5,-1
 100 100 l 1,6,-1
 100 500 l 1,7,-1
 200 500 l 1,0,-1
200 700 m 1,8,-1
 400 700 l 1,9,-1
 400 600 l 1,10,-1
 200 600 l 1,11,-1
 200 700 l 1,8,-1
300 400 m 1,12,-1
 600 400 l 1,13,-1
 600 300 l 1,14,-1
 300 300 l 1,15,-1
 300 400 l 1,12,-1
400 100 m 1,16,-1
 600 100 l 1,17,-1
 600 0 l 1,18,-1
 400 0 l 1,19,-1
 400 100 l 1,16,-1
400 600 m 1,20,-1
 600 600 l 1,21,-1
 600 500 l 1,22,-1
 400 500 l 1,23,-1
 400 600 l 1,20,-1
600 300 m 1,24,-1
 700 300 l 1,25,-1
 700 100 l 1,26,-1
 600 100 l 1,27,-1
 600 300 l 1,24,-1
EndSplineSet
EndChar

StartChar: uni308A
Encoding: 12426 12426 221
Width: 800
GlyphClass: 1
Flags: W
LayerCount: 2
Fore
SplineSet
200 600 m 1,0,-1
 200 300 l 1,1,-1
 300 300 l 1,2,-1
 300 200 l 1,3,-1
 200 200 l 1,4,-1
 200 100 l 1,5,-1
 100 100 l 1,6,-1
 100 600 l 1,7,-1
 200 600 l 1,0,-1
400 100 m 1,8,-1
 600 100 l 1,9,-1
 600 0 l 1,10,-1
 400 0 l 1,11,-1
 400 100 l 1,8,-1
600 600 m 1,12,-1
 700 600 l 1,13,-1
 700 100 l 1,14,-1
 600 100 l 1,15,-1
 600 600 l 1,12,-1
EndSplineSet
EndChar

StartChar: uni308B
Encoding: 12427 12427 222
Width: 800
GlyphClass: 1
Flags: W
LayerCount: 2
Fore
SplineSet
300 200 m 1,0,-1
 500 200 l 1,1,-1
 500 100 l 1,2,-1
 600 100 l 1,3,-1
 600 0 l 1,4,-1
 200 0 l 1,5,-1
 200 100 l 1,6,-1
 300 100 l 1,7,-1
 300 200 l 1,0,-1
100 400 m 1,8,-1
 200 400 l 1,9,-1
 200 500 l 1,10,-1
 400 500 l 1,11,-1
 400 600 l 1,12,-1
 100 600 l 1,13,-1
 100 700 l 1,14,-1
 600 700 l 1,15,-1
 600 600 l 1,16,-1
 500 600 l 1,17,-1
 500 500 l 1,18,-1
 600 500 l 1,19,-1
 600 400 l 1,20,-1
 300 400 l 1,21,-1
 300 300 l 1,22,-1
 100 300 l 1,23,-1
 100 400 l 1,8,-1
600 400 m 1,24,-1
 700 400 l 1,25,-1
 700 100 l 1,26,-1
 600 100 l 1,27,-1
 600 400 l 1,24,-1
EndSplineSet
EndChar

StartChar: uni308C
Encoding: 12428 12428 223
Width: 800
GlyphClass: 1
Flags: W
LayerCount: 2
Fore
SplineSet
200 700 m 1,0,-1
 300 700 l 1,1,-1
 300 500 l 1,2,-1
 500 500 l 1,3,-1
 500 400 l 1,4,-1
 300 400 l 1,5,-1
 300 0 l 1,6,-1
 200 0 l 1,7,-1
 200 100 l 1,8,-1
 100 100 l 1,9,-1
 100 200 l 1,10,-1
 200 200 l 1,11,-1
 200 500 l 1,12,-1
 0 500 l 1,13,-1
 0 600 l 1,14,-1
 200 600 l 1,15,-1
 200 700 l 1,0,-1
500 400 m 1,16,-1
 600 400 l 1,17,-1
 600 100 l 1,18,-1
 700 100 l 1,19,-1
 700 0 l 1,20,-1
 500 0 l 1,21,-1
 500 400 l 1,16,-1
EndSplineSet
EndChar

StartChar: uni308D
Encoding: 12429 12429 224
Width: 800
GlyphClass: 1
Flags: W
LayerCount: 2
Fore
SplineSet
200 600 m 1,0,-1
 600 600 l 1,1,-1
 600 500 l 1,2,-1
 500 500 l 1,3,-1
 500 400 l 1,4,-1
 600 400 l 1,5,-1
 600 300 l 1,6,-1
 300 300 l 1,7,-1
 300 400 l 1,8,-1
 400 400 l 1,9,-1
 400 500 l 1,10,-1
 200 500 l 1,11,-1
 200 600 l 1,0,-1
200 300 m 1,12,-1
 300 300 l 1,13,-1
 300 200 l 1,14,-1
 200 200 l 1,15,-1
 200 300 l 1,12,-1
400 100 m 1,16,-1
 600 100 l 1,17,-1
 600 0 l 1,18,-1
 400 0 l 1,19,-1
 400 100 l 1,16,-1
600 300 m 1,20,-1
 700 300 l 1,21,-1
 700 100 l 1,22,-1
 600 100 l 1,23,-1
 600 300 l 1,20,-1
EndSplineSet
EndChar

StartChar: uni308F
Encoding: 12431 12431 225
Width: 800
GlyphClass: 1
Flags: W
LayerCount: 2
Fore
SplineSet
200 700 m 1,0,-1
 300 700 l 1,1,-1
 300 500 l 1,2,-1
 600 500 l 1,3,-1
 600 400 l 1,4,-1
 400 400 l 1,5,-1
 400 300 l 1,6,-1
 300 300 l 1,7,-1
 300 0 l 1,8,-1
 200 0 l 1,9,-1
 200 100 l 1,10,-1
 100 100 l 1,11,-1
 100 200 l 1,12,-1
 200 200 l 1,13,-1
 200 500 l 1,14,-1
 100 500 l 1,15,-1
 100 600 l 1,16,-1
 200 600 l 1,17,-1
 200 700 l 1,0,-1
500 100 m 1,18,-1
 600 100 l 1,19,-1
 600 0 l 1,20,-1
 500 0 l 1,21,-1
 500 100 l 1,18,-1
600 400 m 1,22,-1
 700 400 l 1,23,-1
 700 100 l 1,24,-1
 600 100 l 1,25,-1
 600 400 l 1,22,-1
EndSplineSet
EndChar

StartChar: uni308E
Encoding: 12430 12430 226
Width: 800
GlyphClass: 1
Flags: W
LayerCount: 2
Fore
SplineSet
200 500 m 1,0,-1
 300 500 l 1,1,-1
 300 400 l 1,2,-1
 500 400 l 1,3,-1
 500 300 l 1,4,-1
 400 300 l 1,5,-1
 400 200 l 1,6,-1
 300 200 l 1,7,-1
 300 0 l 1,8,-1
 200 0 l 1,9,-1
 200 100 l 1,10,-1
 100 100 l 1,11,-1
 100 200 l 1,12,-1
 200 200 l 1,13,-1
 200 300 l 1,14,-1
 100 300 l 1,15,-1
 100 400 l 1,16,-1
 200 400 l 1,17,-1
 200 500 l 1,0,-1
400 100 m 1,18,-1
 500 100 l 1,19,-1
 500 0 l 1,20,-1
 400 0 l 1,21,-1
 400 100 l 1,18,-1
500 300 m 1,22,-1
 600 300 l 1,23,-1
 600 100 l 1,24,-1
 500 100 l 1,25,-1
 500 300 l 1,22,-1
EndSplineSet
EndChar

StartChar: uni3090
Encoding: 12432 12432 227
Width: 800
GlyphClass: 1
Flags: W
LayerCount: 2
Fore
SplineSet
100 600 m 1,0,-1
 500 600 l 1,1,-1
 500 500 l 1,2,-1
 400 500 l 1,3,-1
 400 400 l 1,4,-1
 600 400 l 1,5,-1
 600 300 l 1,6,-1
 400 300 l 1,7,-1
 400 100 l 1,8,-1
 300 100 l 1,9,-1
 300 300 l 1,10,-1
 200 300 l 1,11,-1
 200 400 l 1,12,-1
 300 400 l 1,13,-1
 300 500 l 1,14,-1
 100 500 l 1,15,-1
 100 600 l 1,0,-1
100 300 m 1,16,-1
 200 300 l 1,17,-1
 200 100 l 1,18,-1
 100 100 l 1,19,-1
 100 300 l 1,16,-1
200 100 m 1,20,-1
 300 100 l 1,21,-1
 300 0 l 1,22,-1
 200 0 l 1,23,-1
 200 100 l 1,20,-1
500 200 m 1,24,-1
 600 200 l 1,25,-1
 600 300 l 1,26,-1
 700 300 l 1,27,-1
 700 0 l 1,28,-1
 500 0 l 1,29,-1
 500 200 l 1,24,-1
EndSplineSet
EndChar

StartChar: uni3091
Encoding: 12433 12433 228
Width: 800
GlyphClass: 1
Flags: W
LayerCount: 2
Fore
SplineSet
100 700 m 1,0,-1
 600 700 l 1,1,-1
 600 600 l 1,2,-1
 500 600 l 1,3,-1
 500 500 l 1,4,-1
 400 500 l 1,5,-1
 400 600 l 1,6,-1
 100 600 l 1,7,-1
 100 700 l 1,0,-1
100 0 m 1,8,-1
 200 0 l 1,9,-1
 200 -100 l 1,10,-1
 100 -100 l 1,11,-1
 100 0 l 1,8,-1
100 400 m 1,12,-1
 200 400 l 1,13,-1
 200 300 l 1,14,-1
 100 300 l 1,15,-1
 100 400 l 1,12,-1
200 100 m 1,16,-1
 300 100 l 1,17,-1
 300 200 l 1,18,-1
 400 200 l 1,19,-1
 400 400 l 1,20,-1
 600 400 l 1,21,-1
 600 300 l 1,22,-1
 700 300 l 1,23,-1
 700 200 l 1,24,-1
 600 200 l 1,25,-1
 600 0 l 1,26,-1
 500 0 l 1,27,-1
 500 100 l 1,28,-1
 400 100 l 1,29,-1
 400 0 l 1,30,-1
 200 0 l 1,31,-1
 200 100 l 1,16,-1
200 500 m 1,32,-1
 400 500 l 1,33,-1
 400 400 l 1,34,-1
 200 400 l 1,35,-1
 200 500 l 1,32,-1
400 0 m 1,36,-1
 500 0 l 1,37,-1
 500 -100 l 1,38,-1
 400 -100 l 1,39,-1
 400 0 l 1,36,-1
600 0 m 1,40,-1
 700 0 l 1,41,-1
 700 -100 l 1,42,-1
 600 -100 l 1,43,-1
 600 0 l 1,40,-1
EndSplineSet
EndChar

StartChar: uni3092
Encoding: 12434 12434 229
Width: 800
GlyphClass: 1
Flags: W
LayerCount: 2
Fore
SplineSet
100 600 m 1,0,-1
 300 600 l 1,1,-1
 300 700 l 1,2,-1
 400 700 l 1,3,-1
 400 600 l 1,4,-1
 600 600 l 1,5,-1
 600 500 l 1,6,-1
 400 500 l 1,7,-1
 400 400 l 1,8,-1
 500 400 l 1,9,-1
 500 300 l 1,10,-1
 700 300 l 1,11,-1
 700 200 l 1,12,-1
 600 200 l 1,13,-1
 600 100 l 1,14,-1
 700 100 l 1,15,-1
 700 0 l 1,16,-1
 400 0 l 1,17,-1
 400 100 l 1,18,-1
 500 100 l 1,19,-1
 500 200 l 1,20,-1
 400 200 l 1,21,-1
 400 300 l 1,22,-1
 200 300 l 1,23,-1
 200 400 l 1,24,-1
 300 400 l 1,25,-1
 300 500 l 1,26,-1
 100 500 l 1,27,-1
 100 600 l 1,0,-1
100 300 m 1,28,-1
 200 300 l 1,29,-1
 200 200 l 1,30,-1
 100 200 l 1,31,-1
 100 300 l 1,28,-1
300 200 m 1,32,-1
 400 200 l 1,33,-1
 400 100 l 1,34,-1
 300 100 l 1,35,-1
 300 200 l 1,32,-1
EndSplineSet
EndChar

StartChar: uni3093
Encoding: 12435 12435 230
Width: 800
GlyphClass: 1
Flags: W
LayerCount: 2
Fore
SplineSet
200 700 m 1,0,-1
 200 400 l 1,1,-1
 300 400 l 1,2,-1
 300 300 l 1,3,-1
 200 300 l 1,4,-1
 200 0 l 1,5,-1
 100 0 l 1,6,-1
 100 700 l 1,7,-1
 200 700 l 1,0,-1
300 500 m 1,8,-1
 400 500 l 1,9,-1
 400 400 l 1,10,-1
 300 400 l 1,11,-1
 300 500 l 1,8,-1
400 400 m 1,12,-1
 500 400 l 1,13,-1
 500 100 l 1,14,-1
 400 100 l 1,15,-1
 400 400 l 1,12,-1
500 100 m 1,16,-1
 600 100 l 1,17,-1
 600 0 l 1,18,-1
 500 0 l 1,19,-1
 500 100 l 1,16,-1
600 200 m 1,20,-1
 700 200 l 1,21,-1
 700 100 l 1,22,-1
 600 100 l 1,23,-1
 600 200 l 1,20,-1
EndSplineSet
EndChar

StartChar: uni3094
Encoding: 12436 12436 231
Width: 800
GlyphClass: 1
Flags: W
LayerCount: 2
Fore
SplineSet
100 700 m 1,0,-1
 300 700 l 1,1,-1
 300 600 l 1,2,-1
 100 600 l 1,3,-1
 100 700 l 1,0,-1
0 100 m 1,4,-1
 200 100 l 1,5,-1
 200 0 l 1,6,-1
 0 0 l 1,7,-1
 0 100 l 1,4,-1
0 500 m 1,8,-1
 300 500 l 1,9,-1
 300 400 l 1,10,-1
 0 400 l 1,11,-1
 0 500 l 1,8,-1
200 200 m 1,12,-1
 300 200 l 1,13,-1
 300 100 l 1,14,-1
 200 100 l 1,15,-1
 200 200 l 1,12,-1
300 400 m 1,16,-1
 400 400 l 1,17,-1
 400 200 l 1,18,-1
 300 200 l 1,19,-1
 300 400 l 1,16,-1
400 700 m 1,20,-1
 500 700 l 1,21,-1
 500 500 l 1,22,-1
 400 500 l 1,23,-1
 400 700 l 1,20,-1
600 700 m 1,24,-1
 700 700 l 1,25,-1
 700 500 l 1,26,-1
 600 500 l 1,27,-1
 600 700 l 1,24,-1
EndSplineSet
EndChar

StartChar: uni30A2
Encoding: 12450 12450 232
Width: 800
GlyphClass: 1
Flags: W
LayerCount: 2
Fore
SplineSet
400 400 m 1,0,-1
 400 100 l 1,1,-1
 300 100 l 1,2,-1
 300 400 l 1,3,-1
 400 400 l 1,0,-1
0 600 m 1,4,-1
 700 600 l 1,5,-1
 700 400 l 1,6,-1
 600 400 l 1,7,-1
 600 500 l 1,8,-1
 0 500 l 1,9,-1
 0 600 l 1,4,-1
200 100 m 1,10,-1
 300 100 l 1,11,-1
 300 0 l 1,12,-1
 200 0 l 1,13,-1
 200 100 l 1,10,-1
500 400 m 1,14,-1
 600 400 l 1,15,-1
 600 300 l 1,16,-1
 500 300 l 1,17,-1
 500 400 l 1,14,-1
EndSplineSet
EndChar

StartChar: uni30A1
Encoding: 12449 12449 233
Width: 800
GlyphClass: 1
Flags: W
LayerCount: 2
Fore
SplineSet
500 300 m 1,0,-1
 500 200 l 1,1,-1
 400 200 l 1,2,-1
 400 100 l 1,3,-1
 300 100 l 1,4,-1
 300 300 l 1,5,-1
 500 300 l 1,0,-1
100 500 m 1,6,-1
 600 500 l 1,7,-1
 600 300 l 1,8,-1
 500 300 l 1,9,-1
 500 400 l 1,10,-1
 100 400 l 1,11,-1
 100 500 l 1,6,-1
200 100 m 1,12,-1
 300 100 l 1,13,-1
 300 0 l 1,14,-1
 200 0 l 1,15,-1
 200 100 l 1,12,-1
EndSplineSet
EndChar

StartChar: uni30A4
Encoding: 12452 12452 234
Width: 800
GlyphClass: 1
Flags: W
LayerCount: 2
Fore
SplineSet
600 400 m 1,0,-1
 500 400 l 1,1,-1
 500 500 l 1,2,-1
 600 500 l 1,3,-1
 600 400 l 1,0,-1
100 300 m 1,4,-1
 300 300 l 1,5,-1
 300 200 l 1,6,-1
 100 200 l 1,7,-1
 100 300 l 1,4,-1
300 400 m 1,8,-1
 500 400 l 1,9,-1
 500 0 l 1,10,-1
 400 0 l 1,11,-1
 400 300 l 1,12,-1
 300 300 l 1,13,-1
 300 400 l 1,8,-1
600 600 m 1,14,-1
 700 600 l 1,15,-1
 700 500 l 1,16,-1
 600 500 l 1,17,-1
 600 600 l 1,14,-1
EndSplineSet
EndChar

StartChar: uni30A3
Encoding: 12451 12451 235
Width: 800
GlyphClass: 1
Flags: W
LayerCount: 2
Fore
SplineSet
100 200 m 1,0,-1
 100 300 l 1,1,-1
 500 300 l 1,2,-1
 500 200 l 1,3,-1
 400 200 l 1,4,-1
 400 0 l 1,5,-1
 300 0 l 1,6,-1
 300 200 l 1,7,-1
 100 200 l 1,0,-1
500 400 m 1,8,-1
 600 400 l 1,9,-1
 600 300 l 1,10,-1
 500 300 l 1,11,-1
 500 400 l 1,8,-1
EndSplineSet
EndChar

StartChar: uni30A6
Encoding: 12454 12454 236
Width: 800
GlyphClass: 1
Flags: W
LayerCount: 2
Fore
SplineSet
300 500 m 1,0,-1
 300 600 l 1,1,-1
 400 600 l 1,2,-1
 400 500 l 1,3,-1
 700 500 l 1,4,-1
 700 200 l 1,5,-1
 600 200 l 1,6,-1
 600 400 l 1,7,-1
 200 400 l 1,8,-1
 200 300 l 1,9,-1
 100 300 l 1,10,-1
 100 500 l 1,11,-1
 300 500 l 1,0,-1
300 100 m 1,12,-1
 500 100 l 1,13,-1
 500 0 l 1,14,-1
 300 0 l 1,15,-1
 300 100 l 1,12,-1
500 200 m 1,16,-1
 600 200 l 1,17,-1
 600 100 l 1,18,-1
 500 100 l 1,19,-1
 500 200 l 1,16,-1
EndSplineSet
EndChar

StartChar: uni30A5
Encoding: 12453 12453 237
Width: 800
GlyphClass: 1
Flags: W
LayerCount: 2
Fore
SplineSet
200 400 m 1,0,-1
 300 400 l 1,1,-1
 300 500 l 1,2,-1
 400 500 l 1,3,-1
 400 400 l 1,4,-1
 600 400 l 1,5,-1
 600 100 l 1,6,-1
 500 100 l 1,7,-1
 500 300 l 1,8,-1
 300 300 l 1,9,-1
 300 200 l 1,10,-1
 200 200 l 1,11,-1
 200 400 l 1,0,-1
400 100 m 1,12,-1
 500 100 l 1,13,-1
 500 0 l 1,14,-1
 400 0 l 1,15,-1
 400 100 l 1,12,-1
EndSplineSet
EndChar

StartChar: uni30A8
Encoding: 12456 12456 238
Width: 800
GlyphClass: 1
Flags: W
LayerCount: 2
Fore
SplineSet
100 600 m 1,0,-1
 600 600 l 1,1,-1
 600 500 l 1,2,-1
 400 500 l 1,3,-1
 400 100 l 1,4,-1
 700 100 l 1,5,-1
 700 0 l 1,6,-1
 100 0 l 1,7,-1
 100 100 l 1,8,-1
 300 100 l 1,9,-1
 300 500 l 1,10,-1
 100 500 l 1,11,-1
 100 600 l 1,0,-1
EndSplineSet
EndChar

StartChar: uni30A7
Encoding: 12455 12455 239
Width: 800
GlyphClass: 1
Flags: W
LayerCount: 2
Fore
SplineSet
100 400 m 1,0,-1
 500 400 l 1,1,-1
 500 300 l 1,2,-1
 400 300 l 1,3,-1
 400 100 l 1,4,-1
 600 100 l 1,5,-1
 600 0 l 1,6,-1
 100 0 l 1,7,-1
 100 100 l 1,8,-1
 300 100 l 1,9,-1
 300 300 l 1,10,-1
 100 300 l 1,11,-1
 100 400 l 1,0,-1
EndSplineSet
EndChar

StartChar: uni30AA
Encoding: 12458 12458 240
Width: 800
GlyphClass: 1
Flags: W
LayerCount: 2
Fore
SplineSet
500 600 m 1,0,-1
 600 600 l 1,1,-1
 600 500 l 1,2,-1
 700 500 l 1,3,-1
 700 400 l 1,4,-1
 600 400 l 1,5,-1
 600 100 l 1,6,-1
 500 100 l 1,7,-1
 500 300 l 1,8,-1
 400 300 l 1,9,-1
 400 400 l 1,10,-1
 100 400 l 1,11,-1
 100 500 l 1,12,-1
 500 500 l 1,13,-1
 500 600 l 1,0,-1
200 200 m 1,14,-1
 300 200 l 1,15,-1
 300 100 l 1,16,-1
 200 100 l 1,17,-1
 200 200 l 1,14,-1
300 300 m 1,18,-1
 400 300 l 1,19,-1
 400 200 l 1,20,-1
 300 200 l 1,21,-1
 300 300 l 1,18,-1
400 100 m 1,22,-1
 500 100 l 1,23,-1
 500 0 l 1,24,-1
 400 0 l 1,25,-1
 400 100 l 1,22,-1
EndSplineSet
EndChar

StartChar: uni30A9
Encoding: 12457 12457 241
Width: 800
GlyphClass: 1
Flags: W
LayerCount: 2
Fore
SplineSet
400 500 m 1,0,-1
 500 500 l 1,1,-1
 500 400 l 1,2,-1
 600 400 l 1,3,-1
 600 300 l 1,4,-1
 500 300 l 1,5,-1
 500 100 l 1,6,-1
 400 100 l 1,7,-1
 400 200 l 1,8,-1
 300 200 l 1,9,-1
 300 300 l 1,10,-1
 100 300 l 1,11,-1
 100 400 l 1,12,-1
 400 400 l 1,13,-1
 400 500 l 1,0,-1
200 200 m 1,14,-1
 300 200 l 1,15,-1
 300 100 l 1,16,-1
 200 100 l 1,17,-1
 200 200 l 1,14,-1
300 100 m 1,18,-1
 400 100 l 1,19,-1
 400 0 l 1,20,-1
 300 0 l 1,21,-1
 300 100 l 1,18,-1
EndSplineSet
EndChar

StartChar: uni30AB
Encoding: 12459 12459 242
Width: 800
GlyphClass: 1
Flags: W
LayerCount: 2
Fore
SplineSet
300 600 m 1,0,-1
 400 600 l 1,1,-1
 400 500 l 1,2,-1
 700 500 l 1,3,-1
 700 100 l 1,4,-1
 600 100 l 1,5,-1
 600 400 l 1,6,-1
 400 400 l 1,7,-1
 400 200 l 1,8,-1
 300 200 l 1,9,-1
 300 400 l 1,10,-1
 100 400 l 1,11,-1
 100 500 l 1,12,-1
 300 500 l 1,13,-1
 300 600 l 1,0,-1
100 100 m 1,14,-1
 200 100 l 1,15,-1
 200 0 l 1,16,-1
 100 0 l 1,17,-1
 100 100 l 1,14,-1
200 200 m 1,18,-1
 300 200 l 1,19,-1
 300 100 l 1,20,-1
 200 100 l 1,21,-1
 200 200 l 1,18,-1
500 100 m 1,22,-1
 600 100 l 1,23,-1
 600 0 l 1,24,-1
 500 0 l 1,25,-1
 500 100 l 1,22,-1
EndSplineSet
EndChar

StartChar: uni30F5
Encoding: 12533 12533 243
Width: 800
GlyphClass: 1
Flags: W
LayerCount: 2
Fore
SplineSet
200 400 m 1,0,-1
 300 400 l 1,1,-1
 300 500 l 1,2,-1
 400 500 l 1,3,-1
 400 400 l 1,4,-1
 600 400 l 1,5,-1
 600 100 l 1,6,-1
 500 100 l 1,7,-1
 500 300 l 1,8,-1
 400 300 l 1,9,-1
 400 200 l 1,10,-1
 300 200 l 1,11,-1
 300 300 l 1,12,-1
 200 300 l 1,13,-1
 200 400 l 1,0,-1
200 200 m 1,14,-1
 300 200 l 1,15,-1
 300 100 l 1,16,-1
 200 100 l 1,17,-1
 200 200 l 1,14,-1
400 100 m 1,18,-1
 500 100 l 1,19,-1
 500 0 l 1,20,-1
 400 0 l 1,21,-1
 400 100 l 1,18,-1
EndSplineSet
EndChar

StartChar: uni30AC
Encoding: 12460 12460 244
Width: 800
GlyphClass: 1
Flags: W
LayerCount: 2
Fore
SplineSet
200 500 m 1,0,-1
 300 500 l 1,1,-1
 300 400 l 1,2,-1
 600 400 l 1,3,-1
 600 100 l 1,4,-1
 500 100 l 1,5,-1
 500 300 l 1,6,-1
 300 300 l 1,7,-1
 300 200 l 1,8,-1
 200 200 l 1,9,-1
 200 300 l 1,10,-1
 0 300 l 1,11,-1
 0 400 l 1,12,-1
 200 400 l 1,13,-1
 200 500 l 1,0,-1
100 200 m 1,14,-1
 200 200 l 1,15,-1
 200 100 l 1,16,-1
 100 100 l 1,17,-1
 100 200 l 1,14,-1
400 100 m 1,18,-1
 500 100 l 1,19,-1
 500 0 l 1,20,-1
 400 0 l 1,21,-1
 400 100 l 1,18,-1
400 700 m 1,22,-1
 500 700 l 1,23,-1
 500 500 l 1,24,-1
 400 500 l 1,25,-1
 400 700 l 1,22,-1
600 700 m 1,26,-1
 700 700 l 1,27,-1
 700 500 l 1,28,-1
 600 500 l 1,29,-1
 600 700 l 1,26,-1
EndSplineSet
EndChar

StartChar: uni30AD
Encoding: 12461 12461 245
Width: 800
GlyphClass: 1
Flags: W
LayerCount: 2
Fore
SplineSet
100 500 m 1,0,-1
 100 600 l 1,1,-1
 300 600 l 1,2,-1
 300 700 l 1,3,-1
 400 700 l 1,4,-1
 400 600 l 1,5,-1
 600 600 l 1,6,-1
 600 500 l 1,7,-1
 400 500 l 1,8,-1
 400 400 l 1,9,-1
 700 400 l 1,10,-1
 700 300 l 1,11,-1
 400 300 l 1,12,-1
 400 0 l 1,13,-1
 300 0 l 1,14,-1
 300 300 l 1,15,-1
 0 300 l 1,16,-1
 0 400 l 1,17,-1
 300 400 l 1,18,-1
 300 500 l 1,19,-1
 100 500 l 1,0,-1
EndSplineSet
EndChar

StartChar: uni30AE
Encoding: 12462 12462 246
Width: 800
GlyphClass: 1
Flags: W
LayerCount: 2
Fore
SplineSet
200 300 m 1,0,-1
 400 300 l 1,1,-1
 400 200 l 1,2,-1
 200 200 l 1,3,-1
 200 0 l 1,4,-1
 100 0 l 1,5,-1
 100 200 l 1,6,-1
 0 200 l 1,7,-1
 0 300 l 1,8,-1
 100 300 l 1,9,-1
 100 400 l 1,10,-1
 0 400 l 1,11,-1
 0 500 l 1,12,-1
 100 500 l 1,13,-1
 100 600 l 1,14,-1
 200 600 l 1,15,-1
 200 500 l 1,16,-1
 400 500 l 1,17,-1
 400 400 l 1,18,-1
 200 400 l 1,19,-1
 200 300 l 1,0,-1
400 700 m 1,20,-1
 500 700 l 1,21,-1
 500 500 l 1,22,-1
 400 500 l 1,23,-1
 400 700 l 1,20,-1
600 700 m 1,24,-1
 700 700 l 1,25,-1
 700 500 l 1,26,-1
 600 500 l 1,27,-1
 600 700 l 1,24,-1
EndSplineSet
EndChar

StartChar: uni30AF
Encoding: 12463 12463 247
Width: 800
GlyphClass: 1
Flags: W
LayerCount: 2
Fore
SplineSet
300 400 m 1,0,-1
 200 400 l 1,1,-1
 200 700 l 1,2,-1
 300 700 l 1,3,-1
 300 600 l 1,4,-1
 700 600 l 1,5,-1
 700 300 l 1,6,-1
 600 300 l 1,7,-1
 600 500 l 1,8,-1
 300 500 l 1,9,-1
 300 400 l 1,0,-1
100 400 m 1,10,-1
 200 400 l 1,11,-1
 200 300 l 1,12,-1
 100 300 l 1,13,-1
 100 400 l 1,10,-1
200 100 m 1,14,-1
 400 100 l 1,15,-1
 400 0 l 1,16,-1
 200 0 l 1,17,-1
 200 100 l 1,14,-1
400 200 m 1,18,-1
 500 200 l 1,19,-1
 500 100 l 1,20,-1
 400 100 l 1,21,-1
 400 200 l 1,18,-1
500 300 m 1,22,-1
 600 300 l 1,23,-1
 600 200 l 1,24,-1
 500 200 l 1,25,-1
 500 300 l 1,22,-1
EndSplineSet
EndChar

StartChar: uni30B0
Encoding: 12464 12464 248
Width: 800
GlyphClass: 1
Flags: W
LayerCount: 2
Fore
SplineSet
200 600 m 1,0,-1
 200 500 l 1,1,-1
 400 500 l 1,2,-1
 400 200 l 1,3,-1
 300 200 l 1,4,-1
 300 400 l 1,5,-1
 200 400 l 1,6,-1
 200 300 l 1,7,-1
 100 300 l 1,8,-1
 100 600 l 1,9,-1
 200 600 l 1,0,-1
0 100 m 1,10,-1
 200 100 l 1,11,-1
 200 0 l 1,12,-1
 0 0 l 1,13,-1
 0 100 l 1,10,-1
0 300 m 1,14,-1
 100 300 l 1,15,-1
 100 200 l 1,16,-1
 0 200 l 1,17,-1
 0 300 l 1,14,-1
200 200 m 1,18,-1
 300 200 l 1,19,-1
 300 100 l 1,20,-1
 200 100 l 1,21,-1
 200 200 l 1,18,-1
400 700 m 1,22,-1
 500 700 l 1,23,-1
 500 500 l 1,24,-1
 400 500 l 1,25,-1
 400 700 l 1,22,-1
600 700 m 1,26,-1
 700 700 l 1,27,-1
 700 500 l 1,28,-1
 600 500 l 1,29,-1
 600 700 l 1,26,-1
EndSplineSet
EndChar

StartChar: uni30B1
Encoding: 12465 12465 249
Width: 800
GlyphClass: 1
Flags: W
LayerCount: 2
Fore
SplineSet
200 300 m 1,0,-1
 100 300 l 1,1,-1
 100 400 l 1,2,-1
 200 400 l 1,3,-1
 200 300 l 1,0,-1
200 500 m 1,4,-1
 300 500 l 1,5,-1
 300 700 l 1,6,-1
 400 700 l 1,7,-1
 400 500 l 1,8,-1
 700 500 l 1,9,-1
 700 400 l 1,10,-1
 500 400 l 1,11,-1
 500 100 l 1,12,-1
 400 100 l 1,13,-1
 400 400 l 1,14,-1
 200 400 l 1,15,-1
 200 500 l 1,4,-1
300 100 m 1,16,-1
 400 100 l 1,17,-1
 400 0 l 1,18,-1
 300 0 l 1,19,-1
 300 100 l 1,16,-1
EndSplineSet
EndChar

StartChar: uni30F6
Encoding: 12534 12534 250
Width: 800
GlyphClass: 1
Flags: W
LayerCount: 2
Fore
SplineSet
300 100 m 1,0,-1
 400 100 l 1,1,-1
 400 0 l 1,2,-1
 300 0 l 1,3,-1
 300 100 l 1,0,-1
100 300 m 1,4,-1
 200 300 l 1,5,-1
 200 200 l 1,6,-1
 100 200 l 1,7,-1
 100 300 l 1,4,-1
200 500 m 1,8,-1
 300 500 l 1,9,-1
 300 400 l 1,10,-1
 600 400 l 1,11,-1
 600 300 l 1,12,-1
 500 300 l 1,13,-1
 500 100 l 1,14,-1
 400 100 l 1,15,-1
 400 300 l 1,16,-1
 200 300 l 1,17,-1
 200 500 l 1,8,-1
EndSplineSet
EndChar

StartChar: uni30B2
Encoding: 12466 12466 251
Width: 800
GlyphClass: 1
Flags: W
LayerCount: 2
Fore
SplineSet
200 100 m 1,0,-1
 300 100 l 1,1,-1
 300 0 l 1,2,-1
 200 0 l 1,3,-1
 200 100 l 1,0,-1
0 300 m 1,4,-1
 100 300 l 1,5,-1
 100 200 l 1,6,-1
 0 200 l 1,7,-1
 0 300 l 1,4,-1
100 500 m 1,8,-1
 200 500 l 1,9,-1
 200 400 l 1,10,-1
 500 400 l 1,11,-1
 500 300 l 1,12,-1
 400 300 l 1,13,-1
 400 100 l 1,14,-1
 300 100 l 1,15,-1
 300 300 l 1,16,-1
 100 300 l 1,17,-1
 100 500 l 1,8,-1
400 700 m 1,18,-1
 500 700 l 1,19,-1
 500 500 l 1,20,-1
 400 500 l 1,21,-1
 400 700 l 1,18,-1
600 700 m 1,22,-1
 700 700 l 1,23,-1
 700 500 l 1,24,-1
 600 500 l 1,25,-1
 600 700 l 1,22,-1
EndSplineSet
EndChar

StartChar: uni30B3
Encoding: 12467 12467 252
Width: 800
GlyphClass: 1
Flags: W
LayerCount: 2
Fore
SplineSet
100 500 m 1,0,-1
 700 500 l 1,1,-1
 700 0 l 1,2,-1
 100 0 l 1,3,-1
 100 100 l 1,4,-1
 600 100 l 1,5,-1
 600 400 l 1,6,-1
 100 400 l 1,7,-1
 100 500 l 1,0,-1
EndSplineSet
EndChar

StartChar: uni30B4
Encoding: 12468 12468 253
Width: 800
GlyphClass: 1
Flags: W
LayerCount: 2
Fore
SplineSet
0 500 m 1,0,-1
 400 500 l 1,1,-1
 400 0 l 1,2,-1
 0 0 l 1,3,-1
 0 100 l 1,4,-1
 300 100 l 1,5,-1
 300 400 l 1,6,-1
 0 400 l 1,7,-1
 0 500 l 1,0,-1
400 700 m 1,8,-1
 500 700 l 1,9,-1
 500 500 l 1,10,-1
 400 500 l 1,11,-1
 400 700 l 1,8,-1
600 700 m 1,12,-1
 700 700 l 1,13,-1
 700 500 l 1,14,-1
 600 500 l 1,15,-1
 600 700 l 1,12,-1
EndSplineSet
EndChar

StartChar: uni30B5
Encoding: 12469 12469 254
Width: 800
GlyphClass: 1
Flags: W
LayerCount: 2
Fore
SplineSet
100 500 m 1,0,-1
 200 500 l 1,1,-1
 200 600 l 1,2,-1
 300 600 l 1,3,-1
 300 500 l 1,4,-1
 500 500 l 1,5,-1
 500 600 l 1,6,-1
 600 600 l 1,7,-1
 600 500 l 1,8,-1
 700 500 l 1,9,-1
 700 400 l 1,10,-1
 600 400 l 1,11,-1
 600 100 l 1,12,-1
 500 100 l 1,13,-1
 500 400 l 1,14,-1
 300 400 l 1,15,-1
 300 300 l 1,16,-1
 200 300 l 1,17,-1
 200 400 l 1,18,-1
 100 400 l 1,19,-1
 100 500 l 1,0,-1
400 100 m 1,20,-1
 500 100 l 1,21,-1
 500 0 l 1,22,-1
 400 0 l 1,23,-1
 400 100 l 1,20,-1
EndSplineSet
EndChar

StartChar: uni30B6
Encoding: 12470 12470 255
Width: 800
GlyphClass: 1
Flags: W
LayerCount: 2
Fore
SplineSet
700 700 m 1,0,-1
 700 500 l 1,1,-1
 600 500 l 1,2,-1
 600 700 l 1,3,-1
 700 700 l 1,0,-1
0 400 m 1,4,-1
 100 400 l 1,5,-1
 100 500 l 1,6,-1
 200 500 l 1,7,-1
 200 400 l 1,8,-1
 300 400 l 1,9,-1
 300 500 l 1,10,-1
 400 500 l 1,11,-1
 400 400 l 1,12,-1
 500 400 l 1,13,-1
 500 300 l 1,14,-1
 400 300 l 1,15,-1
 400 100 l 1,16,-1
 300 100 l 1,17,-1
 300 300 l 1,18,-1
 200 300 l 1,19,-1
 200 200 l 1,20,-1
 100 200 l 1,21,-1
 100 300 l 1,22,-1
 0 300 l 1,23,-1
 0 400 l 1,4,-1
200 100 m 1,24,-1
 300 100 l 1,25,-1
 300 0 l 1,26,-1
 200 0 l 1,27,-1
 200 100 l 1,24,-1
400 700 m 1,28,-1
 500 700 l 1,29,-1
 500 500 l 1,30,-1
 400 500 l 1,31,-1
 400 700 l 1,28,-1
EndSplineSet
EndChar

StartChar: uni30B7
Encoding: 12471 12471 256
Width: 800
GlyphClass: 1
Flags: W
LayerCount: 2
Fore
SplineSet
600 200 m 1,0,-1
 500 200 l 1,1,-1
 500 300 l 1,2,-1
 600 300 l 1,3,-1
 600 200 l 1,0,-1
100 100 m 1,4,-1
 300 100 l 1,5,-1
 300 0 l 1,6,-1
 100 0 l 1,7,-1
 100 100 l 1,4,-1
100 500 m 1,8,-1
 300 500 l 1,9,-1
 300 400 l 1,10,-1
 100 400 l 1,11,-1
 100 500 l 1,8,-1
200 700 m 1,12,-1
 400 700 l 1,13,-1
 400 600 l 1,14,-1
 200 600 l 1,15,-1
 200 700 l 1,12,-1
300 200 m 1,16,-1
 500 200 l 1,17,-1
 500 100 l 1,18,-1
 300 100 l 1,19,-1
 300 200 l 1,16,-1
300 400 m 1,20,-1
 400 400 l 1,21,-1
 400 300 l 1,22,-1
 300 300 l 1,23,-1
 300 400 l 1,20,-1
400 600 m 1,24,-1
 500 600 l 1,25,-1
 500 500 l 1,26,-1
 400 500 l 1,27,-1
 400 600 l 1,24,-1
600 400 m 1,28,-1
 700 400 l 1,29,-1
 700 300 l 1,30,-1
 600 300 l 1,31,-1
 600 400 l 1,28,-1
EndSplineSet
EndChar

StartChar: uni30B8
Encoding: 12472 12472 257
Width: 800
GlyphClass: 1
Flags: W
LayerCount: 2
Fore
SplineSet
0 100 m 1,0,-1
 200 100 l 1,1,-1
 200 0 l 1,2,-1
 0 0 l 1,3,-1
 0 100 l 1,0,-1
0 400 m 1,4,-1
 100 400 l 1,5,-1
 100 300 l 1,6,-1
 0 300 l 1,7,-1
 0 400 l 1,4,-1
100 300 m 1,8,-1
 200 300 l 1,9,-1
 200 200 l 1,10,-1
 100 200 l 1,11,-1
 100 300 l 1,8,-1
100 600 m 1,12,-1
 200 600 l 1,13,-1
 200 500 l 1,14,-1
 100 500 l 1,15,-1
 100 600 l 1,12,-1
200 200 m 1,16,-1
 400 200 l 1,17,-1
 400 100 l 1,18,-1
 200 100 l 1,19,-1
 200 200 l 1,16,-1
200 500 m 1,20,-1
 300 500 l 1,21,-1
 300 400 l 1,22,-1
 200 400 l 1,23,-1
 200 500 l 1,20,-1
400 300 m 1,24,-1
 500 300 l 1,25,-1
 500 200 l 1,26,-1
 400 200 l 1,27,-1
 400 300 l 1,24,-1
400 700 m 1,28,-1
 500 700 l 1,29,-1
 500 500 l 1,30,-1
 400 500 l 1,31,-1
 400 700 l 1,28,-1
500 400 m 1,32,-1
 600 400 l 1,33,-1
 600 300 l 1,34,-1
 500 300 l 1,35,-1
 500 400 l 1,32,-1
600 700 m 1,36,-1
 700 700 l 1,37,-1
 700 500 l 1,38,-1
 600 500 l 1,39,-1
 600 700 l 1,36,-1
EndSplineSet
EndChar

StartChar: uni30B9
Encoding: 12473 12473 258
Width: 800
GlyphClass: 1
Flags: W
LayerCount: 2
Fore
SplineSet
100 600 m 1,0,-1
 700 600 l 1,1,-1
 700 400 l 1,2,-1
 600 400 l 1,3,-1
 600 500 l 1,4,-1
 100 500 l 1,5,-1
 100 600 l 1,0,-1
100 100 m 1,6,-1
 300 100 l 1,7,-1
 300 0 l 1,8,-1
 100 0 l 1,9,-1
 100 100 l 1,6,-1
300 200 m 1,10,-1
 400 200 l 1,11,-1
 400 100 l 1,12,-1
 300 100 l 1,13,-1
 300 200 l 1,10,-1
400 300 m 1,14,-1
 500 300 l 1,15,-1
 500 200 l 1,16,-1
 400 200 l 1,17,-1
 400 300 l 1,14,-1
500 200 m 1,18,-1
 600 200 l 1,19,-1
 600 100 l 1,20,-1
 500 100 l 1,21,-1
 500 200 l 1,18,-1
500 400 m 1,22,-1
 600 400 l 1,23,-1
 600 300 l 1,24,-1
 500 300 l 1,25,-1
 500 400 l 1,22,-1
600 100 m 1,26,-1
 700 100 l 1,27,-1
 700 0 l 1,28,-1
 600 0 l 1,29,-1
 600 100 l 1,26,-1
EndSplineSet
EndChar

StartChar: uni30BA
Encoding: 12474 12474 259
Width: 800
GlyphClass: 1
Flags: W
LayerCount: 2
Fore
SplineSet
700 700 m 1,0,-1
 700 500 l 1,1,-1
 600 500 l 1,2,-1
 600 700 l 1,3,-1
 700 700 l 1,0,-1
0 100 m 1,4,-1
 200 100 l 1,5,-1
 200 0 l 1,6,-1
 0 0 l 1,7,-1
 0 100 l 1,4,-1
0 500 m 1,8,-1
 400 500 l 1,9,-1
 400 200 l 1,10,-1
 300 200 l 1,11,-1
 300 400 l 1,12,-1
 0 400 l 1,13,-1
 0 500 l 1,8,-1
200 200 m 1,14,-1
 300 200 l 1,15,-1
 300 100 l 1,16,-1
 200 100 l 1,17,-1
 200 200 l 1,14,-1
300 100 m 1,18,-1
 400 100 l 1,19,-1
 400 0 l 1,20,-1
 300 0 l 1,21,-1
 300 100 l 1,18,-1
400 700 m 1,22,-1
 500 700 l 1,23,-1
 500 500 l 1,24,-1
 400 500 l 1,25,-1
 400 700 l 1,22,-1
EndSplineSet
EndChar

StartChar: uni30BB
Encoding: 12475 12475 260
Width: 800
GlyphClass: 1
Flags: W
LayerCount: 2
Fore
SplineSet
300 600 m 1,0,-1
 300 500 l 1,1,-1
 700 500 l 1,2,-1
 700 400 l 1,3,-1
 600 400 l 1,4,-1
 600 300 l 1,5,-1
 500 300 l 1,6,-1
 500 400 l 1,7,-1
 300 400 l 1,8,-1
 300 100 l 1,9,-1
 200 100 l 1,10,-1
 200 300 l 1,11,-1
 100 300 l 1,12,-1
 100 400 l 1,13,-1
 200 400 l 1,14,-1
 200 600 l 1,15,-1
 300 600 l 1,0,-1
300 100 m 1,16,-1
 700 100 l 1,17,-1
 700 0 l 1,18,-1
 300 0 l 1,19,-1
 300 100 l 1,16,-1
400 300 m 1,20,-1
 500 300 l 1,21,-1
 500 200 l 1,22,-1
 400 200 l 1,23,-1
 400 300 l 1,20,-1
EndSplineSet
EndChar

StartChar: uni30BC
Encoding: 12476 12476 261
Width: 800
GlyphClass: 1
Flags: W
LayerCount: 2
Fore
SplineSet
0 400 m 1,0,-1
 100 400 l 1,1,-1
 100 600 l 1,2,-1
 200 600 l 1,3,-1
 200 500 l 1,4,-1
 400 500 l 1,5,-1
 400 700 l 1,6,-1
 500 700 l 1,7,-1
 500 400 l 1,8,-1
 400 400 l 1,9,-1
 400 300 l 1,10,-1
 300 300 l 1,11,-1
 300 400 l 1,12,-1
 200 400 l 1,13,-1
 200 100 l 1,14,-1
 100 100 l 1,15,-1
 100 300 l 1,16,-1
 0 300 l 1,17,-1
 0 400 l 1,0,-1
200 100 m 1,18,-1
 500 100 l 1,19,-1
 500 0 l 1,20,-1
 200 0 l 1,21,-1
 200 100 l 1,18,-1
600 700 m 1,22,-1
 700 700 l 1,23,-1
 700 500 l 1,24,-1
 600 500 l 1,25,-1
 600 700 l 1,22,-1
EndSplineSet
EndChar

StartChar: uni30BD
Encoding: 12477 12477 262
Width: 800
GlyphClass: 1
Flags: W
LayerCount: 2
Fore
SplineSet
700 600 m 1,0,-1
 700 300 l 1,1,-1
 600 300 l 1,2,-1
 600 600 l 1,3,-1
 700 600 l 1,0,-1
100 100 m 1,4,-1
 400 100 l 1,5,-1
 400 0 l 1,6,-1
 100 0 l 1,7,-1
 100 100 l 1,4,-1
100 600 m 1,8,-1
 200 600 l 1,9,-1
 200 500 l 1,10,-1
 100 500 l 1,11,-1
 100 600 l 1,8,-1
200 500 m 1,12,-1
 300 500 l 1,13,-1
 300 300 l 1,14,-1
 200 300 l 1,15,-1
 200 500 l 1,12,-1
400 200 m 1,16,-1
 500 200 l 1,17,-1
 500 100 l 1,18,-1
 400 100 l 1,19,-1
 400 200 l 1,16,-1
500 300 m 1,20,-1
 600 300 l 1,21,-1
 600 200 l 1,22,-1
 500 200 l 1,23,-1
 500 300 l 1,20,-1
EndSplineSet
EndChar

StartChar: uni30BE
Encoding: 12478 12478 263
Width: 800
GlyphClass: 1
Flags: W
LayerCount: 2
Fore
SplineSet
600 200 m 1,0,-1
 500 200 l 1,1,-1
 500 300 l 1,2,-1
 600 300 l 1,3,-1
 600 200 l 1,0,-1
100 100 m 1,4,-1
 400 100 l 1,5,-1
 400 0 l 1,6,-1
 100 0 l 1,7,-1
 100 100 l 1,4,-1
100 600 m 1,8,-1
 200 600 l 1,9,-1
 200 500 l 1,10,-1
 100 500 l 1,11,-1
 100 600 l 1,8,-1
200 500 m 1,12,-1
 300 500 l 1,13,-1
 300 300 l 1,14,-1
 200 300 l 1,15,-1
 200 500 l 1,12,-1
400 200 m 1,16,-1
 500 200 l 1,17,-1
 500 100 l 1,18,-1
 400 100 l 1,19,-1
 400 200 l 1,16,-1
400 700 m 1,20,-1
 500 700 l 1,21,-1
 500 500 l 1,22,-1
 400 500 l 1,23,-1
 400 700 l 1,20,-1
600 400 m 1,24,-1
 700 400 l 1,25,-1
 700 300 l 1,26,-1
 600 300 l 1,27,-1
 600 400 l 1,24,-1
600 700 m 1,28,-1
 700 700 l 1,29,-1
 700 500 l 1,30,-1
 600 500 l 1,31,-1
 600 700 l 1,28,-1
EndSplineSet
EndChar

StartChar: uni30BF
Encoding: 12479 12479 264
Width: 800
GlyphClass: 1
Flags: W
LayerCount: 2
Fore
SplineSet
500 300 m 1,0,-1
 500 500 l 1,1,-1
 300 500 l 1,2,-1
 300 400 l 1,3,-1
 200 400 l 1,4,-1
 200 700 l 1,5,-1
 300 700 l 1,6,-1
 300 600 l 1,7,-1
 600 600 l 1,8,-1
 600 200 l 1,9,-1
 500 200 l 1,10,-1
 500 100 l 1,11,-1
 400 100 l 1,12,-1
 400 300 l 1,13,-1
 500 300 l 1,0,-1
100 400 m 1,14,-1
 200 400 l 1,15,-1
 200 300 l 1,16,-1
 100 300 l 1,17,-1
 100 400 l 1,14,-1
200 100 m 1,18,-1
 400 100 l 1,19,-1
 400 0 l 1,20,-1
 200 0 l 1,21,-1
 200 100 l 1,18,-1
300 400 m 1,22,-1
 400 400 l 1,23,-1
 400 300 l 1,24,-1
 300 300 l 1,25,-1
 300 400 l 1,22,-1
EndSplineSet
EndChar

StartChar: uni30C0
Encoding: 12480 12480 265
Width: 800
GlyphClass: 1
Flags: W
LayerCount: 2
Fore
SplineSet
700 700 m 1,0,-1
 700 500 l 1,1,-1
 600 500 l 1,2,-1
 600 700 l 1,3,-1
 700 700 l 1,0,-1
0 400 m 1,4,-1
 100 400 l 1,5,-1
 100 600 l 1,6,-1
 200 600 l 1,7,-1
 200 500 l 1,8,-1
 400 500 l 1,9,-1
 400 100 l 1,10,-1
 300 100 l 1,11,-1
 300 200 l 1,12,-1
 200 200 l 1,13,-1
 200 300 l 1,14,-1
 300 300 l 1,15,-1
 300 400 l 1,16,-1
 200 400 l 1,17,-1
 200 300 l 1,18,-1
 0 300 l 1,19,-1
 0 400 l 1,4,-1
100 100 m 1,20,-1
 300 100 l 1,21,-1
 300 0 l 1,22,-1
 100 0 l 1,23,-1
 100 100 l 1,20,-1
400 700 m 1,24,-1
 500 700 l 1,25,-1
 500 500 l 1,26,-1
 400 500 l 1,27,-1
 400 700 l 1,24,-1
EndSplineSet
EndChar

StartChar: uni30C1
Encoding: 12481 12481 266
Width: 800
GlyphClass: 1
Flags: W
LayerCount: 2
Fore
SplineSet
100 400 m 1,0,-1
 400 400 l 1,1,-1
 400 500 l 1,2,-1
 200 500 l 1,3,-1
 200 600 l 1,4,-1
 700 600 l 1,5,-1
 700 500 l 1,6,-1
 500 500 l 1,7,-1
 500 400 l 1,8,-1
 700 400 l 1,9,-1
 700 300 l 1,10,-1
 500 300 l 1,11,-1
 500 100 l 1,12,-1
 400 100 l 1,13,-1
 400 300 l 1,14,-1
 100 300 l 1,15,-1
 100 400 l 1,0,-1
300 100 m 1,16,-1
 400 100 l 1,17,-1
 400 0 l 1,18,-1
 300 0 l 1,19,-1
 300 100 l 1,16,-1
EndSplineSet
EndChar

StartChar: uni30C2
Encoding: 12482 12482 267
Width: 800
GlyphClass: 1
Flags: W
LayerCount: 2
Fore
SplineSet
700 700 m 1,0,-1
 700 500 l 1,1,-1
 600 500 l 1,2,-1
 600 700 l 1,3,-1
 700 700 l 1,0,-1
0 400 m 1,4,-1
 200 400 l 1,5,-1
 200 500 l 1,6,-1
 0 500 l 1,7,-1
 0 600 l 1,8,-1
 400 600 l 1,9,-1
 400 700 l 1,10,-1
 500 700 l 1,11,-1
 500 500 l 1,12,-1
 300 500 l 1,13,-1
 300 400 l 1,14,-1
 500 400 l 1,15,-1
 500 300 l 1,16,-1
 300 300 l 1,17,-1
 300 100 l 1,18,-1
 200 100 l 1,19,-1
 200 300 l 1,20,-1
 0 300 l 1,21,-1
 0 400 l 1,4,-1
100 100 m 1,22,-1
 200 100 l 1,23,-1
 200 0 l 1,24,-1
 100 0 l 1,25,-1
 100 100 l 1,22,-1
EndSplineSet
EndChar

StartChar: uni30C4
Encoding: 12484 12484 268
Width: 800
GlyphClass: 1
Flags: W
LayerCount: 2
Fore
SplineSet
700 600 m 1,0,-1
 700 300 l 1,1,-1
 600 300 l 1,2,-1
 600 600 l 1,3,-1
 700 600 l 1,0,-1
100 100 m 1,4,-1
 400 100 l 1,5,-1
 400 0 l 1,6,-1
 100 0 l 1,7,-1
 100 100 l 1,4,-1
100 500 m 1,8,-1
 200 500 l 1,9,-1
 200 400 l 1,10,-1
 100 400 l 1,11,-1
 100 500 l 1,8,-1
200 400 m 1,12,-1
 300 400 l 1,13,-1
 300 300 l 1,14,-1
 200 300 l 1,15,-1
 200 400 l 1,12,-1
200 700 m 1,16,-1
 300 700 l 1,17,-1
 300 600 l 1,18,-1
 200 600 l 1,19,-1
 200 700 l 1,16,-1
300 600 m 1,20,-1
 400 600 l 1,21,-1
 400 500 l 1,22,-1
 300 500 l 1,23,-1
 300 600 l 1,20,-1
400 200 m 1,24,-1
 500 200 l 1,25,-1
 500 100 l 1,26,-1
 400 100 l 1,27,-1
 400 200 l 1,24,-1
500 300 m 1,28,-1
 600 300 l 1,29,-1
 600 200 l 1,30,-1
 500 200 l 1,31,-1
 500 300 l 1,28,-1
EndSplineSet
EndChar

StartChar: uni30C3
Encoding: 12483 12483 269
Width: 800
GlyphClass: 1
Flags: W
LayerCount: 2
Fore
SplineSet
300 100 m 1,0,-1
 500 100 l 1,1,-1
 500 0 l 1,2,-1
 300 0 l 1,3,-1
 300 100 l 1,0,-1
200 400 m 1,4,-1
 300 400 l 1,5,-1
 300 300 l 1,6,-1
 200 300 l 1,7,-1
 200 400 l 1,4,-1
300 300 m 1,8,-1
 400 300 l 1,9,-1
 400 200 l 1,10,-1
 300 200 l 1,11,-1
 300 300 l 1,8,-1
300 600 m 1,12,-1
 400 600 l 1,13,-1
 400 500 l 1,14,-1
 300 500 l 1,15,-1
 300 600 l 1,12,-1
400 500 m 1,16,-1
 500 500 l 1,17,-1
 500 400 l 1,18,-1
 400 400 l 1,19,-1
 400 500 l 1,16,-1
500 200 m 1,20,-1
 600 200 l 1,21,-1
 600 100 l 1,22,-1
 500 100 l 1,23,-1
 500 200 l 1,20,-1
600 400 m 1,24,-1
 700 400 l 1,25,-1
 700 200 l 1,26,-1
 600 200 l 1,27,-1
 600 400 l 1,24,-1
EndSplineSet
EndChar

StartChar: uni30C5
Encoding: 12485 12485 270
Width: 800
GlyphClass: 1
Flags: W
LayerCount: 2
Fore
SplineSet
700 700 m 1,0,-1
 700 500 l 1,1,-1
 600 500 l 1,2,-1
 600 700 l 1,3,-1
 700 700 l 1,0,-1
0 400 m 1,4,-1
 100 400 l 1,5,-1
 100 300 l 1,6,-1
 0 300 l 1,7,-1
 0 400 l 1,4,-1
100 300 m 1,8,-1
 200 300 l 1,9,-1
 200 200 l 1,10,-1
 100 200 l 1,11,-1
 100 300 l 1,8,-1
200 100 m 1,12,-1
 400 100 l 1,13,-1
 400 0 l 1,14,-1
 200 0 l 1,15,-1
 200 100 l 1,12,-1
200 500 m 1,16,-1
 300 500 l 1,17,-1
 300 400 l 1,18,-1
 200 400 l 1,19,-1
 200 500 l 1,16,-1
300 400 m 1,20,-1
 400 400 l 1,21,-1
 400 300 l 1,22,-1
 300 300 l 1,23,-1
 300 400 l 1,20,-1
400 200 m 1,24,-1
 500 200 l 1,25,-1
 500 100 l 1,26,-1
 400 100 l 1,27,-1
 400 200 l 1,24,-1
400 700 m 1,28,-1
 500 700 l 1,29,-1
 500 500 l 1,30,-1
 400 500 l 1,31,-1
 400 700 l 1,28,-1
500 500 m 1,32,-1
 600 500 l 1,33,-1
 600 200 l 1,34,-1
 500 200 l 1,35,-1
 500 500 l 1,32,-1
EndSplineSet
EndChar

StartChar: uni30C6
Encoding: 12486 12486 271
Width: 800
GlyphClass: 1
Flags: W
LayerCount: 2
Fore
SplineSet
200 600 m 1,0,-1
 600 600 l 1,1,-1
 600 500 l 1,2,-1
 200 500 l 1,3,-1
 200 600 l 1,0,-1
100 400 m 1,4,-1
 700 400 l 1,5,-1
 700 300 l 1,6,-1
 500 300 l 1,7,-1
 500 100 l 1,8,-1
 400 100 l 1,9,-1
 400 300 l 1,10,-1
 100 300 l 1,11,-1
 100 400 l 1,4,-1
200 100 m 1,12,-1
 400 100 l 1,13,-1
 400 0 l 1,14,-1
 200 0 l 1,15,-1
 200 100 l 1,12,-1
EndSplineSet
EndChar

StartChar: uni30C7
Encoding: 12487 12487 272
Width: 800
GlyphClass: 1
Flags: W
LayerCount: 2
Fore
SplineSet
700 700 m 1,0,-1
 700 500 l 1,1,-1
 600 500 l 1,2,-1
 600 700 l 1,3,-1
 700 700 l 1,0,-1
0 300 m 1,4,-1
 200 300 l 1,5,-1
 200 400 l 1,6,-1
 100 400 l 1,7,-1
 100 500 l 1,8,-1
 400 500 l 1,9,-1
 400 400 l 1,10,-1
 300 400 l 1,11,-1
 300 300 l 1,12,-1
 500 300 l 1,13,-1
 500 200 l 1,14,-1
 300 200 l 1,15,-1
 300 100 l 1,16,-1
 200 100 l 1,17,-1
 200 200 l 1,18,-1
 0 200 l 1,19,-1
 0 300 l 1,4,-1
100 100 m 1,20,-1
 200 100 l 1,21,-1
 200 0 l 1,22,-1
 100 0 l 1,23,-1
 100 100 l 1,20,-1
400 700 m 1,24,-1
 500 700 l 1,25,-1
 500 500 l 1,26,-1
 400 500 l 1,27,-1
 400 700 l 1,24,-1
EndSplineSet
EndChar

StartChar: uni30C8
Encoding: 12488 12488 273
Width: 800
GlyphClass: 1
Flags: W
LayerCount: 2
Fore
SplineSet
300 600 m 1,0,-1
 300 400 l 1,1,-1
 400 400 l 1,2,-1
 400 300 l 1,3,-1
 300 300 l 1,4,-1
 300 0 l 1,5,-1
 200 0 l 1,6,-1
 200 600 l 1,7,-1
 300 600 l 1,0,-1
400 300 m 1,8,-1
 600 300 l 1,9,-1
 600 200 l 1,10,-1
 400 200 l 1,11,-1
 400 300 l 1,8,-1
EndSplineSet
EndChar

StartChar: uni30C9
Encoding: 12489 12489 274
Width: 800
GlyphClass: 1
Flags: W
LayerCount: 2
Fore
SplineSet
300 600 m 1,0,-1
 300 400 l 1,1,-1
 400 400 l 1,2,-1
 400 300 l 1,3,-1
 300 300 l 1,4,-1
 300 0 l 1,5,-1
 200 0 l 1,6,-1
 200 600 l 1,7,-1
 300 600 l 1,0,-1
400 300 m 1,8,-1
 600 300 l 1,9,-1
 600 200 l 1,10,-1
 400 200 l 1,11,-1
 400 300 l 1,8,-1
400 700 m 1,12,-1
 500 700 l 1,13,-1
 500 500 l 1,14,-1
 400 500 l 1,15,-1
 400 700 l 1,12,-1
600 700 m 1,16,-1
 700 700 l 1,17,-1
 700 500 l 1,18,-1
 600 500 l 1,19,-1
 600 700 l 1,16,-1
EndSplineSet
EndChar

StartChar: uni30CA
Encoding: 12490 12490 275
Width: 800
GlyphClass: 1
Flags: W
LayerCount: 2
Fore
SplineSet
500 700 m 1,0,-1
 500 500 l 1,1,-1
 700 500 l 1,2,-1
 700 400 l 1,3,-1
 500 400 l 1,4,-1
 500 100 l 1,5,-1
 400 100 l 1,6,-1
 400 400 l 1,7,-1
 100 400 l 1,8,-1
 100 500 l 1,9,-1
 400 500 l 1,10,-1
 400 700 l 1,11,-1
 500 700 l 1,0,-1
200 100 m 1,12,-1
 400 100 l 1,13,-1
 400 0 l 1,14,-1
 200 0 l 1,15,-1
 200 100 l 1,12,-1
EndSplineSet
EndChar

StartChar: uni30CB
Encoding: 12491 12491 276
Width: 800
GlyphClass: 1
Flags: W
LayerCount: 2
Fore
SplineSet
100 100 m 1,0,-1
 700 100 l 1,1,-1
 700 0 l 1,2,-1
 100 0 l 1,3,-1
 100 100 l 1,0,-1
200 500 m 1,4,-1
 700 500 l 1,5,-1
 700 400 l 1,6,-1
 200 400 l 1,7,-1
 200 500 l 1,4,-1
EndSplineSet
EndChar

StartChar: uni30CC
Encoding: 12492 12492 277
Width: 800
GlyphClass: 1
Flags: W
LayerCount: 2
Fore
SplineSet
100 600 m 1,0,-1
 100 700 l 1,1,-1
 700 700 l 1,2,-1
 700 300 l 1,3,-1
 600 300 l 1,4,-1
 600 600 l 1,5,-1
 100 600 l 1,0,-1
100 100 m 1,6,-1
 400 100 l 1,7,-1
 400 0 l 1,8,-1
 100 0 l 1,9,-1
 100 100 l 1,6,-1
300 500 m 1,10,-1
 400 500 l 1,11,-1
 400 400 l 1,12,-1
 300 400 l 1,13,-1
 300 500 l 1,10,-1
400 200 m 1,14,-1
 500 200 l 1,15,-1
 500 100 l 1,16,-1
 400 100 l 1,17,-1
 400 200 l 1,14,-1
400 400 m 1,18,-1
 500 400 l 1,19,-1
 500 300 l 1,20,-1
 400 300 l 1,21,-1
 400 400 l 1,18,-1
500 300 m 1,22,-1
 600 300 l 1,23,-1
 600 200 l 1,24,-1
 500 200 l 1,25,-1
 500 300 l 1,22,-1
600 200 m 1,26,-1
 700 200 l 1,27,-1
 700 100 l 1,28,-1
 600 100 l 1,29,-1
 600 200 l 1,26,-1
EndSplineSet
EndChar

StartChar: uni30CD
Encoding: 12493 12493 278
Width: 800
GlyphClass: 1
Flags: W
LayerCount: 2
Fore
SplineSet
300 700 m 1,0,-1
 400 700 l 1,1,-1
 400 600 l 1,2,-1
 600 600 l 1,3,-1
 600 400 l 1,4,-1
 500 400 l 1,5,-1
 500 500 l 1,6,-1
 400 500 l 1,7,-1
 400 400 l 1,8,-1
 500 400 l 1,9,-1
 500 300 l 1,10,-1
 400 300 l 1,11,-1
 400 200 l 1,12,-1
 500 200 l 1,13,-1
 500 100 l 1,14,-1
 400 100 l 1,15,-1
 400 0 l 1,16,-1
 300 0 l 1,17,-1
 300 200 l 1,18,-1
 200 200 l 1,19,-1
 200 400 l 1,20,-1
 300 400 l 1,21,-1
 300 500 l 1,22,-1
 0 500 l 1,23,-1
 0 600 l 1,24,-1
 300 600 l 1,25,-1
 300 700 l 1,0,-1
0 100 m 1,26,-1
 100 100 l 1,27,-1
 100 0 l 1,28,-1
 0 0 l 1,29,-1
 0 100 l 1,26,-1
100 200 m 1,30,-1
 200 200 l 1,31,-1
 200 100 l 1,32,-1
 100 100 l 1,33,-1
 100 200 l 1,30,-1
500 100 m 1,34,-1
 600 100 l 1,35,-1
 600 0 l 1,36,-1
 500 0 l 1,37,-1
 500 100 l 1,34,-1
EndSplineSet
EndChar

StartChar: uni30CE
Encoding: 12494 12494 279
Width: 800
GlyphClass: 1
Flags: W
LayerCount: 2
Fore
SplineSet
600 600 m 1,0,-1
 600 300 l 1,1,-1
 500 300 l 1,2,-1
 500 600 l 1,3,-1
 600 600 l 1,0,-1
100 100 m 1,4,-1
 300 100 l 1,5,-1
 300 0 l 1,6,-1
 100 0 l 1,7,-1
 100 100 l 1,4,-1
300 200 m 1,8,-1
 400 200 l 1,9,-1
 400 100 l 1,10,-1
 300 100 l 1,11,-1
 300 200 l 1,8,-1
400 300 m 1,12,-1
 500 300 l 1,13,-1
 500 200 l 1,14,-1
 400 200 l 1,15,-1
 400 300 l 1,12,-1
EndSplineSet
EndChar

StartChar: uni30CF
Encoding: 12495 12495 280
Width: 800
GlyphClass: 1
Flags: W
LayerCount: 2
Fore
SplineSet
300 500 m 1,0,-1
 300 100 l 1,1,-1
 200 100 l 1,2,-1
 200 500 l 1,3,-1
 300 500 l 1,0,-1
100 100 m 1,4,-1
 200 100 l 1,5,-1
 200 0 l 1,6,-1
 100 0 l 1,7,-1
 100 100 l 1,4,-1
500 500 m 1,8,-1
 600 500 l 1,9,-1
 600 300 l 1,10,-1
 500 300 l 1,11,-1
 500 500 l 1,8,-1
600 300 m 1,12,-1
 700 300 l 1,13,-1
 700 0 l 1,14,-1
 600 0 l 1,15,-1
 600 300 l 1,12,-1
EndSplineSet
EndChar

StartChar: uni30D0
Encoding: 12496 12496 281
Width: 800
GlyphClass: 1
Flags: W
LayerCount: 2
Fore
SplineSet
700 700 m 1,0,-1
 700 500 l 1,1,-1
 600 500 l 1,2,-1
 600 700 l 1,3,-1
 700 700 l 1,0,-1
0 100 m 1,4,-1
 100 100 l 1,5,-1
 100 0 l 1,6,-1
 0 0 l 1,7,-1
 0 100 l 1,4,-1
100 500 m 1,8,-1
 200 500 l 1,9,-1
 200 100 l 1,10,-1
 100 100 l 1,11,-1
 100 500 l 1,8,-1
300 500 m 1,12,-1
 400 500 l 1,13,-1
 400 300 l 1,14,-1
 300 300 l 1,15,-1
 300 500 l 1,12,-1
400 300 m 1,16,-1
 500 300 l 1,17,-1
 500 0 l 1,18,-1
 400 0 l 1,19,-1
 400 300 l 1,16,-1
400 700 m 1,20,-1
 500 700 l 1,21,-1
 500 500 l 1,22,-1
 400 500 l 1,23,-1
 400 700 l 1,20,-1
EndSplineSet
EndChar

StartChar: uni30D1
Encoding: 12497 12497 282
Width: 800
GlyphClass: 1
Flags: W
LayerCount: 2
Fore
SplineSet
400 500 m 1,0,-1
 400 300 l 1,1,-1
 300 300 l 1,2,-1
 300 500 l 1,3,-1
 400 500 l 1,0,-1
0 100 m 1,4,-1
 100 100 l 1,5,-1
 100 0 l 1,6,-1
 0 0 l 1,7,-1
 0 100 l 1,4,-1
100 500 m 1,8,-1
 200 500 l 1,9,-1
 200 100 l 1,10,-1
 100 100 l 1,11,-1
 100 500 l 1,8,-1
400 300 m 1,12,-1
 500 300 l 1,13,-1
 500 0 l 1,14,-1
 400 0 l 1,15,-1
 400 300 l 1,12,-1
500 700 m 1,16,-1
 700 700 l 1,17,-1
 700 500 l 1,18,-1
 500 500 l 1,19,-1
 500 700 l 1,16,-1
EndSplineSet
EndChar

StartChar: uni30D2
Encoding: 12498 12498 283
Width: 800
GlyphClass: 1
Flags: W
LayerCount: 2
Fore
SplineSet
200 100 m 1,0,-1
 100 100 l 1,1,-1
 100 600 l 1,2,-1
 200 600 l 1,3,-1
 200 400 l 1,4,-1
 400 400 l 1,5,-1
 400 300 l 1,6,-1
 200 300 l 1,7,-1
 200 100 l 1,0,-1
200 100 m 1,8,-1
 600 100 l 1,9,-1
 600 0 l 1,10,-1
 200 0 l 1,11,-1
 200 100 l 1,8,-1
400 500 m 1,12,-1
 600 500 l 1,13,-1
 600 400 l 1,14,-1
 400 400 l 1,15,-1
 400 500 l 1,12,-1
EndSplineSet
EndChar

StartChar: uni30D3
Encoding: 12499 12499 284
Width: 800
GlyphClass: 1
Flags: W
LayerCount: 2
Fore
SplineSet
100 600 m 1,0,-1
 100 400 l 1,1,-1
 400 400 l 1,2,-1
 400 300 l 1,3,-1
 100 300 l 1,4,-1
 100 100 l 1,5,-1
 0 100 l 1,6,-1
 0 600 l 1,7,-1
 100 600 l 1,0,-1
100 100 m 1,8,-1
 500 100 l 1,9,-1
 500 0 l 1,10,-1
 100 0 l 1,11,-1
 100 100 l 1,8,-1
400 700 m 1,12,-1
 500 700 l 1,13,-1
 500 500 l 1,14,-1
 400 500 l 1,15,-1
 400 700 l 1,12,-1
600 700 m 1,16,-1
 700 700 l 1,17,-1
 700 500 l 1,18,-1
 600 500 l 1,19,-1
 600 700 l 1,16,-1
EndSplineSet
EndChar

StartChar: uni30D4
Encoding: 12500 12500 285
Width: 800
GlyphClass: 1
Flags: W
LayerCount: 2
Fore
SplineSet
100 600 m 1,0,-1
 100 400 l 1,1,-1
 400 400 l 1,2,-1
 400 300 l 1,3,-1
 100 300 l 1,4,-1
 100 100 l 1,5,-1
 0 100 l 1,6,-1
 0 600 l 1,7,-1
 100 600 l 1,0,-1
100 100 m 1,8,-1
 500 100 l 1,9,-1
 500 0 l 1,10,-1
 100 0 l 1,11,-1
 100 100 l 1,8,-1
500 700 m 1,12,-1
 700 700 l 1,13,-1
 700 500 l 1,14,-1
 500 500 l 1,15,-1
 500 700 l 1,12,-1
EndSplineSet
EndChar

StartChar: uni30D5
Encoding: 12501 12501 286
Width: 800
GlyphClass: 1
Flags: W
LayerCount: 2
Fore
SplineSet
100 600 m 1,0,-1
 700 600 l 1,1,-1
 700 300 l 1,2,-1
 600 300 l 1,3,-1
 600 500 l 1,4,-1
 100 500 l 1,5,-1
 100 600 l 1,0,-1
100 100 m 1,6,-1
 400 100 l 1,7,-1
 400 0 l 1,8,-1
 100 0 l 1,9,-1
 100 100 l 1,6,-1
400 200 m 1,10,-1
 500 200 l 1,11,-1
 500 100 l 1,12,-1
 400 100 l 1,13,-1
 400 200 l 1,10,-1
500 300 m 1,14,-1
 600 300 l 1,15,-1
 600 200 l 1,16,-1
 500 200 l 1,17,-1
 500 300 l 1,14,-1
EndSplineSet
EndChar

StartChar: uni30D6
Encoding: 12502 12502 287
Width: 800
GlyphClass: 1
Flags: W
LayerCount: 2
Fore
SplineSet
700 700 m 1,0,-1
 700 500 l 1,1,-1
 600 500 l 1,2,-1
 600 700 l 1,3,-1
 700 700 l 1,0,-1
0 100 m 1,4,-1
 200 100 l 1,5,-1
 200 0 l 1,6,-1
 0 0 l 1,7,-1
 0 100 l 1,4,-1
0 500 m 1,8,-1
 400 500 l 1,9,-1
 400 200 l 1,10,-1
 300 200 l 1,11,-1
 300 400 l 1,12,-1
 0 400 l 1,13,-1
 0 500 l 1,8,-1
200 200 m 1,14,-1
 300 200 l 1,15,-1
 300 100 l 1,16,-1
 200 100 l 1,17,-1
 200 200 l 1,14,-1
400 700 m 1,18,-1
 500 700 l 1,19,-1
 500 500 l 1,20,-1
 400 500 l 1,21,-1
 400 700 l 1,18,-1
EndSplineSet
EndChar

StartChar: uni30D7
Encoding: 12503 12503 288
Width: 800
GlyphClass: 1
Flags: W
LayerCount: 2
Fore
SplineSet
0 500 m 1,0,-1
 400 500 l 1,1,-1
 400 200 l 1,2,-1
 300 200 l 1,3,-1
 300 400 l 1,4,-1
 0 400 l 1,5,-1
 0 500 l 1,0,-1
0 100 m 1,6,-1
 200 100 l 1,7,-1
 200 0 l 1,8,-1
 0 0 l 1,9,-1
 0 100 l 1,6,-1
200 200 m 1,10,-1
 300 200 l 1,11,-1
 300 100 l 1,12,-1
 200 100 l 1,13,-1
 200 200 l 1,10,-1
500 700 m 1,14,-1
 700 700 l 1,15,-1
 700 500 l 1,16,-1
 500 500 l 1,17,-1
 500 700 l 1,14,-1
EndSplineSet
EndChar

StartChar: uni30D8
Encoding: 12504 12504 289
Width: 800
GlyphClass: 1
Flags: W
LayerCount: 2
Fore
SplineSet
0 300 m 1,0,-1
 100 300 l 1,1,-1
 100 200 l 1,2,-1
 0 200 l 1,3,-1
 0 300 l 1,0,-1
100 400 m 1,4,-1
 200 400 l 1,5,-1
 200 300 l 1,6,-1
 100 300 l 1,7,-1
 100 400 l 1,4,-1
200 500 m 1,8,-1
 400 500 l 1,9,-1
 400 400 l 1,10,-1
 200 400 l 1,11,-1
 200 500 l 1,8,-1
400 400 m 1,12,-1
 500 400 l 1,13,-1
 500 300 l 1,14,-1
 400 300 l 1,15,-1
 400 400 l 1,12,-1
500 300 m 1,16,-1
 600 300 l 1,17,-1
 600 200 l 1,18,-1
 500 200 l 1,19,-1
 500 300 l 1,16,-1
600 200 m 1,20,-1
 700 200 l 1,21,-1
 700 100 l 1,22,-1
 600 100 l 1,23,-1
 600 200 l 1,20,-1
EndSplineSet
EndChar

StartChar: uni30D9
Encoding: 12505 12505 290
Width: 800
GlyphClass: 1
Flags: W
LayerCount: 2
Fore
SplineSet
0 300 m 1,0,-1
 100 300 l 1,1,-1
 100 200 l 1,2,-1
 0 200 l 1,3,-1
 0 300 l 1,0,-1
100 400 m 1,4,-1
 200 400 l 1,5,-1
 200 300 l 1,6,-1
 100 300 l 1,7,-1
 100 400 l 1,4,-1
200 500 m 1,8,-1
 400 500 l 1,9,-1
 400 400 l 1,10,-1
 200 400 l 1,11,-1
 200 500 l 1,8,-1
400 400 m 1,12,-1
 500 400 l 1,13,-1
 500 300 l 1,14,-1
 400 300 l 1,15,-1
 400 400 l 1,12,-1
400 700 m 1,16,-1
 500 700 l 1,17,-1
 500 500 l 1,18,-1
 400 500 l 1,19,-1
 400 700 l 1,16,-1
500 300 m 1,20,-1
 600 300 l 1,21,-1
 600 200 l 1,22,-1
 500 200 l 1,23,-1
 500 300 l 1,20,-1
600 200 m 1,24,-1
 700 200 l 1,25,-1
 700 100 l 1,26,-1
 600 100 l 1,27,-1
 600 200 l 1,24,-1
600 700 m 1,28,-1
 700 700 l 1,29,-1
 700 500 l 1,30,-1
 600 500 l 1,31,-1
 600 700 l 1,28,-1
EndSplineSet
EndChar

StartChar: uni30DA
Encoding: 12506 12506 291
Width: 800
GlyphClass: 1
Flags: W
LayerCount: 2
Fore
SplineSet
0 300 m 1,0,-1
 100 300 l 1,1,-1
 100 200 l 1,2,-1
 0 200 l 1,3,-1
 0 300 l 1,0,-1
100 400 m 1,4,-1
 200 400 l 1,5,-1
 200 300 l 1,6,-1
 100 300 l 1,7,-1
 100 400 l 1,4,-1
200 500 m 1,8,-1
 400 500 l 1,9,-1
 400 400 l 1,10,-1
 200 400 l 1,11,-1
 200 500 l 1,8,-1
400 400 m 1,12,-1
 500 400 l 1,13,-1
 500 300 l 1,14,-1
 400 300 l 1,15,-1
 400 400 l 1,12,-1
500 300 m 1,16,-1
 600 300 l 1,17,-1
 600 200 l 1,18,-1
 500 200 l 1,19,-1
 500 300 l 1,16,-1
500 700 m 1,20,-1
 700 700 l 1,21,-1
 700 500 l 1,22,-1
 500 500 l 1,23,-1
 500 700 l 1,20,-1
600 200 m 1,24,-1
 700 200 l 1,25,-1
 700 100 l 1,26,-1
 600 100 l 1,27,-1
 600 200 l 1,24,-1
EndSplineSet
EndChar

StartChar: uni30DB
Encoding: 12507 12507 292
Width: 800
GlyphClass: 1
Flags: W
LayerCount: 2
Fore
SplineSet
300 0 m 1,0,-1
 200 0 l 1,1,-1
 200 100 l 1,2,-1
 300 100 l 1,3,-1
 300 0 l 1,0,-1
0 200 m 1,4,-1
 100 200 l 1,5,-1
 100 0 l 1,6,-1
 0 0 l 1,7,-1
 0 200 l 1,4,-1
0 600 m 1,8,-1
 300 600 l 1,9,-1
 300 700 l 1,10,-1
 400 700 l 1,11,-1
 400 600 l 1,12,-1
 700 600 l 1,13,-1
 700 500 l 1,14,-1
 400 500 l 1,15,-1
 400 100 l 1,16,-1
 300 100 l 1,17,-1
 300 500 l 1,18,-1
 0 500 l 1,19,-1
 0 600 l 1,8,-1
100 400 m 1,20,-1
 200 400 l 1,21,-1
 200 200 l 1,22,-1
 100 200 l 1,23,-1
 100 400 l 1,20,-1
500 400 m 1,24,-1
 600 400 l 1,25,-1
 600 200 l 1,26,-1
 500 200 l 1,27,-1
 500 400 l 1,24,-1
600 200 m 1,28,-1
 700 200 l 1,29,-1
 700 0 l 1,30,-1
 600 0 l 1,31,-1
 600 200 l 1,28,-1
EndSplineSet
EndChar

StartChar: uni30DC
Encoding: 12508 12508 293
Width: 800
GlyphClass: 1
Flags: W
LayerCount: 2
Fore
SplineSet
700 700 m 1,0,-1
 700 500 l 1,1,-1
 600 500 l 1,2,-1
 600 700 l 1,3,-1
 700 700 l 1,0,-1
0 200 m 1,4,-1
 100 200 l 1,5,-1
 100 100 l 1,6,-1
 0 100 l 1,7,-1
 0 200 l 1,4,-1
0 500 m 1,8,-1
 200 500 l 1,9,-1
 200 600 l 1,10,-1
 300 600 l 1,11,-1
 300 500 l 1,12,-1
 400 500 l 1,13,-1
 400 700 l 1,14,-1
 500 700 l 1,15,-1
 500 400 l 1,16,-1
 300 400 l 1,17,-1
 300 300 l 1,18,-1
 400 300 l 1,19,-1
 400 200 l 1,20,-1
 300 200 l 1,21,-1
 300 100 l 1,22,-1
 200 100 l 1,23,-1
 200 200 l 1,24,-1
 100 200 l 1,25,-1
 100 300 l 1,26,-1
 200 300 l 1,27,-1
 200 400 l 1,28,-1
 0 400 l 1,29,-1
 0 500 l 1,8,-1
100 100 m 1,30,-1
 200 100 l 1,31,-1
 200 0 l 1,32,-1
 100 0 l 1,33,-1
 100 100 l 1,30,-1
400 200 m 1,34,-1
 500 200 l 1,35,-1
 500 100 l 1,36,-1
 400 100 l 1,37,-1
 400 200 l 1,34,-1
EndSplineSet
EndChar

StartChar: uni30DD
Encoding: 12509 12509 294
Width: 800
GlyphClass: 1
Flags: W
LayerCount: 2
Fore
SplineSet
0 500 m 1,0,-1
 200 500 l 1,1,-1
 200 600 l 1,2,-1
 300 600 l 1,3,-1
 300 500 l 1,4,-1
 500 500 l 1,5,-1
 500 400 l 1,6,-1
 300 400 l 1,7,-1
 300 300 l 1,8,-1
 400 300 l 1,9,-1
 400 200 l 1,10,-1
 300 200 l 1,11,-1
 300 100 l 1,12,-1
 200 100 l 1,13,-1
 200 200 l 1,14,-1
 100 200 l 1,15,-1
 100 300 l 1,16,-1
 200 300 l 1,17,-1
 200 400 l 1,18,-1
 0 400 l 1,19,-1
 0 500 l 1,0,-1
0 200 m 1,20,-1
 100 200 l 1,21,-1
 100 100 l 1,22,-1
 0 100 l 1,23,-1
 0 200 l 1,20,-1
100 100 m 1,24,-1
 200 100 l 1,25,-1
 200 0 l 1,26,-1
 100 0 l 1,27,-1
 100 100 l 1,24,-1
400 200 m 1,28,-1
 500 200 l 1,29,-1
 500 100 l 1,30,-1
 400 100 l 1,31,-1
 400 200 l 1,28,-1
500 700 m 1,32,-1
 700 700 l 1,33,-1
 700 500 l 1,34,-1
 500 500 l 1,35,-1
 500 700 l 1,32,-1
EndSplineSet
EndChar

StartChar: uni30DE
Encoding: 12510 12510 295
Width: 800
GlyphClass: 1
Flags: W
LayerCount: 2
Fore
SplineSet
100 600 m 1,0,-1
 700 600 l 1,1,-1
 700 400 l 1,2,-1
 600 400 l 1,3,-1
 600 500 l 1,4,-1
 100 500 l 1,5,-1
 100 600 l 1,0,-1
200 400 m 1,6,-1
 300 400 l 1,7,-1
 300 300 l 1,8,-1
 200 300 l 1,9,-1
 200 400 l 1,6,-1
300 300 m 1,10,-1
 500 300 l 1,11,-1
 500 100 l 1,12,-1
 400 100 l 1,13,-1
 400 200 l 1,14,-1
 300 200 l 1,15,-1
 300 300 l 1,10,-1
500 100 m 1,16,-1
 600 100 l 1,17,-1
 600 0 l 1,18,-1
 500 0 l 1,19,-1
 500 100 l 1,16,-1
500 400 m 1,20,-1
 600 400 l 1,21,-1
 600 300 l 1,22,-1
 500 300 l 1,23,-1
 500 400 l 1,20,-1
EndSplineSet
EndChar

StartChar: uni30DF
Encoding: 12511 12511 296
Width: 800
GlyphClass: 1
Flags: W
LayerCount: 2
Fore
SplineSet
100 600 m 1,0,-1
 500 600 l 1,1,-1
 500 500 l 1,2,-1
 100 500 l 1,3,-1
 100 600 l 1,0,-1
200 200 m 1,4,-1
 700 200 l 1,5,-1
 700 100 l 1,6,-1
 200 100 l 1,7,-1
 200 200 l 1,4,-1
200 400 m 1,8,-1
 600 400 l 1,9,-1
 600 300 l 1,10,-1
 200 300 l 1,11,-1
 200 400 l 1,8,-1
EndSplineSet
EndChar

StartChar: uni30E0
Encoding: 12512 12512 297
Width: 800
GlyphClass: 1
Flags: W
LayerCount: 2
Fore
SplineSet
200 100 m 1,0,-1
 500 100 l 1,1,-1
 500 200 l 1,2,-1
 600 200 l 1,3,-1
 600 100 l 1,4,-1
 700 100 l 1,5,-1
 700 -100 l 1,6,-1
 600 -100 l 1,7,-1
 600 0 l 1,8,-1
 0 0 l 1,9,-1
 0 100 l 1,10,-1
 100 100 l 1,11,-1
 100 200 l 1,12,-1
 200 200 l 1,13,-1
 200 100 l 1,0,-1
200 400 m 1,14,-1
 300 400 l 1,15,-1
 300 200 l 1,16,-1
 200 200 l 1,17,-1
 200 400 l 1,14,-1
300 600 m 1,18,-1
 400 600 l 1,19,-1
 400 400 l 1,20,-1
 300 400 l 1,21,-1
 300 600 l 1,18,-1
400 300 m 1,22,-1
 500 300 l 1,23,-1
 500 200 l 1,24,-1
 400 200 l 1,25,-1
 400 300 l 1,22,-1
EndSplineSet
EndChar

StartChar: uni30E1
Encoding: 12513 12513 298
Width: 800
GlyphClass: 1
Flags: W
LayerCount: 2
Fore
SplineSet
100 100 m 1,0,-1
 300 100 l 1,1,-1
 300 0 l 1,2,-1
 100 0 l 1,3,-1
 100 100 l 1,0,-1
200 500 m 1,4,-1
 300 500 l 1,5,-1
 300 400 l 1,6,-1
 200 400 l 1,7,-1
 200 500 l 1,4,-1
300 200 m 1,8,-1
 400 200 l 1,9,-1
 400 100 l 1,10,-1
 300 100 l 1,11,-1
 300 200 l 1,8,-1
300 400 m 1,12,-1
 400 400 l 1,13,-1
 400 300 l 1,14,-1
 300 300 l 1,15,-1
 300 400 l 1,12,-1
400 300 m 1,16,-1
 500 300 l 1,17,-1
 500 200 l 1,18,-1
 400 200 l 1,19,-1
 400 300 l 1,16,-1
500 200 m 1,20,-1
 600 200 l 1,21,-1
 600 100 l 1,22,-1
 500 100 l 1,23,-1
 500 200 l 1,20,-1
500 600 m 1,24,-1
 600 600 l 1,25,-1
 600 300 l 1,26,-1
 500 300 l 1,27,-1
 500 600 l 1,24,-1
600 100 m 1,28,-1
 700 100 l 1,29,-1
 700 0 l 1,30,-1
 600 0 l 1,31,-1
 600 100 l 1,28,-1
EndSplineSet
EndChar

StartChar: uni30E2
Encoding: 12514 12514 299
Width: 800
GlyphClass: 1
Flags: W
LayerCount: 2
Fore
SplineSet
100 600 m 1,0,-1
 600 600 l 1,1,-1
 600 500 l 1,2,-1
 400 500 l 1,3,-1
 400 400 l 1,4,-1
 700 400 l 1,5,-1
 700 300 l 1,6,-1
 400 300 l 1,7,-1
 400 100 l 1,8,-1
 300 100 l 1,9,-1
 300 300 l 1,10,-1
 100 300 l 1,11,-1
 100 400 l 1,12,-1
 300 400 l 1,13,-1
 300 500 l 1,14,-1
 100 500 l 1,15,-1
 100 600 l 1,0,-1
400 100 m 1,16,-1
 600 100 l 1,17,-1
 600 0 l 1,18,-1
 400 0 l 1,19,-1
 400 100 l 1,16,-1
EndSplineSet
EndChar

StartChar: uni30E4
Encoding: 12516 12516 300
Width: 800
GlyphClass: 1
Flags: W
LayerCount: 2
Fore
SplineSet
200 600 m 1,0,-1
 300 600 l 1,1,-1
 300 500 l 1,2,-1
 700 500 l 1,3,-1
 700 300 l 1,4,-1
 600 300 l 1,5,-1
 600 400 l 1,6,-1
 300 400 l 1,7,-1
 300 200 l 1,8,-1
 200 200 l 1,9,-1
 200 400 l 1,10,-1
 100 400 l 1,11,-1
 100 500 l 1,12,-1
 200 500 l 1,13,-1
 200 600 l 1,0,-1
300 200 m 1,14,-1
 400 200 l 1,15,-1
 400 0 l 1,16,-1
 300 0 l 1,17,-1
 300 200 l 1,14,-1
500 300 m 1,18,-1
 600 300 l 1,19,-1
 600 200 l 1,20,-1
 500 200 l 1,21,-1
 500 300 l 1,18,-1
EndSplineSet
EndChar

StartChar: uni30E3
Encoding: 12515 12515 301
Width: 800
GlyphClass: 1
Flags: W
LayerCount: 2
Fore
SplineSet
300 100 m 1,0,-1
 400 100 l 1,1,-1
 400 0 l 1,2,-1
 300 0 l 1,3,-1
 300 100 l 1,0,-1
100 300 m 1,4,-1
 200 300 l 1,5,-1
 200 500 l 1,6,-1
 300 500 l 1,7,-1
 300 400 l 1,8,-1
 600 400 l 1,9,-1
 600 200 l 1,10,-1
 500 200 l 1,11,-1
 500 300 l 1,12,-1
 300 300 l 1,13,-1
 300 100 l 1,14,-1
 200 100 l 1,15,-1
 200 200 l 1,16,-1
 100 200 l 1,17,-1
 100 300 l 1,4,-1
EndSplineSet
EndChar

StartChar: uni30E6
Encoding: 12518 12518 302
Width: 800
GlyphClass: 1
Flags: W
LayerCount: 2
Fore
SplineSet
100 600 m 1,0,-1
 600 600 l 1,1,-1
 600 100 l 1,2,-1
 700 100 l 1,3,-1
 700 0 l 1,4,-1
 100 0 l 1,5,-1
 100 100 l 1,6,-1
 500 100 l 1,7,-1
 500 500 l 1,8,-1
 100 500 l 1,9,-1
 100 600 l 1,0,-1
EndSplineSet
EndChar

StartChar: uni30E5
Encoding: 12517 12517 303
Width: 800
GlyphClass: 1
Flags: W
LayerCount: 2
Fore
SplineSet
200 400 m 1,0,-1
 600 400 l 1,1,-1
 600 100 l 1,2,-1
 700 100 l 1,3,-1
 700 0 l 1,4,-1
 200 0 l 1,5,-1
 200 100 l 1,6,-1
 500 100 l 1,7,-1
 500 300 l 1,8,-1
 200 300 l 1,9,-1
 200 400 l 1,0,-1
EndSplineSet
EndChar

StartChar: uni30E8
Encoding: 12520 12520 304
Width: 800
GlyphClass: 1
Flags: W
LayerCount: 2
Fore
SplineSet
100 600 m 1,0,-1
 700 600 l 1,1,-1
 700 0 l 1,2,-1
 100 0 l 1,3,-1
 100 100 l 1,4,-1
 600 100 l 1,5,-1
 600 300 l 1,6,-1
 100 300 l 1,7,-1
 100 400 l 1,8,-1
 600 400 l 1,9,-1
 600 500 l 1,10,-1
 100 500 l 1,11,-1
 100 600 l 1,0,-1
EndSplineSet
EndChar

StartChar: uni30E7
Encoding: 12519 12519 305
Width: 800
GlyphClass: 1
Flags: W
LayerCount: 2
Fore
SplineSet
500 400 m 1,0,-1
 200 400 l 1,1,-1
 200 500 l 1,2,-1
 600 500 l 1,3,-1
 600 0 l 1,4,-1
 200 0 l 1,5,-1
 200 100 l 1,6,-1
 500 100 l 1,7,-1
 500 200 l 1,8,-1
 200 200 l 1,9,-1
 200 300 l 1,10,-1
 500 300 l 1,11,-1
 500 400 l 1,0,-1
EndSplineSet
EndChar

StartChar: uni30E9
Encoding: 12521 12521 306
Width: 800
GlyphClass: 1
Flags: W
LayerCount: 2
Fore
SplineSet
100 400 m 1,0,-1
 100 500 l 1,1,-1
 700 500 l 1,2,-1
 700 200 l 1,3,-1
 600 200 l 1,4,-1
 600 400 l 1,5,-1
 100 400 l 1,0,-1
200 100 m 1,6,-1
 500 100 l 1,7,-1
 500 0 l 1,8,-1
 200 0 l 1,9,-1
 200 100 l 1,6,-1
200 700 m 1,10,-1
 600 700 l 1,11,-1
 600 600 l 1,12,-1
 200 600 l 1,13,-1
 200 700 l 1,10,-1
500 200 m 1,14,-1
 600 200 l 1,15,-1
 600 100 l 1,16,-1
 500 100 l 1,17,-1
 500 200 l 1,14,-1
EndSplineSet
EndChar

StartChar: uni30EA
Encoding: 12522 12522 307
Width: 800
GlyphClass: 1
Flags: W
LayerCount: 2
Fore
SplineSet
200 600 m 1,0,-1
 200 300 l 1,1,-1
 100 300 l 1,2,-1
 100 600 l 1,3,-1
 200 600 l 1,0,-1
300 100 m 1,4,-1
 500 100 l 1,5,-1
 500 0 l 1,6,-1
 300 0 l 1,7,-1
 300 100 l 1,4,-1
500 200 m 1,8,-1
 600 200 l 1,9,-1
 600 100 l 1,10,-1
 500 100 l 1,11,-1
 500 200 l 1,8,-1
600 600 m 1,12,-1
 700 600 l 1,13,-1
 700 200 l 1,14,-1
 600 200 l 1,15,-1
 600 600 l 1,12,-1
EndSplineSet
EndChar

StartChar: uni30EB
Encoding: 12523 12523 308
Width: 800
GlyphClass: 1
Flags: W
LayerCount: 2
Fore
SplineSet
0 100 m 1,0,-1
 100 100 l 1,1,-1
 100 0 l 1,2,-1
 0 0 l 1,3,-1
 0 100 l 1,0,-1
100 600 m 1,4,-1
 200 600 l 1,5,-1
 200 100 l 1,6,-1
 100 100 l 1,7,-1
 100 600 l 1,4,-1
400 600 m 1,8,-1
 500 600 l 1,9,-1
 500 200 l 1,10,-1
 600 200 l 1,11,-1
 600 100 l 1,12,-1
 500 100 l 1,13,-1
 500 0 l 1,14,-1
 400 0 l 1,15,-1
 400 600 l 1,8,-1
600 300 m 1,16,-1
 700 300 l 1,17,-1
 700 200 l 1,18,-1
 600 200 l 1,19,-1
 600 300 l 1,16,-1
EndSplineSet
EndChar

StartChar: uni30EC
Encoding: 12524 12524 309
Width: 800
GlyphClass: 1
Flags: W
LayerCount: 2
Fore
SplineSet
300 600 m 1,0,-1
 300 100 l 1,1,-1
 400 100 l 1,2,-1
 400 0 l 1,3,-1
 200 0 l 1,4,-1
 200 600 l 1,5,-1
 300 600 l 1,0,-1
400 200 m 1,6,-1
 600 200 l 1,7,-1
 600 100 l 1,8,-1
 400 100 l 1,9,-1
 400 200 l 1,6,-1
600 300 m 1,10,-1
 700 300 l 1,11,-1
 700 200 l 1,12,-1
 600 200 l 1,13,-1
 600 300 l 1,10,-1
EndSplineSet
EndChar

StartChar: uni30ED
Encoding: 12525 12525 310
Width: 800
GlyphClass: 1
Flags: W
LayerCount: 2
Fore
SplineSet
700 600 m 1,0,-1
 700 0 l 1,1,-1
 100 0 l 1,2,-1
 100 600 l 1,3,-1
 700 600 l 1,0,-1
600 100 m 1,4,-1
 600 500 l 1,5,-1
 200 500 l 1,6,-1
 200 100 l 1,7,-1
 600 100 l 1,4,-1
EndSplineSet
EndChar

StartChar: uni30EF
Encoding: 12527 12527 311
Width: 800
GlyphClass: 1
Flags: W
LayerCount: 2
Fore
SplineSet
100 600 m 1,0,-1
 700 600 l 1,1,-1
 700 200 l 1,2,-1
 600 200 l 1,3,-1
 600 500 l 1,4,-1
 200 500 l 1,5,-1
 200 300 l 1,6,-1
 100 300 l 1,7,-1
 100 600 l 1,0,-1
300 100 m 1,8,-1
 500 100 l 1,9,-1
 500 0 l 1,10,-1
 300 0 l 1,11,-1
 300 100 l 1,8,-1
500 200 m 1,12,-1
 600 200 l 1,13,-1
 600 100 l 1,14,-1
 500 100 l 1,15,-1
 500 200 l 1,12,-1
EndSplineSet
EndChar

StartChar: uni30EE
Encoding: 12526 12526 312
Width: 800
GlyphClass: 1
Flags: W
LayerCount: 2
Fore
SplineSet
200 400 m 1,0,-1
 600 400 l 1,1,-1
 600 100 l 1,2,-1
 500 100 l 1,3,-1
 500 300 l 1,4,-1
 300 300 l 1,5,-1
 300 200 l 1,6,-1
 200 200 l 1,7,-1
 200 400 l 1,0,-1
300 100 m 1,8,-1
 500 100 l 1,9,-1
 500 0 l 1,10,-1
 300 0 l 1,11,-1
 300 100 l 1,8,-1
EndSplineSet
EndChar

StartChar: uni30F7
Encoding: 12535 12535 313
Width: 800
GlyphClass: 1
Flags: W
LayerCount: 2
Fore
SplineSet
700 700 m 1,0,-1
 700 500 l 1,1,-1
 600 500 l 1,2,-1
 600 700 l 1,3,-1
 700 700 l 1,0,-1
0 500 m 1,4,-1
 400 500 l 1,5,-1
 400 100 l 1,6,-1
 300 100 l 1,7,-1
 300 400 l 1,8,-1
 100 400 l 1,9,-1
 100 300 l 1,10,-1
 0 300 l 1,11,-1
 0 500 l 1,4,-1
100 100 m 1,12,-1
 300 100 l 1,13,-1
 300 0 l 1,14,-1
 100 0 l 1,15,-1
 100 100 l 1,12,-1
400 700 m 1,16,-1
 500 700 l 1,17,-1
 500 500 l 1,18,-1
 400 500 l 1,19,-1
 400 700 l 1,16,-1
EndSplineSet
EndChar

StartChar: uni30F0
Encoding: 12528 12528 314
Width: 800
GlyphClass: 1
Flags: W
LayerCount: 2
Fore
SplineSet
100 500 m 1,0,-1
 500 500 l 1,1,-1
 500 600 l 1,2,-1
 600 600 l 1,3,-1
 600 500 l 1,4,-1
 700 500 l 1,5,-1
 700 400 l 1,6,-1
 600 400 l 1,7,-1
 600 200 l 1,8,-1
 700 200 l 1,9,-1
 700 100 l 1,10,-1
 600 100 l 1,11,-1
 600 -100 l 1,12,-1
 500 -100 l 1,13,-1
 500 100 l 1,14,-1
 0 100 l 1,15,-1
 0 200 l 1,16,-1
 200 200 l 1,17,-1
 200 400 l 1,18,-1
 100 400 l 1,19,-1
 100 500 l 1,0,-1
500 200 m 1,20,-1
 500 400 l 1,21,-1
 300 400 l 1,22,-1
 300 200 l 1,23,-1
 500 200 l 1,20,-1
EndSplineSet
EndChar

StartChar: uni30F8
Encoding: 12536 12536 315
Width: 800
GlyphClass: 1
Flags: W
LayerCount: 2
Fore
SplineSet
700 700 m 1,0,-1
 700 500 l 1,1,-1
 600 500 l 1,2,-1
 600 700 l 1,3,-1
 700 700 l 1,0,-1
0 500 m 1,4,-1
 200 500 l 1,5,-1
 200 600 l 1,6,-1
 300 600 l 1,7,-1
 300 500 l 1,8,-1
 400 500 l 1,9,-1
 400 400 l 1,10,-1
 300 400 l 1,11,-1
 300 200 l 1,12,-1
 400 200 l 1,13,-1
 400 100 l 1,14,-1
 300 100 l 1,15,-1
 300 0 l 1,16,-1
 200 0 l 1,17,-1
 200 100 l 1,18,-1
 0 100 l 1,19,-1
 0 500 l 1,4,-1
200 200 m 1,20,-1
 200 400 l 1,21,-1
 100 400 l 1,22,-1
 100 200 l 1,23,-1
 200 200 l 1,20,-1
400 700 m 1,24,-1
 500 700 l 1,25,-1
 500 500 l 1,26,-1
 400 500 l 1,27,-1
 400 700 l 1,24,-1
EndSplineSet
EndChar

StartChar: uni30F1
Encoding: 12529 12529 316
Width: 800
GlyphClass: 1
Flags: W
LayerCount: 2
Fore
SplineSet
100 600 m 1,0,-1
 700 600 l 1,1,-1
 700 400 l 1,2,-1
 600 400 l 1,3,-1
 600 500 l 1,4,-1
 100 500 l 1,5,-1
 100 600 l 1,0,-1
0 100 m 1,6,-1
 300 100 l 1,7,-1
 300 400 l 1,8,-1
 400 400 l 1,9,-1
 400 100 l 1,10,-1
 700 100 l 1,11,-1
 700 0 l 1,12,-1
 0 0 l 1,13,-1
 0 100 l 1,6,-1
500 400 m 1,14,-1
 600 400 l 1,15,-1
 600 300 l 1,16,-1
 500 300 l 1,17,-1
 500 400 l 1,14,-1
EndSplineSet
EndChar

StartChar: uni30F9
Encoding: 12537 12537 317
Width: 800
GlyphClass: 1
Flags: W
LayerCount: 2
Fore
SplineSet
700 700 m 1,0,-1
 700 500 l 1,1,-1
 600 500 l 1,2,-1
 600 700 l 1,3,-1
 700 700 l 1,0,-1
0 100 m 1,4,-1
 100 100 l 1,5,-1
 100 300 l 1,6,-1
 300 300 l 1,7,-1
 300 200 l 1,8,-1
 200 200 l 1,9,-1
 200 100 l 1,10,-1
 400 100 l 1,11,-1
 400 0 l 1,12,-1
 0 0 l 1,13,-1
 0 100 l 1,4,-1
0 500 m 1,14,-1
 400 500 l 1,15,-1
 400 300 l 1,16,-1
 300 300 l 1,17,-1
 300 400 l 1,18,-1
 0 400 l 1,19,-1
 0 500 l 1,14,-1
400 700 m 1,20,-1
 500 700 l 1,21,-1
 500 500 l 1,22,-1
 400 500 l 1,23,-1
 400 700 l 1,20,-1
EndSplineSet
EndChar

StartChar: uni30F2
Encoding: 12530 12530 318
Width: 800
GlyphClass: 1
Flags: W
LayerCount: 2
Fore
SplineSet
100 600 m 1,0,-1
 700 600 l 1,1,-1
 700 200 l 1,2,-1
 600 200 l 1,3,-1
 600 300 l 1,4,-1
 200 300 l 1,5,-1
 200 400 l 1,6,-1
 600 400 l 1,7,-1
 600 500 l 1,8,-1
 100 500 l 1,9,-1
 100 600 l 1,0,-1
200 100 m 1,10,-1
 500 100 l 1,11,-1
 500 0 l 1,12,-1
 200 0 l 1,13,-1
 200 100 l 1,10,-1
500 200 m 1,14,-1
 600 200 l 1,15,-1
 600 100 l 1,16,-1
 500 100 l 1,17,-1
 500 200 l 1,14,-1
EndSplineSet
EndChar

StartChar: uni30FA
Encoding: 12538 12538 319
Width: 800
GlyphClass: 1
Flags: W
LayerCount: 2
Fore
SplineSet
700 700 m 1,0,-1
 700 500 l 1,1,-1
 600 500 l 1,2,-1
 600 700 l 1,3,-1
 700 700 l 1,0,-1
0 500 m 1,4,-1
 400 500 l 1,5,-1
 400 100 l 1,6,-1
 300 100 l 1,7,-1
 300 200 l 1,8,-1
 100 200 l 1,9,-1
 100 300 l 1,10,-1
 300 300 l 1,11,-1
 300 400 l 1,12,-1
 0 400 l 1,13,-1
 0 500 l 1,4,-1
100 100 m 1,14,-1
 300 100 l 1,15,-1
 300 0 l 1,16,-1
 100 0 l 1,17,-1
 100 100 l 1,14,-1
400 700 m 1,18,-1
 500 700 l 1,19,-1
 500 500 l 1,20,-1
 400 500 l 1,21,-1
 400 700 l 1,18,-1
EndSplineSet
EndChar

StartChar: uni30F3
Encoding: 12531 12531 320
Width: 800
GlyphClass: 1
Flags: W
LayerCount: 2
Fore
SplineSet
100 100 m 1,0,-1
 400 100 l 1,1,-1
 400 0 l 1,2,-1
 100 0 l 1,3,-1
 100 100 l 1,0,-1
100 600 m 1,4,-1
 300 600 l 1,5,-1
 300 500 l 1,6,-1
 100 500 l 1,7,-1
 100 600 l 1,4,-1
300 500 m 1,8,-1
 400 500 l 1,9,-1
 400 400 l 1,10,-1
 300 400 l 1,11,-1
 300 500 l 1,8,-1
400 200 m 1,12,-1
 500 200 l 1,13,-1
 500 100 l 1,14,-1
 400 100 l 1,15,-1
 400 200 l 1,12,-1
500 300 m 1,16,-1
 600 300 l 1,17,-1
 600 200 l 1,18,-1
 500 200 l 1,19,-1
 500 300 l 1,16,-1
600 600 m 1,20,-1
 700 600 l 1,21,-1
 700 300 l 1,22,-1
 600 300 l 1,23,-1
 600 600 l 1,20,-1
EndSplineSet
EndChar

StartChar: uni30F4
Encoding: 12532 12532 321
Width: 800
GlyphClass: 1
Flags: W
LayerCount: 2
Fore
SplineSet
700 700 m 1,0,-1
 700 500 l 1,1,-1
 600 500 l 1,2,-1
 600 700 l 1,3,-1
 700 700 l 1,0,-1
0 500 m 1,4,-1
 100 500 l 1,5,-1
 100 600 l 1,6,-1
 200 600 l 1,7,-1
 200 500 l 1,8,-1
 400 500 l 1,9,-1
 400 100 l 1,10,-1
 300 100 l 1,11,-1
 300 400 l 1,12,-1
 100 400 l 1,13,-1
 100 300 l 1,14,-1
 0 300 l 1,15,-1
 0 500 l 1,4,-1
100 100 m 1,16,-1
 300 100 l 1,17,-1
 300 0 l 1,18,-1
 100 0 l 1,19,-1
 100 100 l 1,16,-1
400 700 m 1,20,-1
 500 700 l 1,21,-1
 500 500 l 1,22,-1
 400 500 l 1,23,-1
 400 700 l 1,20,-1
EndSplineSet
EndChar

StartChar: zero
Encoding: 48 48 322
AltUni2: 00e030.ffffffff.0 00e030.ffffffff.0
Width: 800
GlyphClass: 1
Flags: W
LayerCount: 2
Fore
SplineSet
200 700 m 1,0,-1
 600 700 l 1,1,-1
 600 600 l 1,2,-1
 700 600 l 1,3,-1
 700 100 l 1,4,-1
 600 100 l 1,5,-1
 600 0 l 1,6,-1
 200 0 l 1,7,-1
 200 100 l 1,8,-1
 100 100 l 1,9,-1
 100 600 l 1,10,-1
 200 600 l 1,11,-1
 200 700 l 1,0,-1
500 100 m 1,12,-1
 500 400 l 1,13,-1
 400 400 l 1,14,-1
 400 500 l 1,15,-1
 500 500 l 1,16,-1
 500 600 l 1,17,-1
 300 600 l 1,18,-1
 300 400 l 1,19,-1
 400 400 l 1,20,-1
 400 300 l 1,21,-1
 300 300 l 1,22,-1
 300 100 l 1,23,-1
 500 100 l 1,12,-1
EndSplineSet
EndChar

StartChar: one
Encoding: 49 49 323
AltUni2: 00e031.ffffffff.0 00e031.ffffffff.0
Width: 800
GlyphClass: 1
Flags: W
LayerCount: 2
Fore
SplineSet
300 700 m 1,0,-1
 500 700 l 1,1,-1
 500 0 l 1,2,-1
 300 0 l 1,3,-1
 300 500 l 1,4,-1
 200 500 l 1,5,-1
 200 600 l 1,6,-1
 300 600 l 1,7,-1
 300 700 l 1,0,-1
EndSplineSet
EndChar

StartChar: two
Encoding: 50 50 324
AltUni2: 00e032.ffffffff.0 00e032.ffffffff.0
Width: 800
GlyphClass: 1
Flags: W
LayerCount: 2
Fore
SplineSet
100 600 m 1,0,-1
 200 600 l 1,1,-1
 200 700 l 1,2,-1
 600 700 l 1,3,-1
 600 600 l 1,4,-1
 700 600 l 1,5,-1
 700 400 l 1,6,-1
 600 400 l 1,7,-1
 600 300 l 1,8,-1
 300 300 l 1,9,-1
 300 100 l 1,10,-1
 500 100 l 1,11,-1
 500 200 l 1,12,-1
 700 200 l 1,13,-1
 700 0 l 1,14,-1
 100 0 l 1,15,-1
 100 300 l 1,16,-1
 200 300 l 1,17,-1
 200 400 l 1,18,-1
 500 400 l 1,19,-1
 500 600 l 1,20,-1
 300 600 l 1,21,-1
 300 500 l 1,22,-1
 100 500 l 1,23,-1
 100 600 l 1,0,-1
EndSplineSet
EndChar

StartChar: three
Encoding: 51 51 325
AltUni2: 00e033.ffffffff.0 00e033.ffffffff.0
Width: 800
GlyphClass: 1
Flags: W
LayerCount: 2
Fore
SplineSet
100 600 m 1,0,-1
 200 600 l 1,1,-1
 200 700 l 1,2,-1
 600 700 l 1,3,-1
 600 600 l 1,4,-1
 700 600 l 1,5,-1
 700 400 l 1,6,-1
 600 400 l 1,7,-1
 600 300 l 1,8,-1
 700 300 l 1,9,-1
 700 100 l 1,10,-1
 600 100 l 1,11,-1
 600 0 l 1,12,-1
 200 0 l 1,13,-1
 200 100 l 1,14,-1
 100 100 l 1,15,-1
 100 200 l 1,16,-1
 300 200 l 1,17,-1
 300 100 l 1,18,-1
 500 100 l 1,19,-1
 500 300 l 1,20,-1
 300 300 l 1,21,-1
 300 400 l 1,22,-1
 500 400 l 1,23,-1
 500 600 l 1,24,-1
 300 600 l 1,25,-1
 300 500 l 1,26,-1
 100 500 l 1,27,-1
 100 600 l 1,0,-1
EndSplineSet
EndChar

StartChar: four
Encoding: 52 52 326
AltUni2: 00e034.ffffffff.0 00e034.ffffffff.0
Width: 800
GlyphClass: 1
Flags: W
LayerCount: 2
Fore
SplineSet
400 200 m 1,0,-1
 0 200 l 1,1,-1
 0 400 l 1,2,-1
 100 400 l 1,3,-1
 100 500 l 1,4,-1
 200 500 l 1,5,-1
 200 600 l 1,6,-1
 300 600 l 1,7,-1
 300 700 l 1,8,-1
 600 700 l 1,9,-1
 600 300 l 1,10,-1
 700 300 l 1,11,-1
 700 200 l 1,12,-1
 600 200 l 1,13,-1
 600 0 l 1,14,-1
 400 0 l 1,15,-1
 400 200 l 1,0,-1
400 300 m 1,16,-1
 400 500 l 1,17,-1
 300 500 l 1,18,-1
 300 400 l 1,19,-1
 200 400 l 1,20,-1
 200 300 l 1,21,-1
 400 300 l 1,16,-1
EndSplineSet
EndChar

StartChar: five
Encoding: 53 53 327
AltUni2: 00e035.ffffffff.0 00e035.ffffffff.0
Width: 800
GlyphClass: 1
Flags: W
LayerCount: 2
Fore
SplineSet
700 700 m 1,0,-1
 700 500 l 1,1,-1
 500 500 l 1,2,-1
 500 600 l 1,3,-1
 300 600 l 1,4,-1
 300 400 l 1,5,-1
 600 400 l 1,6,-1
 600 300 l 1,7,-1
 700 300 l 1,8,-1
 700 100 l 1,9,-1
 600 100 l 1,10,-1
 600 0 l 1,11,-1
 200 0 l 1,12,-1
 200 100 l 1,13,-1
 100 100 l 1,14,-1
 100 200 l 1,15,-1
 300 200 l 1,16,-1
 300 100 l 1,17,-1
 500 100 l 1,18,-1
 500 300 l 1,19,-1
 100 300 l 1,20,-1
 100 700 l 1,21,-1
 700 700 l 1,0,-1
EndSplineSet
EndChar

StartChar: six
Encoding: 54 54 328
AltUni2: 00e036.ffffffff.0 00e036.ffffffff.0
Width: 800
GlyphClass: 1
Flags: W
LayerCount: 2
Fore
SplineSet
200 600 m 1,0,-1
 200 700 l 1,1,-1
 600 700 l 1,2,-1
 600 600 l 1,3,-1
 700 600 l 1,4,-1
 700 500 l 1,5,-1
 500 500 l 1,6,-1
 500 600 l 1,7,-1
 300 600 l 1,8,-1
 300 400 l 1,9,-1
 600 400 l 1,10,-1
 600 300 l 1,11,-1
 700 300 l 1,12,-1
 700 100 l 1,13,-1
 600 100 l 1,14,-1
 600 0 l 1,15,-1
 200 0 l 1,16,-1
 200 100 l 1,17,-1
 100 100 l 1,18,-1
 100 600 l 1,19,-1
 200 600 l 1,0,-1
500 100 m 1,20,-1
 500 300 l 1,21,-1
 300 300 l 1,22,-1
 300 100 l 1,23,-1
 500 100 l 1,20,-1
EndSplineSet
EndChar

StartChar: seven
Encoding: 55 55 329
AltUni2: 00e037.ffffffff.0 00e037.ffffffff.0
Width: 800
GlyphClass: 1
Flags: W
LayerCount: 2
Fore
SplineSet
300 500 m 1,0,-1
 100 500 l 1,1,-1
 100 700 l 1,2,-1
 700 700 l 1,3,-1
 700 400 l 1,4,-1
 600 400 l 1,5,-1
 600 300 l 1,6,-1
 500 300 l 1,7,-1
 500 0 l 1,8,-1
 300 0 l 1,9,-1
 300 300 l 1,10,-1
 400 300 l 1,11,-1
 400 400 l 1,12,-1
 500 400 l 1,13,-1
 500 600 l 1,14,-1
 300 600 l 1,15,-1
 300 500 l 1,0,-1
EndSplineSet
EndChar

StartChar: eight
Encoding: 56 56 330
AltUni2: 00e038.ffffffff.0 00e038.ffffffff.0
Width: 800
GlyphClass: 1
Flags: W
LayerCount: 2
Fore
SplineSet
200 600 m 1,0,-1
 200 700 l 1,1,-1
 600 700 l 1,2,-1
 600 600 l 1,3,-1
 700 600 l 1,4,-1
 700 400 l 1,5,-1
 600 400 l 1,6,-1
 600 300 l 1,7,-1
 700 300 l 1,8,-1
 700 100 l 1,9,-1
 600 100 l 1,10,-1
 600 0 l 1,11,-1
 200 0 l 1,12,-1
 200 100 l 1,13,-1
 100 100 l 1,14,-1
 100 300 l 1,15,-1
 200 300 l 1,16,-1
 200 400 l 1,17,-1
 100 400 l 1,18,-1
 100 600 l 1,19,-1
 200 600 l 1,0,-1
500 100 m 1,20,-1
 500 300 l 1,21,-1
 300 300 l 1,22,-1
 300 100 l 1,23,-1
 500 100 l 1,20,-1
500 400 m 1,24,-1
 500 600 l 1,25,-1
 300 600 l 1,26,-1
 300 400 l 1,27,-1
 500 400 l 1,24,-1
EndSplineSet
EndChar

StartChar: nine
Encoding: 57 57 331
AltUni2: 00e039.ffffffff.0 00e039.ffffffff.0
Width: 800
GlyphClass: 1
Flags: W
LayerCount: 2
Fore
SplineSet
200 600 m 1,0,-1
 200 700 l 1,1,-1
 600 700 l 1,2,-1
 600 600 l 1,3,-1
 700 600 l 1,4,-1
 700 100 l 1,5,-1
 600 100 l 1,6,-1
 600 0 l 1,7,-1
 200 0 l 1,8,-1
 200 100 l 1,9,-1
 100 100 l 1,10,-1
 100 200 l 1,11,-1
 300 200 l 1,12,-1
 300 100 l 1,13,-1
 500 100 l 1,14,-1
 500 300 l 1,15,-1
 200 300 l 1,16,-1
 200 400 l 1,17,-1
 100 400 l 1,18,-1
 100 600 l 1,19,-1
 200 600 l 1,0,-1
500 400 m 1,20,-1
 500 600 l 1,21,-1
 300 600 l 1,22,-1
 300 400 l 1,23,-1
 500 400 l 1,20,-1
EndSplineSet
EndChar

StartChar: uni00B9
Encoding: 185 185 332
Width: 800
GlyphClass: 1
Flags: W
LayerCount: 2
Fore
SplineSet
400 700 m 1,0,-1
 500 700 l 1,1,-1
 500 300 l 1,2,-1
 400 300 l 1,3,-1
 400 500 l 1,4,-1
 300 500 l 1,5,-1
 300 600 l 1,6,-1
 400 600 l 1,7,-1
 400 700 l 1,0,-1
EndSplineSet
EndChar

StartChar: uni00B2
Encoding: 178 178 333
Width: 800
GlyphClass: 1
Flags: W
LayerCount: 2
Fore
SplineSet
300 700 m 1,0,-1
 500 700 l 1,1,-1
 500 600 l 1,2,-1
 300 600 l 1,3,-1
 300 700 l 1,0,-1
300 400 m 1,4,-1
 400 400 l 1,5,-1
 400 500 l 1,6,-1
 500 500 l 1,7,-1
 500 400 l 1,8,-1
 600 400 l 1,9,-1
 600 300 l 1,10,-1
 300 300 l 1,11,-1
 300 400 l 1,4,-1
500 600 m 1,12,-1
 600 600 l 1,13,-1
 600 500 l 1,14,-1
 500 500 l 1,15,-1
 500 600 l 1,12,-1
EndSplineSet
EndChar

StartChar: uni00B3
Encoding: 179 179 334
Width: 800
GlyphClass: 1
Flags: W
LayerCount: 2
Fore
SplineSet
300 700 m 1,0,-1
 500 700 l 1,1,-1
 500 600 l 1,2,-1
 300 600 l 1,3,-1
 300 700 l 1,0,-1
300 400 m 1,4,-1
 400 400 l 1,5,-1
 400 500 l 1,6,-1
 500 500 l 1,7,-1
 500 600 l 1,8,-1
 600 600 l 1,9,-1
 600 300 l 1,10,-1
 300 300 l 1,11,-1
 300 400 l 1,4,-1
EndSplineSet
EndChar

StartChar: fraction
Encoding: 8260 8260 335
Width: 800
GlyphClass: 1
Flags: W
LayerCount: 2
Fore
SplineSet
0 100 m 1,0,-1
 100 100 l 1,1,-1
 100 0 l 1,2,-1
 0 0 l 1,3,-1
 0 100 l 1,0,-1
100 200 m 1,4,-1
 200 200 l 1,5,-1
 200 100 l 1,6,-1
 100 100 l 1,7,-1
 100 200 l 1,4,-1
200 300 m 1,8,-1
 300 300 l 1,9,-1
 300 200 l 1,10,-1
 200 200 l 1,11,-1
 200 300 l 1,8,-1
300 400 m 1,12,-1
 400 400 l 1,13,-1
 400 300 l 1,14,-1
 300 300 l 1,15,-1
 300 400 l 1,12,-1
400 500 m 1,16,-1
 500 500 l 1,17,-1
 500 400 l 1,18,-1
 400 400 l 1,19,-1
 400 500 l 1,16,-1
500 600 m 1,20,-1
 600 600 l 1,21,-1
 600 500 l 1,22,-1
 500 500 l 1,23,-1
 500 600 l 1,20,-1
600 700 m 1,24,-1
 700 700 l 1,25,-1
 700 600 l 1,26,-1
 600 600 l 1,27,-1
 600 700 l 1,24,-1
EndSplineSet
EndChar

StartChar: onehalf
Encoding: 189 189 336
Width: 800
VWidth: 0
GlyphClass: 1
Flags: W
LayerCount: 2
Fore
SplineSet
100 700 m 1,0,-1
 200 700 l 1,1,-1
 200 200 l 1,2,-1
 100 200 l 1,3,-1
 100 500 l 1,4,-1
 0 500 l 1,5,-1
 0 600 l 1,6,-1
 100 600 l 1,7,-1
 100 700 l 1,0,-1
300 100 m 1,8,-1
 400 100 l 1,9,-1
 400 200 l 1,10,-1
 500 200 l 1,11,-1
 500 100 l 1,12,-1
 700 100 l 1,13,-1
 700 0 l 1,14,-1
 300 0 l 1,15,-1
 300 100 l 1,8,-1
300 400 m 1,16,-1
 400 400 l 1,17,-1
 400 300 l 1,18,-1
 300 300 l 1,19,-1
 300 400 l 1,16,-1
400 500 m 1,20,-1
 600 500 l 1,21,-1
 600 400 l 1,22,-1
 400 400 l 1,23,-1
 400 500 l 1,20,-1
500 300 m 1,24,-1
 600 300 l 1,25,-1
 600 200 l 1,26,-1
 500 200 l 1,27,-1
 500 300 l 1,24,-1
600 400 m 1,28,-1
 700 400 l 1,29,-1
 700 300 l 1,30,-1
 600 300 l 1,31,-1
 600 400 l 1,28,-1
EndSplineSet
EndChar

StartChar: onequarter
Encoding: 188 188 337
Width: 800
VWidth: 0
GlyphClass: 1
Flags: W
LayerCount: 2
Fore
SplineSet
100 700 m 1,0,-1
 200 700 l 1,1,-1
 200 200 l 1,2,-1
 100 200 l 1,3,-1
 100 500 l 1,4,-1
 0 500 l 1,5,-1
 0 600 l 1,6,-1
 100 600 l 1,7,-1
 100 700 l 1,0,-1
300 300 m 1,8,-1
 400 300 l 1,9,-1
 400 200 l 1,10,-1
 500 200 l 1,11,-1
 500 300 l 1,12,-1
 400 300 l 1,13,-1
 400 400 l 1,14,-1
 500 400 l 1,15,-1
 500 500 l 1,16,-1
 600 500 l 1,17,-1
 600 200 l 1,18,-1
 700 200 l 1,19,-1
 700 100 l 1,20,-1
 600 100 l 1,21,-1
 600 0 l 1,22,-1
 500 0 l 1,23,-1
 500 100 l 1,24,-1
 300 100 l 1,25,-1
 300 300 l 1,8,-1
EndSplineSet
EndChar

StartChar: threequarters
Encoding: 190 190 338
Width: 800
VWidth: 0
GlyphClass: 1
Flags: W
LayerCount: 2
Fore
SplineSet
600 100 m 1,0,-1
 400 100 l 1,1,-1
 400 300 l 1,2,-1
 500 300 l 1,3,-1
 500 200 l 1,4,-1
 600 200 l 1,5,-1
 600 300 l 1,6,-1
 500 300 l 1,7,-1
 500 400 l 1,8,-1
 600 400 l 1,9,-1
 600 500 l 1,10,-1
 700 500 l 1,11,-1
 700 200 l 1,12,-1
 800 200 l 1,13,-1
 800 100 l 1,14,-1
 700 100 l 1,15,-1
 700 0 l 1,16,-1
 600 0 l 1,17,-1
 600 100 l 1,0,-1
0 300 m 1,18,-1
 300 300 l 1,19,-1
 300 200 l 1,20,-1
 0 200 l 1,21,-1
 0 300 l 1,18,-1
0 700 m 1,22,-1
 300 700 l 1,23,-1
 300 600 l 1,24,-1
 0 600 l 1,25,-1
 0 700 l 1,22,-1
100 500 m 1,26,-1
 300 500 l 1,27,-1
 300 400 l 1,28,-1
 100 400 l 1,29,-1
 100 500 l 1,26,-1
300 400 m 1,30,-1
 400 400 l 1,31,-1
 400 300 l 1,32,-1
 300 300 l 1,33,-1
 300 400 l 1,30,-1
300 600 m 1,34,-1
 400 600 l 1,35,-1
 400 500 l 1,36,-1
 300 500 l 1,37,-1
 300 600 l 1,34,-1
EndSplineSet
EndChar

StartChar: uni30FB
Encoding: 12539 12539 340
Width: 800
GlyphClass: 1
Flags: W
LayerCount: 2
Fore
SplineSet
500 400 m 1,0,-1
 500 200 l 1,1,-1
 300 200 l 1,2,-1
 300 400 l 1,3,-1
 500 400 l 1,0,-1
EndSplineSet
EndChar

StartChar: period
Encoding: 46 46 341
AltUni2: 00e02e.ffffffff.0 00e02e.ffffffff.0
Width: 800
GlyphClass: 1
Flags: W
LayerCount: 2
Fore
SplineSet
300 100 m 1,0,-1
 500 100 l 1,1,-1
 500 0 l 1,2,-1
 300 0 l 1,3,-1
 300 100 l 1,0,-1
EndSplineSet
EndChar

StartChar: comma
Encoding: 44 44 342
AltUni2: 00e02c.ffffffff.0 00e02c.ffffffff.0
Width: 800
GlyphClass: 1
Flags: W
LayerCount: 2
Fore
SplineSet
500 200 m 1,0,-1
 500 0 l 1,1,-1
 400 0 l 1,2,-1
 400 -100 l 1,3,-1
 200 -100 l 1,4,-1
 200 0 l 1,5,-1
 300 0 l 1,6,-1
 300 200 l 1,7,-1
 500 200 l 1,0,-1
EndSplineSet
EndChar

StartChar: colon
Encoding: 58 58 343
AltUni2: 00e03a.ffffffff.0 00e03a.ffffffff.0
Width: 800
GlyphClass: 1
Flags: W
LayerCount: 2
Fore
SplineSet
300 200 m 1,0,-1
 500 200 l 1,1,-1
 500 100 l 1,2,-1
 300 100 l 1,3,-1
 300 200 l 1,0,-1
300 400 m 1,4,-1
 500 400 l 1,5,-1
 500 300 l 1,6,-1
 300 300 l 1,7,-1
 300 400 l 1,4,-1
EndSplineSet
EndChar

StartChar: semicolon
Encoding: 59 59 344
AltUni2: 00e03b.ffffffff.0 00e03b.ffffffff.0
Width: 800
GlyphClass: 1
Flags: W
LayerCount: 2
Fore
SplineSet
400 -100 m 1,0,-1
 200 -100 l 1,1,-1
 200 0 l 1,2,-1
 300 0 l 1,3,-1
 300 200 l 1,4,-1
 500 200 l 1,5,-1
 500 0 l 1,6,-1
 400 0 l 1,7,-1
 400 -100 l 1,0,-1
300 400 m 1,8,-1
 500 400 l 1,9,-1
 500 300 l 1,10,-1
 300 300 l 1,11,-1
 300 400 l 1,8,-1
EndSplineSet
EndChar

StartChar: ellipsis
Encoding: 8230 8230 345
Width: 800
GlyphClass: 1
Flags: W
LayerCount: 2
Fore
SplineSet
0 100 m 1,0,-1
 200 100 l 1,1,-1
 200 0 l 1,2,-1
 0 0 l 1,3,-1
 0 100 l 1,0,-1
300 100 m 1,4,-1
 500 100 l 1,5,-1
 500 0 l 1,6,-1
 300 0 l 1,7,-1
 300 100 l 1,4,-1
600 100 m 1,8,-1
 800 100 l 1,9,-1
 800 0 l 1,10,-1
 600 0 l 1,11,-1
 600 100 l 1,8,-1
EndSplineSet
EndChar

StartChar: exclam
Encoding: 33 33 346
AltUni2: 00e021.ffffffff.0 00e021.ffffffff.0
Width: 800
GlyphClass: 1
Flags: W
LayerCount: 2
Fore
SplineSet
300 100 m 1,0,-1
 500 100 l 1,1,-1
 500 0 l 1,2,-1
 300 0 l 1,3,-1
 300 100 l 1,0,-1
300 700 m 1,4,-1
 500 700 l 1,5,-1
 500 200 l 1,6,-1
 300 200 l 1,7,-1
 300 700 l 1,4,-1
EndSplineSet
EndChar

StartChar: exclamdown
Encoding: 161 161 347
Width: 800
GlyphClass: 1
Flags: W
LayerCount: 2
Fore
SplineSet
300 600 m 1,0,-1
 500 600 l 1,1,-1
 500 500 l 1,2,-1
 300 500 l 1,3,-1
 300 600 l 1,0,-1
300 400 m 1,4,-1
 500 400 l 1,5,-1
 500 -100 l 1,6,-1
 300 -100 l 1,7,-1
 300 400 l 1,4,-1
EndSplineSet
EndChar

StartChar: question
Encoding: 63 63 348
AltUni2: 00e03f.ffffffff.0 00e03f.ffffffff.0
Width: 800
GlyphClass: 1
Flags: W
LayerCount: 2
Fore
SplineSet
200 700 m 1,0,-1
 600 700 l 1,1,-1
 600 600 l 1,2,-1
 700 600 l 1,3,-1
 700 400 l 1,4,-1
 600 400 l 1,5,-1
 600 300 l 1,6,-1
 500 300 l 1,7,-1
 500 200 l 1,8,-1
 300 200 l 1,9,-1
 300 300 l 1,10,-1
 400 300 l 1,11,-1
 400 400 l 1,12,-1
 500 400 l 1,13,-1
 500 600 l 1,14,-1
 300 600 l 1,15,-1
 300 500 l 1,16,-1
 100 500 l 1,17,-1
 100 600 l 1,18,-1
 200 600 l 1,19,-1
 200 700 l 1,0,-1
300 100 m 1,20,-1
 500 100 l 1,21,-1
 500 0 l 1,22,-1
 300 0 l 1,23,-1
 300 100 l 1,20,-1
EndSplineSet
EndChar

